<svg xmlns="http://www.w3.org/2000/svg" xmlns:xlink="http://www.w3.org/1999/xlink" width="550.457" height="409.067" viewBox="0 0 550.457 409.067">
  <defs>
    <linearGradient id="linear-gradient" y1="0.5" x2="1" y2="0.5" gradientUnits="objectBoundingBox">
      <stop offset="0.003" stop-color="#aef6bf"/>
      <stop offset="1" stop-color="#8ed3bb"/>
    </linearGradient>
  </defs>
  <g id="Group_1448" data-name="Group 1448" transform="translate(-175.104 -107.05)">
    <path id="Path_1244" data-name="Path 1244" d="M168.344,303.53,139.1,332.774h2.25L112.107,303.53v2.25q14.623-14.621,29.243-29.243H139.1l29.245,29.243a1.592,1.592,0,0,0,2.25-2.25q-14.623-14.621-29.244-29.243a1.614,1.614,0,0,0-2.25,0L109.857,303.53a1.614,1.614,0,0,0,0,2.25Q124.477,320.4,139.1,335.024a1.614,1.614,0,0,0,2.25,0l29.244-29.244A1.592,1.592,0,0,0,168.344,303.53Z" transform="translate(114.741 -166.78)" fill="#812d65"/>
    <path id="Path_1245" data-name="Path 1245" d="M476.936,186.617q23.7,23.695,47.388,47.388v-2.25q-23.692,23.695-47.388,47.39h2.25l-47.39-47.39v2.25l47.39-47.388a1.592,1.592,0,0,0-2.25-2.252q-23.695,23.7-47.39,47.39a1.618,1.618,0,0,0,0,2.25q23.7,23.7,47.39,47.39a1.614,1.614,0,0,0,2.25,0q23.7-23.695,47.39-47.39a1.616,1.616,0,0,0,0-2.25q-23.7-23.693-47.39-47.39A1.592,1.592,0,0,0,476.936,186.617Z" transform="translate(198.529 36.77)" fill="#95d7bd"/>
    <path id="Path_1246" data-name="Path 1246" d="M279.347,142.883v54.1a1.609,1.609,0,0,0,2.4,1.375q24.381-13.526,48.763-27.051a1.606,1.606,0,0,0,0-2.748L281.743,141.51c-1.793-1-3.4,1.752-1.606,2.748L328.9,171.309v-2.748l-48.763,27.051q1.2.686,2.394,1.373v-54.1A1.593,1.593,0,0,0,279.347,142.883Z" transform="translate(105.537 10.315)" fill="#7ea1f4"/>
    <path id="Path_1247" data-name="Path 1247" d="M455.487,124.686l-14.608,26.378,31.079-.022Z" transform="translate(205.849 0)" fill="#812d65"/>
    <path id="Path_1248" data-name="Path 1248" d="M234.546,172.1c-6.717-1.109-13.762,4.493-14.172,11.289s5.941,13.211,12.738,12.846,12.43-7.45,11.227-14.151-8.979-11.384-15.456-9.292" transform="translate(68.903 29.357)" fill="#95d7bd"/>
    <path id="Path_1249" data-name="Path 1249" d="M168.9,173.52a4.859,4.859,0,1,0-.572,9.643,4.8,4.8,0,1,0-1.691-9.366" transform="translate(33.427 30.291)" fill="#00b22d"/>
    <path id="Path_1250" data-name="Path 1250" d="M371.314,138.97a7.147,7.147,0,1,0-.843,14.184,7.059,7.059,0,1,0-2.487-13.777" transform="translate(157.469 8.819)" fill="#eac689"/>
    <path id="Path_1251" data-name="Path 1251" d="M146.044,237.076a7.147,7.147,0,1,0-.843,14.184,7.059,7.059,0,1,0-2.487-13.777" transform="translate(37.402 81.628)" fill="#00b22d"/>
    <path id="Path_1252" data-name="Path 1252" d="M490.435,266.236a7.146,7.146,0,1,0-.843,14.184,7.059,7.059,0,1,0-2.487-13.777" transform="translate(222.444 80.851)" fill="#00b22d"/>
    <rect id="Rectangle_370" data-name="Rectangle 370" width="25.745" height="25.746" transform="translate(322.014 269.932) rotate(21.291)" fill="#cd6e95"/>
    <rect id="Rectangle_371" data-name="Rectangle 371" width="25.746" height="25.745" transform="matrix(0.932, 0.363, -0.363, 0.932, 591.66, 179.502)" fill="#00b22d"/>
    <rect id="Rectangle_372" data-name="Rectangle 372" width="12.872" height="12.873" transform="translate(246.492 276.457) rotate(-23.709)" fill="#00b22d"/>
    <g id="Group_1412" data-name="Group 1412" transform="translate(182.201 289.218)">
      <path id="Path_1253" data-name="Path 1253" d="M236.805,418.539c-12.047-.824-38.259-7.33-50.569-13.676-2.97-1.53-4.344-3.237-6.691-5.615s-3.458-6.328-1.619-9.118c3.242-4.918,11.5-2.154,16.233-5.659,4.756-3.519,3.117-11.5-1.315-15.417s-10.515-5.213-15.965-7.515c-5.247-2.216-10.327-5.8-12.344-11.127s.3-12.478,5.766-14.077c3.351-.982,7.1.206,10.37-1.015,5.661-2.112,6.469-10.436,3.072-15.432s-9.314-7.513-14.813-10.019-11.282-5.648-13.767-11.156.681-13.663,6.722-13.723c5.573-.054,10.564,6.422,15.693,4.241,5.615-2.389,3.146-10.723.506-16.226a67.948,67.948,0,0,1-6.664-28.56c-.071-6.528,1.464-14.075,7.239-17.118,7.565-3.984,16.975,3.125,19.217,11.376s-.107,16.943-1.1,25.435c-.516,4.39-.616,9.058,1.426,12.978s6.854,6.7,10.977,5.114c4.529-1.746,5.936-7.288,7.324-11.939s4.7-9.966,9.515-9.343c4.03.52,6.228,4.981,7.022,8.966a36.5,36.5,0,0,1-7.784,30.23c-2.579,3.056-5.722,5.763-7.348,9.413s-1.067,8.75,2.488,10.582c4.4,2.278,9.512-1.979,11.574-6.491s2.939-9.865,6.682-13.119c6.215-5.4,16.952-.867,19.982,6.789s.3,16.442-3.939,23.5-9.956,13.2-13.66,20.554c-1.49,2.957-2.558,6.761-.537,9.382,2.582,3.349,8.246,1.934,10.979-1.29s3.714-7.557,5.79-11.24,6.278-6.952,10.259-5.531c3.665,1.311,5.012,5.748,5.49,9.613,3.446,27.883-14.4,52.67-36.208,66.236" transform="translate(-154.311 -226.186)" fill="url(#linear-gradient)"/>
      <g id="Group_1405" data-name="Group 1405" transform="translate(28.013 27.648)">
        <path id="Path_1254" data-name="Path 1254" d="M171.593,243.428c.8,8.256,3.255,16.547,5.2,24.6,1.824,7.539,3.754,15.053,5.847,22.522,4.019,14.346,8.669,28.564,13.683,42.59,4.722,13.211,9.943,26.241,15.487,39.128,6.069,14.111,11.773,28.993,19.412,42.337.229.4.935.131.763-.323-5.3-13.978-12.6-27.343-18.546-41.075-5.756-13.292-11.195-26.722-16.161-40.331-4.923-13.483-9.232-27.137-13.082-40.964-2.072-7.432-4.065-14.886-5.915-22.38-2.13-8.635-3.5-17.726-6.311-26.155-.065-.195-.4-.178-.381.052Z" transform="translate(-171.592 -243.242)" fill="#202c43"/>
      </g>
      <g id="Group_1406" data-name="Group 1406" transform="translate(58.67 96.265)">
        <path id="Path_1255" data-name="Path 1255" d="M191.374,321.191c8.632-11.95,17.461-23.633,27.244-34.678.46-.52-.3-1.29-.767-.765a308.384,308.384,0,0,0-27.268,34.983c-.327.5.452.93.791.46Z" transform="translate(-190.504 -285.573)" fill="#202c43"/>
      </g>
      <g id="Group_1407" data-name="Group 1407" transform="translate(26.272 122.401)">
        <path id="Path_1256" data-name="Path 1256" d="M204.419,312.332c-3.21-2.978-7.419-2.7-11.522-3.171a56.88,56.88,0,0,1-21.443-7.377.632.632,0,0,0-.637,1.091,50.1,50.1,0,0,0,15.746,6.528c5.55,1.277,12.582.266,17.356,3.576.384.268.84-.331.5-.647Z" transform="translate(-170.519 -301.695)" fill="#202c43"/>
      </g>
      <g id="Group_1408" data-name="Group 1408" transform="translate(42.058 168.25)">
        <path id="Path_1257" data-name="Path 1257" d="M216.488,339.7c-11.049-4.9-23.65-8.75-35.741-9.721a.5.5,0,0,0-.135.987c12.13,2.689,23.814,5.336,35.6,9.391.378.13.648-.49.277-.656Z" transform="translate(-180.257 -329.98)" fill="#202c43"/>
      </g>
      <g id="Group_1409" data-name="Group 1409" transform="translate(77.064 139.72)">
        <path id="Path_1258" data-name="Path 1258" d="M202.653,349.378c8-14.312,18.419-25.237,30.413-36.181.391-.357-.126-1.047-.574-.741-12.95,8.856-23.409,22.7-30.587,36.484-.256.493.475.927.747.438Z" transform="translate(-201.852 -312.38)" fill="#202c43"/>
      </g>
      <g id="Group_1410" data-name="Group 1410" transform="translate(19.296 71.714)">
        <path id="Path_1259" data-name="Path 1259" d="M187.257,279.171c-6.063-4.048-13.247-7.483-20.478-8.736-.562-.1-.812.716-.24.872,7.192,1.952,14.048,4.433,20.352,8.491.4.253.754-.37.366-.627Z" transform="translate(-166.215 -270.427)" fill="#202c43"/>
      </g>
      <g id="Group_1411" data-name="Group 1411" transform="translate(39.891 65.245)">
        <path id="Path_1260" data-name="Path 1260" d="M179.321,282.194a90.343,90.343,0,0,0,19.522-14.967c.444-.449-.2-1.047-.676-.674-6.4,5.077-12.018,10.987-19.116,15.177a.269.269,0,0,0,.271.464Z" transform="translate(-178.92 -266.436)" fill="#202c43"/>
      </g>
    </g>
    <g id="Group_1416" data-name="Group 1416" transform="translate(580.014 373.03)">
      <path id="Path_1261" data-name="Path 1261" d="M477.384,277.89c-18.163,2.36-31.115,14.08-43.637,27.445a80.515,80.515,0,0,0-21.394,49.439c-.169,2.613-.128,5.481,1.517,7.518,2.611,3.229,7.638,2.662,11.621,1.49,27.294-8.039,49.489-31.451,56.064-59.136,2.175-9.165,2.331-19.937-4.171-26.756" transform="translate(-391.921 -277.89)" fill="#7ea1f4"/>
      <g id="Group_1413" data-name="Group 1413" transform="translate(0 26.24)">
        <path id="Path_1262" data-name="Path 1262" d="M473.415,294.169c-12.722,15.053-25.134,30.353-37.581,45.633-12.018,14.753-24.7,29.162-36,44.469-.43.579.522,1.306,1,.77,12.846-14.429,24.5-30.055,36.652-45.074,12.192-15.074,24.4-30.126,36.31-45.419.207-.266-.152-.647-.379-.379Z" transform="translate(-399.723 -294.078)" fill="#202c43"/>
      </g>
      <g id="Group_1414" data-name="Group 1414" transform="translate(51.849 37.748)">
        <path id="Path_1263" data-name="Path 1263" d="M432.939,301.569c-.36,4.636-1.733,9.848-1.036,14.466.073.481.78.405.9,0,1.332-4.461.671-9.846.952-14.466.034-.525-.773-.52-.815,0Z" transform="translate(-431.709 -301.177)" fill="#202c43"/>
      </g>
      <g id="Group_1415" data-name="Group 1415" transform="translate(41.294 58.33)">
        <path id="Path_1264" data-name="Path 1264" d="M425.761,322.2c5.73-1.581,11.293-4.349,16.745-6.7,1.059-.454.144-1.992-.9-1.545-5.395,2.3-11.159,4.395-16.192,7.416a.454.454,0,0,0,.349.827Z" transform="translate(-425.197 -313.874)" fill="#202c43"/>
      </g>
    </g>
    <g id="Group_1447" data-name="Group 1447" transform="translate(218.128 229.615)">
      <path id="Path_1265" data-name="Path 1265" d="M415.242,287.086s18.789,3.067,17.3,10.686-5.216,78.625-5.216,78.625H384.048Z" transform="translate(-47.572 -128.764)" fill="#d0d5dd"/>
      <g id="Group_1445" data-name="Group 1445" transform="translate(171.795)">
        <path id="Path_1266" data-name="Path 1266" d="M320.956,306.062s18.708-52.14,51.248-49.956h36.453s26.641,3.924,41.073,24.516l-11.37,41.191-.468,78.722-89.307-.616-.11-77.62Z" transform="translate(-258.547 -148.044)" fill="#5665c7"/>
        <path id="Path_1267" data-name="Path 1267" d="M357.7,256.282s-11.186,36.957,4.519,80.9c0,0,31.937-68.429,43.589-75.261C405.8,261.92,391.014,253.618,357.7,256.282Z" transform="translate(-238.13 -148.221)" fill="#fffffd"/>
        <g id="Group_1419" data-name="Group 1419" transform="translate(15.533 97.87)">
          <g id="Group_1417" data-name="Group 1417" transform="translate(4.169)">
            <path id="Path_1268" data-name="Path 1268" d="M310.434,282.15s-.4-11.289-.407-12.177,8.04-5.855,6.315-6.52-6.666,1.72-6.666,1.72.313-13.412-1.718-12.667-1.574,7.961-1.574,7.961-1.044-11.508-2.743-10.626S303.449,260,303.449,260s-1.71-8.353-3.49-9.215-.107,9.373-.107,9.373-2.707-8.219-3.877-8.457-1.365,31.755-1.365,31.755Z" transform="translate(-294.61 -249.793)" fill="#e5bb91"/>
          </g>
          <g id="Group_1418" data-name="Group 1418" transform="translate(11.708 13.075)">
            <path id="Path_1269" data-name="Path 1269" d="M305.069,257.895a10.11,10.11,0,0,0-5.78,5.438c-.063-.015-.031-.5.248-1.224a7.086,7.086,0,0,1,4.3-4.041C304.573,257.835,305.056,257.83,305.069,257.895Z" transform="translate(-299.261 -257.859)" fill="#d88773"/>
          </g>
          <path id="Path_1270" data-name="Path 1270" d="M342.378,294.353s-16.973,34.881-21.942,36.756-7.505-67.369-7.505-67.369l-18.911,2.153S280.832,374.952,322.5,367.1a25.726,25.726,0,0,0,13.169-7.1c7.744-7.619,25.22-26.662,42.952-58.645Z" transform="translate(-292.038 -241.132)" fill="#5665c7"/>
        </g>
        <g id="Group_1420" data-name="Group 1420" transform="translate(86.068 108.899)">
          <path id="Path_1271" data-name="Path 1271" d="M342.028,320.627c-.042.065-.721-.248-1.762-1.133a13.594,13.594,0,0,1-3.456-4.7,14.024,14.024,0,0,1-.916-8.859,14.9,14.9,0,0,1,6.45-9.211l-.378.708c-.12-2.97-.25-6.163-.2-9.476a53.049,53.049,0,0,1,1.895-14.382,30.789,30.789,0,0,1,5.43-10.58,21.729,21.729,0,0,1,6.032-5.273,7.259,7.259,0,0,1,2.714-1.11,16.117,16.117,0,0,1-2.367,1.653,24.671,24.671,0,0,0-5.451,5.445,31.553,31.553,0,0,0-4.889,10.285,55.269,55.269,0,0,0-1.705,13.986c-.047,3.257.062,6.427.146,9.4l.013.465-.391.242a13.732,13.732,0,0,0-5.954,8.175,13.382,13.382,0,0,0,.512,8.144,15.165,15.165,0,0,0,2.9,4.7C341.53,320.074,342.095,320.536,342.028,320.627Z" transform="translate(-335.552 -256.597)" fill="#4b5bad"/>
        </g>
        <g id="Group_1433" data-name="Group 1433" transform="translate(72.686 2.458)">
          <path id="Path_1272" data-name="Path 1272" d="M368.339,196.584A17.511,17.511,0,0,1,395.424,207.8c1.376,7.307-1.833,15.526,1.893,21.963,3.328,5.75,11.556,8.661,12.145,15.28.384,4.344-2.921,8.241-3.148,12.6-.413,7.992,9.373,14.033,8.374,21.973-.433,3.451-2.966,6.375-6.011,8.06a26.131,26.131,0,0,1-10.015,2.668c-4.487.475-9.387.464-13.043-2.179-3.393-2.453-4.989-6.64-6.289-10.618a219.37,219.37,0,0,1-10.455-81.24" transform="translate(-301.808 -189.294)" fill="#1f2f6e"/>
          <path id="Path_1273" data-name="Path 1273" d="M394.355,197.457c-4.393-4.72-8.573-5.369-12.937-5.625s-8.634,1.269-12.642,3.017S360.8,198.6,356.5,199.388c-3.308.606-6.794.483-9.911,1.749a14.493,14.493,0,0,0-7.769,8.484,25.013,25.013,0,0,0-1.063,11.679c.48,4.108,1.606,8.246.892,12.318-.856,4.907-4.218,8.925-7.033,13.035s-5.26,9.107-3.95,13.913c1.321,4.861,6.218,8.351,6.781,13.359.4,3.586-1.556,7.032-1.679,10.637-.173,5.116,3.537,9.812,8.189,11.952s10.034,2.1,15.069,1.177A47.1,47.1,0,0,0,391.134,267.9c3.8-10.566,3.626-22.13,2.555-33.308s-3-22.337-2.53-33.556" transform="translate(-327.293 -190.393)" fill="#1f2f6e"/>
          <path id="Path_1274" data-name="Path 1274" d="M391.927,228.855l-1.755,49.4c-9.212,5.873-19.792,6.672-32.384,0V229.591Z" transform="translate(-308.361 -167.383)" fill="#e7bc90"/>
          <path id="Path_1275" data-name="Path 1275" d="M341.759,200.11s-.268,45.814,1.071,57.059c1.658,13.983,13.308,22.717,24.373,22.495,13.6-.272,29.018-4.988,33.122-18.476s-.966-61.078-.966-61.078Z" transform="translate(-318.328 -185.234)" fill="#e7bc90"/>
          <path id="Path_1276" data-name="Path 1276" d="M403.113,241.214a98.394,98.394,0,0,0-.622-18.8c-.36-2.715.015-7.875-1.629-10.068-2.245-3.005-6.126-4.26-9.825-4.891-9-1.537-18.2-.4-27.328-.219s-18.2,1.428-25.758-3.683l51.89-8.984,15.216,4.795,3.281,35.625Z" transform="translate(-320.68 -188.676)" fill="#1f2f6e"/>
          <path id="Path_1277" data-name="Path 1277" d="M380.893,208.031" transform="translate(-294.012 -180.315)" fill="#d47541"/>
          <g id="Group_1422" data-name="Group 1422" transform="translate(82.433 44.651)">
            <path id="Path_1278" data-name="Path 1278" d="M378.149,218.8s14.236-3.271,14.646,11.041-14.646,13.9-14.646,13.9Z" transform="translate(-378.149 -218.478)" fill="#e7bc90"/>
            <g id="Group_1421" data-name="Group 1421" transform="translate(3.435 7.037)">
              <path id="Path_1279" data-name="Path 1279" d="M382.742,222.864a5.489,5.489,0,0,1,3.558,6.255c-.423,2.312-2.616,5.085-5.174,4.673a1.2,1.2,0,0,1-.527-2c1.075-1.078,2.443-1.279,2.957-2.934.537-1.72-.428-3.422-1.628-4.6a.841.841,0,0,1,.814-1.4Z" transform="translate(-380.268 -222.82)" fill="#d88773"/>
            </g>
          </g>
          <path id="Path_1280" data-name="Path 1280" d="M398.421,200.542c-2.825.05-4.694,2.8-6.547,4.938a21.633,21.633,0,0,1-17.909,7.265c-2.6-.225-5.155-.93-7.768-1.118s-5.419.217-7.406,1.921c-2.793,2.394-3.37,6.794-6.413,8.862-2.245,1.525-7.285,5.832-9.925,5.2a8.692,8.692,0,0,1-5.9-6.127c-.209-1.148,2.1-22.606,2.1-22.606l14.326-.942Z" transform="translate(-321.558 -186.587)" fill="#1f2f6e"/>
          <g id="Group_1423" data-name="Group 1423" transform="translate(47.603 82.992)">
            <path id="Path_1281" data-name="Path 1281" d="M384.271,242.365a30.589,30.589,0,0,1-27.025,12.085c-.765-.063-.789-1.234,0-1.209a34.611,34.611,0,0,0,26.776-11.065c.122-.126.355.044.25.19Z" transform="translate(-356.662 -242.131)" fill="#d88773"/>
          </g>
          <g id="Group_1424" data-name="Group 1424" transform="translate(40.38 48.028)">
            <path id="Path_1282" data-name="Path 1282" d="M356.719,220.886a13.659,13.659,0,0,1-.154,7.489,27.494,27.494,0,0,1-1.631,3.247c-1.924,4.014-1.132,5.931,1.5,9.089.587.7-.4,1.721-1.02,1.018-1.882-2.128-3.774-4.822-3.054-7.833a13.7,13.7,0,0,1,1.778-3.344,13.1,13.1,0,0,0,1.709-9.426c-.105-.564.737-.81.869-.24Z" transform="translate(-352.206 -220.562)" fill="#0c112c"/>
          </g>
          <g id="Group_1425" data-name="Group 1425" transform="translate(46.244 72.29)">
            <path id="Path_1283" data-name="Path 1283" d="M366.01,236.409c-1.514,1.8-3.1,3.874-5.528,4.4-1.754.383-3.877,0-4.62-1.8-.2-.491.436-.828.822-.632,1.7.867,3.106,1.376,4.972.49A11.54,11.54,0,0,0,365.3,235.7c.421-.5,1.13.22.715.713Z" transform="translate(-355.824 -235.529)" fill="#0c112c"/>
          </g>
          <g id="Group_1426" data-name="Group 1426" transform="translate(31.501 47.69)">
            <path id="Path_1284" data-name="Path 1284" d="M347.721,222.407a1.028,1.028,0,0,1,0-2.054,1.028,1.028,0,0,1,0,2.054Z" transform="translate(-346.729 -220.353)" fill="#0c112c"/>
          </g>
          <g id="Group_1427" data-name="Group 1427" transform="translate(57.698 47.769)">
            <path id="Path_1285" data-name="Path 1285" d="M363.882,222.457a1.028,1.028,0,0,1,0-2.055,1.028,1.028,0,0,1,0,2.055Z" transform="translate(-362.89 -220.402)" fill="#0c112c"/>
          </g>
          <g id="Group_1428" data-name="Group 1428" transform="translate(56.035 56.386)" opacity="0.22">
            <path id="Path_1286" data-name="Path 1286" d="M361.88,230.39c-.266,2.744,2.958,5.3,7.212,5.34s7.525-2.448,7.314-5.2-3.436-4.771-7.218-4.813S362.142,227.631,361.88,230.39Z" transform="translate(-361.865 -225.718)" fill="#d88773"/>
          </g>
          <g id="Group_1429" data-name="Group 1429" transform="translate(25.267 56.217)" opacity="0.22">
            <path id="Path_1287" data-name="Path 1287" d="M342.914,230.284a4.523,4.523,0,0,0,1.251,3.68,5.767,5.767,0,0,0,7.99.107,4.521,4.521,0,0,0,1.349-3.644,5.332,5.332,0,0,0-10.59-.143Z" transform="translate(-342.883 -225.614)" fill="#d88773"/>
          </g>
          <g id="Group_1430" data-name="Group 1430" transform="translate(64.42 20.786)">
            <path id="Path_1288" data-name="Path 1288" d="M368.724,203.756a6.115,6.115,0,0,0-.551,1.256,19.59,19.59,0,0,0-.9,3.631A21.455,21.455,0,0,0,369,220.759a16.939,16.939,0,0,0,3.975,5.534,10.623,10.623,0,0,0,4.942,2.553,8.359,8.359,0,0,0,3.751-.049,5.746,5.746,0,0,0,.966-.331c.212-.1.319-.159.313-.175-.018-.042-.469.151-1.321.316a8.84,8.84,0,0,1-3.634-.107,10.562,10.562,0,0,1-4.711-2.551,17.007,17.007,0,0,1-3.827-5.4,22.062,22.062,0,0,1-1.829-11.856A35.659,35.659,0,0,1,368.724,203.756Z" transform="translate(-367.037 -203.756)" fill="#1f2f6e"/>
          </g>
          <g id="Group_1431" data-name="Group 1431" transform="translate(4.703)">
            <path id="Path_1289" data-name="Path 1289" d="M330.334,257.42a1.343,1.343,0,0,0,.274-.123c.175-.094.446-.219.778-.418a13.055,13.055,0,0,0,2.636-2.148,14.065,14.065,0,0,0,2.858-4.553,13.332,13.332,0,0,0,.747-7.061,26.91,26.91,0,0,0-3.3-7.975,43.733,43.733,0,0,1-2.111-4.278,21.208,21.208,0,0,1-.188-15.461,14.944,14.944,0,0,1,2.924-4.829,9.641,9.641,0,0,1,4.915-2.916c3.85-.9,7.9-.01,11.645-1.172a14.394,14.394,0,0,0,4.884-2.811,46.329,46.329,0,0,0,3.84-3.753,47.806,47.806,0,0,1,3.61-3.545,20.462,20.462,0,0,1,3.921-2.657,21.51,21.51,0,0,1,8.137-2.373,20.873,20.873,0,0,1,6.99.6,21.8,21.8,0,0,1,4.952,1.944,22.388,22.388,0,0,1,2.837,1.827c.315.227.535.422.7.54a1.617,1.617,0,0,0,.245.175,1.2,1.2,0,0,0-.212-.214c-.149-.13-.36-.34-.666-.58a19.865,19.865,0,0,0-2.8-1.918,21.42,21.42,0,0,0-4.977-2.044,20.958,20.958,0,0,0-7.09-.684,21.74,21.74,0,0,0-8.3,2.359,20.811,20.811,0,0,0-4.015,2.689,48.049,48.049,0,0,0-3.659,3.563,46.674,46.674,0,0,1-3.814,3.7,13.936,13.936,0,0,1-4.722,2.709c-3.582,1.122-7.6.23-11.619,1.154a10.133,10.133,0,0,0-5.158,3.062,15.39,15.39,0,0,0-3.02,4.994,21.721,21.721,0,0,0-1.131,10.862,21.4,21.4,0,0,0,1.371,4.941,43.2,43.2,0,0,0,2.153,4.309,26.787,26.787,0,0,1,3.313,7.841,13.107,13.107,0,0,1-.661,6.9,14.057,14.057,0,0,1-2.739,4.519A15,15,0,0,1,330.334,257.42Z" transform="translate(-330.198 -190.933)" fill="#1f2f6e"/>
          </g>
          <g id="Group_1432" data-name="Group 1432" transform="translate(0 59.997)">
            <path id="Path_1290" data-name="Path 1290" d="M332.123,227.947a2.168,2.168,0,0,0-.475.274,7.068,7.068,0,0,0-1.195,1.021,8.842,8.842,0,0,0-2.308,5.239,8.23,8.23,0,0,0,.595,3.973,36.437,36.437,0,0,0,2.324,3.933,5.672,5.672,0,0,1,.89,4.6,17.264,17.264,0,0,1-2.681,4.562,10.624,10.624,0,0,0-1.927,5.1,12.4,12.4,0,0,0,.6,5.054,14.05,14.05,0,0,0,5.077,6.818,19.12,19.12,0,0,0,5.1,2.678c.642.225,1.151.368,1.5.452a2.158,2.158,0,0,0,.537.1c.011-.042-.712-.243-1.968-.739a20.437,20.437,0,0,1-4.952-2.775,13.891,13.891,0,0,1-4.853-6.682,12.1,12.1,0,0,1-.548-4.861,10.213,10.213,0,0,1,1.856-4.873,17.386,17.386,0,0,0,2.738-4.709,5.118,5.118,0,0,0,.045-2.657,8.467,8.467,0,0,0-1.01-2.31,37.8,37.8,0,0,1-2.342-3.864,7.942,7.942,0,0,1-.621-3.777,8.866,8.866,0,0,1,2.1-5.137A16.387,16.387,0,0,1,332.123,227.947Z" transform="translate(-327.296 -227.945)" fill="#1f2f6e"/>
          </g>
          <path id="Path_1291" data-name="Path 1291" d="M385.946,230.07a6.041,6.041,0,0,1-5.4,1.533,10.94,10.94,0,0,1-5.111-2.7c-6.34-5.541-8.178-14.672-8.079-23.091a8.4,8.4,0,0,1,.955-4.493,6.336,6.336,0,0,1,4.976-2.527,12.819,12.819,0,0,1,10.665,5.223,21.125,21.125,0,0,1,3.949,11.53,62.843,62.843,0,0,1-.775,12.323" transform="translate(-302.423 -186.069)" fill="#1f2f6e"/>
        </g>
        <g id="Group_1434" data-name="Group 1434" transform="translate(122.971 188.432)">
          <path id="Path_1292" data-name="Path 1292" d="M360.116,368.535c-.457.01-1.146-14.057-1.537-31.418s-.339-31.446.118-31.456,1.146,14.054,1.537,31.42S360.573,368.523,360.116,368.535Z" transform="translate(-358.317 -305.661)" fill="#4b5bad"/>
        </g>
        <g id="Group_1439" data-name="Group 1439" transform="translate(95.279 122.104)">
          <path id="Path_1293" data-name="Path 1293" d="M404.331,264.743s10.929,2.151,14.206,20.256a53.492,53.492,0,0,1,.337,15.962L415.167,331.6,378.2,310.259S378.012,266.323,404.331,264.743Z" transform="translate(-318.277 -264.743)" fill="#5665c7"/>
          <g id="Group_1436" data-name="Group 1436" transform="translate(0 5.58)">
            <g id="Group_1435" data-name="Group 1435" transform="translate(0 69.799)">
              <path id="Path_1294" data-name="Path 1294" d="M374.419,323.8s-9.956-3.66-10.77-4.014-2.093-9.726-3.4-8.418-1.13,6.792-1.13,6.792-12.133-5.725-12.276-3.568,6.641,4.668,6.641,4.668-10.943-3.712-10.825-1.8,9.2,4.292,9.2,4.292-8.329-1.824-9.839-.545,8.526,3.9,8.526,3.9-8.612-.859-9.3.115S370.19,338,370.19,338Z" transform="translate(-341.234 -311.245)" fill="#e5bb91"/>
            </g>
            <path id="Path_1295" data-name="Path 1295" d="M360.535,348.658s33.761,8.752,34.1,7.132c.319-1.54,1.775-13.876,3.367-32.365l.6-14.954s-6.67-53.989,29.121-36.967c0,0,6.08,15.68,2.4,47.769h0c-.937,15.409-4.445,52.791-13.487,61.509,0,0-2.513,3.163-9.309,2.255-6.479-.864-51.956-20.734-51.956-20.734Z" transform="translate(-332.456 -268.185)" fill="#5665c7"/>
          </g>
          <g id="Group_1437" data-name="Group 1437" transform="translate(28.079 0.449)">
            <path id="Path_1296" data-name="Path 1296" d="M358.556,350.624a10.828,10.828,0,0,1,2.5.3c1.614.266,3.973.691,6.97,1.255,5.994,1.127,14.54,2.809,24.775,4.879l-.864.679c.138-5,.287-10.434.444-16.192.086-2.879.175-5.839.266-8.862q.066-2.281.131-4.605c.068-1.558.172-3.12.292-4.691.757-9.549,1.8-18.59,2.738-26.818.509-4.1.825-8.029,1.579-11.7a34.271,34.271,0,0,1,3.435-9.805,20.677,20.677,0,0,1,5.56-6.555,17.094,17.094,0,0,1,5.768-2.966,12.828,12.828,0,0,1,4.057-.5,3.846,3.846,0,0,1,1.405.216,22.5,22.5,0,0,0-5.271.9,17.235,17.235,0,0,0-5.38,3.073,20.191,20.191,0,0,0-5.108,6.388,33.8,33.8,0,0,0-3.117,9.514c-.673,3.556-.942,7.484-1.41,11.6-.856,8.228-1.85,17.277-2.6,26.774-.122,1.559-.222,3.107-.292,4.634q-.071,2.305-.143,4.565c-.105,3.026-.209,5.99-.308,8.872-.217,5.763-.421,11.2-.608,16.2l-.032.861-.833-.18C382.3,356.252,373.8,354.368,367.854,353c-2.973-.684-5.306-1.242-6.889-1.645A10.72,10.72,0,0,1,358.556,350.624Z" transform="translate(-358.556 -265.02)" fill="#4b5bad"/>
          </g>
          <g id="Group_1438" data-name="Group 1438" transform="translate(23.28 99.554)">
            <path id="Path_1297" data-name="Path 1297" d="M415.951,342.444c.076.037-.253.976-1.5,2.211a12.02,12.02,0,0,1-6.638,3.035c-3.122.462-6.852-.151-10.7-1.26-3.856-1.081-8.045-2.446-12.354-4.124a130.963,130.963,0,0,1-21.19-10.46c-5.16-3.164-8.087-5.51-7.974-5.672.144-.216,3.294,1.778,8.562,4.66a175.492,175.492,0,0,0,21.2,9.927c4.258,1.658,8.389,3.054,12.179,4.2a26.98,26.98,0,0,0,10.134,1.563,12.382,12.382,0,0,0,6.354-2.358C415.321,343.164,415.835,342.365,415.951,342.444Z" transform="translate(-355.595 -326.158)" fill="#4b5bad"/>
          </g>
        </g>
        <path id="Path_1298" data-name="Path 1298" d="M359,334.819s27.129-23.145,26.228-25.4a15.283,15.283,0,0,0-3.38-4.5s4.918,1.577,5.951-2.028,14.79-43.331,14.79-43.331S380.084,282.271,359,334.819Z" transform="translate(-234.919 -145.859)" fill="#4b5bad"/>
        <path id="Path_1299" data-name="Path 1299" d="M361.648,256.08S343.7,285.525,348.3,293.113l4.007,3.153s-5.534,2.331-4.764,3.083,12.843,30.279,17.888,37.1C365.433,336.451,354.9,280.534,361.648,256.08Z" transform="translate(-242.081 -148.019)" fill="#4b5bad"/>
        <path id="Path_1300" data-name="Path 1300" d="M357.787,263.413v-9.556l32.764-1.094,1.376,10.65s-3.861,8.2-11.55,9.39S357.787,263.413,357.787,263.413Z" transform="translate(-235.675 -150.079)" fill="#fffffd"/>
        <g id="Group_1440" data-name="Group 1440" transform="translate(121.63 102.827)">
          <path id="Path_1301" data-name="Path 1301" d="M391.274,260.038c.081.031-.066.8-.864,1.947a9.253,9.253,0,0,1-4.761,3.375,9.723,9.723,0,0,1-4.129.389,8.757,8.757,0,0,1-4.4-1.942,10.185,10.185,0,0,1-3.054-4.33,9.5,9.5,0,0,1-.337-5.709c.024-.1.049-.2.07-.287a.826.826,0,0,1,1.619.318l-.006.049a14.019,14.019,0,0,1-5.067,9.219,8.994,8.994,0,0,1-8.471,1.472,7.067,7.067,0,0,1-4.095-4.106c-.452-1.333-.25-2.117-.167-2.109.139-.011.173.739.755,1.856a6.825,6.825,0,0,0,3.9,3.263,7.943,7.943,0,0,0,7.158-1.589,12.906,12.906,0,0,0,4.351-8.264l1.611.365-.055.235a8.665,8.665,0,0,0,2.773,8.45,7.543,7.543,0,0,0,3.626,1.751,8.923,8.923,0,0,0,3.6-.157,9.572,9.572,0,0,0,4.588-2.658C390.8,260.638,391.147,259.977,391.274,260.038Z" transform="translate(-357.49 -252.851)" fill="#edede6"/>
        </g>
        <g id="Group_1441" data-name="Group 1441" transform="translate(123.518 109.973)">
          <path id="Path_1302" data-name="Path 1302" d="M371.9,257.26c.235.063-.744,4.433-2.256,11.5s-3.5,16.85-5.319,27.721-3.1,20.772-3.96,27.949-1.354,11.627-1.6,11.61a11.7,11.7,0,0,1-.076-3.158c.055-2.028.224-4.955.507-8.569.563-7.225,1.678-17.188,3.493-28.1s4-20.7,5.811-27.716c.9-3.509,1.694-6.333,2.3-8.267A11.538,11.538,0,0,1,371.9,257.26Z" transform="translate(-358.655 -257.26)" fill="#edede6"/>
        </g>
        <path id="Path_1303" data-name="Path 1303" d="M399.58,230.7c0,7.961-5.79,14.416-12.934,14.416s-12.934-6.455-12.934-14.416,5.792-14.417,12.934-14.417S399.58,222.733,399.58,230.7Z" transform="translate(-225.786 -172.736)" fill="#5665c7"/>
        <path id="Path_1304" data-name="Path 1304" d="M378.871,216.851" transform="translate(-222.582 -172.38)" fill="#5665c7"/>
        <path id="Path_1305" data-name="Path 1305" d="M393.567,230.84s3.952-43.561-26.529-36.746c0,0,19.452,2.451,18.194,43.354s-.183.77-.183.77Z" transform="translate(-229.93 -186.962)" fill="#5665c7"/>
        <g id="Group_1442" data-name="Group 1442" transform="translate(131.864 58.312)">
          <path id="Path_1306" data-name="Path 1306" d="M364.411,246.966c11.816-2.475,23.341-10.785,30.451-20.387.53-.713-.653-1.627-1.232-.952-8.4,9.8-17.6,15.586-29.483,20.381a.5.5,0,0,0,.264.958Z" transform="translate(-363.803 -225.39)" fill="#5665c7"/>
        </g>
        <g id="Group_1443" data-name="Group 1443" transform="translate(160.342 12.974)">
          <path id="Path_1307" data-name="Path 1307" d="M402.535,269.9a.7.7,0,0,1-.225-.036c-.146-.037-.37-.076-.652-.17a7.144,7.144,0,0,1-2.239-1.29,8.374,8.374,0,0,1-2.357-3.338,7.536,7.536,0,0,1-.1-5.387c1.426-3.963,6.534-6.189,7.8-11.412a12.342,12.342,0,0,0-.384-7.946,12.58,12.58,0,0,0-5.662-6.364c-1.316-.7-2.746-1.178-4.117-1.775a9.234,9.234,0,0,1-3.685-2.521,6.881,6.881,0,0,1-1.383-4.088c-.078-1.409.06-2.762.089-4.07a55.5,55.5,0,0,0-1.339-13.853,23.094,23.094,0,0,0-1.769-5.027,12.694,12.694,0,0,0-2.316-3.266,10.708,10.708,0,0,0-2.824-1.931c0-.01.076.013.217.065s.355.13.626.248a8.974,8.974,0,0,1,2.13,1.462,12.535,12.535,0,0,1,2.441,3.279,22.957,22.957,0,0,1,1.875,5.077,54.475,54.475,0,0,1,1.467,13.96c-.024,1.326-.152,2.673-.071,4.025a6.348,6.348,0,0,0,1.277,3.779,8.72,8.72,0,0,0,3.482,2.357c1.345.584,2.783,1.06,4.16,1.793a13.1,13.1,0,0,1,5.905,6.649,13.013,13.013,0,0,1-1.264,11.841,19.619,19.619,0,0,1-2.375,2.8,16.444,16.444,0,0,0-3.921,5.056,7.237,7.237,0,0,0,.031,5.135,7.909,7.909,0,0,0,5.182,4.942Z" transform="translate(-381.371 -197.421)" fill="#1f2f6e"/>
        </g>
        <g id="Group_1444" data-name="Group 1444">
          <path id="Path_1308" data-name="Path 1308" d="M308.543,243.186A26.088,26.088,0,1,1,334.631,217.1a25.852,25.852,0,0,1-4.693,14.884l5.458,10.412L322.7,239.006A25.96,25.96,0,0,1,308.543,243.186Zm0-50.554a24.467,24.467,0,1,0,13.581,44.814l5.685-3.8-3.738,4.049,8.175,2.183-3.959-7.556.5-.259-.55-.483a24.433,24.433,0,0,0-19.69-38.946Z" transform="translate(-282.456 -188.427)" fill="#1f2f6e"/>
          <text id="_" data-name="?" transform="translate(17.286 39)" fill="#1f2f6e" font-size="36" font-family="SegoeUI, Segoe UI"><tspan x="0" y="0">?</tspan></text>
        </g>
      </g>
      <path id="Path_1309" data-name="Path 1309" d="M176.475,342.182H571.536s-14.844,38.032-190.217,38.857C204.875,381.871,176.475,342.182,176.475,342.182Z" transform="translate(-176.475 -94.549)" fill="#edf1f7"/>
      <g id="Group_1446" data-name="Group 1446" transform="translate(60.99 139.555)">
        <path id="Path_1310" data-name="Path 1310" d="M291.431,345.031v-2.849h66.423v3.674Z" transform="translate(-166.077 -234.105)" fill="#8e8585"/>
        <path id="Path_1311" data-name="Path 1311" d="M214.1,275.509l16.006,91.273H362.279l-14.635-91.273Z" transform="translate(-214.1 -275.509)" fill="#b6aead"/>
        <path id="Path_1312" data-name="Path 1312" d="M248.462,311.245l5.561,51.82H284.15l-10.2-51.82H251.242" transform="translate(-192.761 -253.316)" fill="#8e8585"/>
        <rect id="Rectangle_373" data-name="Rectangle 373" width="65.06" height="2.849" transform="translate(43.781 108.077)" fill="#8e8585"/>
        <rect id="Rectangle_374" data-name="Rectangle 374" width="47.524" height="1.82" transform="translate(40.148 6.872)" fill="#8e8585"/>
      </g>
    </g>
    <path id="Path_1313" data-name="Path 1313" d="M127.428,207.416a6.551,6.551,0,1,0-.772,13,6.471,6.471,0,1,0-2.281-12.629" transform="translate(86.519 22.275)" fill="#00b22d"/>
  </g>
</svg>
