<svg xmlns="http://www.w3.org/2000/svg" width="563.435" height="553" viewBox="0 0 563.435 553">
  <g id="Group_886" data-name="Group 886" transform="translate(-0.109 0.24)">
    <ellipse id="Ellipse_20" data-name="Ellipse 20" cx="276" cy="276.5" rx="276" ry="276.5" transform="translate(0.109 -0.24)" fill="#00b22d"/>
    <g id="Group_884" data-name="Group 884" transform="translate(23.715 15.81)" opacity="0.75">
      <path id="Path_567" data-name="Path 567" d="M0,305.948Z" transform="translate(0 -56.159)" fill="#00b22d"/>
      <g id="Group_883" data-name="Group 883" transform="translate(8.041)">
        <g id="Group_869" data-name="Group 869" transform="translate(26.037 32.663)">
          <path id="Path_416" data-name="Path 416" d="M-704.343,131.011a7.9,7.9,0,0,0,7.886,7.886,7.9,7.9,0,0,0,7.888-7.886,7.9,7.9,0,0,0-7.888-7.888A7.9,7.9,0,0,0-704.343,131.011Z" transform="translate(721.507 -86.012)" fill="#fbb040"/>
          <path id="Path_417" data-name="Path 417" d="M-698.253,138.214a7.9,7.9,0,0,0,7.888-7.886,7.852,7.852,0,0,0-2.21-5.463l-7.184,13.2A7.9,7.9,0,0,0-698.253,138.214Z" transform="translate(723.303 -85.329)" fill="#fb5429" opacity="0.5" style="mix-blend-mode: multiply;isolation: isolate"/>
          <path id="Path_418" data-name="Path 418" d="M-678.623,98.458a7.9,7.9,0,0,0-7.886,7.888,7.9,7.9,0,0,0,7.886,7.886,7.9,7.9,0,0,0,7.888-7.886A7.9,7.9,0,0,0-678.623,98.458Z" transform="translate(728.494 -95.675)" fill="#f14529"/>
          <path id="Path_419" data-name="Path 419" d="M-680.429,113.541a7.9,7.9,0,0,0,7.888-7.886,7.846,7.846,0,0,0-2.185-5.435L-681.9,113.4A7.752,7.752,0,0,0-680.429,113.541Z" transform="translate(730.3 -94.984)" fill="#d13629"/>
          <path id="Path_420" data-name="Path 420" d="M-706.79,98.458a7.9,7.9,0,0,0-7.886,7.888,7.9,7.9,0,0,0,7.886,7.886,7.9,7.9,0,0,0,7.888-7.886A7.9,7.9,0,0,0-706.79,98.458Z" transform="translate(717.46 -95.675)" fill="#00a79d"/>
          <path id="Path_421" data-name="Path 421" d="M-708.047,113.9a7.9,7.9,0,0,0,7.888-7.886,7.885,7.885,0,0,0-3.788-6.726l-7.521,13.82A7.821,7.821,0,0,0-708.047,113.9Z" transform="translate(718.716 -95.347)" fill="#007279"/>
          <path id="Path_422" data-name="Path 422" d="M-666.806,96.458a10.678,10.678,0,0,0-10.568,9.28h-18.062a10.681,10.681,0,0,0-10.572-9.28,10.683,10.683,0,0,0-10.669,10.672A10.682,10.682,0,0,0-706.007,117.8a10.668,10.668,0,0,0,1.886-.177l6.886,14.773a10.666,10.666,0,0,0-5.06,9.062,10.682,10.682,0,0,0,10.669,10.669,10.682,10.682,0,0,0,10.672-10.669,10.682,10.682,0,0,0-10.672-10.672,10.6,10.6,0,0,0-3.076.456l-6.749-14.478a10.687,10.687,0,0,0,6.015-8.242h18.062a10.677,10.677,0,0,0,10.568,9.277,10.682,10.682,0,0,0,10.672-10.669A10.683,10.683,0,0,0-666.806,96.458Zm-24.82,37.111a7.9,7.9,0,0,1,7.888,7.888,7.9,7.9,0,0,1-7.888,7.886,7.9,7.9,0,0,1-7.886-7.886A7.9,7.9,0,0,1-691.626,133.569Zm-14.381-18.553a7.9,7.9,0,0,1-7.886-7.886,7.9,7.9,0,0,1,7.886-7.888,7.9,7.9,0,0,1,7.888,7.888A7.9,7.9,0,0,1-706.007,115.015Zm39.2,0a7.9,7.9,0,0,1-7.886-7.886,7.9,7.9,0,0,1,7.886-7.888,7.9,7.9,0,0,1,7.888,7.888A7.9,7.9,0,0,1-666.806,115.015Z" transform="translate(716.676 -96.458)" fill="#262245"/>
        </g>
        <g id="Group_870" data-name="Group 870" transform="translate(409.315 291.328)">
          <path id="Path_423" data-name="Path 423" d="M-385.4,339.985l-.509-8.847H-397.4a1.389,1.389,0,0,1-1.247-.778,1.391,1.391,0,0,1,.143-1.461l18.825-24.552a1.39,1.39,0,0,1,1.088-.547,1.5,1.5,0,0,1,1.1.522l19.714,24.552a1.4,1.4,0,0,1,.168,1.474,1.391,1.391,0,0,1-1.254.79h-11.571l-.242,8.847h46.945a18.581,18.581,0,0,0,1.35-6.959,18.854,18.854,0,0,0-18.546-18.775,1.39,1.39,0,0,1-1.357-1.175,33.911,33.911,0,0,0-33.679-28.762A34.126,34.126,0,0,0-408.9,309.6a1.405,1.405,0,0,1-.69.87,1.39,1.39,0,0,1-1.106.088,21.56,21.56,0,0,0-7.014-1.191,21.6,21.6,0,0,0-21.572,21.572,21.252,21.252,0,0,0,2,9.046Z" transform="translate(442.064 -281.532)" fill="#b8dde9"/>
          <path id="Path_424" data-name="Path 424" d="M-360.234,312.312a1.39,1.39,0,0,1-1.357-1.175,33.882,33.882,0,0,0-13.077-21.87l-13.194,24.243,10.778,13.423a1.4,1.4,0,0,1,.168,1.474,1.391,1.391,0,0,1-1.254.79H-389.74l-.242,8.847h46.945a18.58,18.58,0,0,0,1.35-6.959A18.854,18.854,0,0,0-360.234,312.312Z" transform="translate(461.377 -279.592)" fill="#aecff4" opacity="0.4" style="mix-blend-mode: multiply;isolation: isolate"/>
          <path id="Path_425" data-name="Path 425" d="M-417.709,302.315a21.6,21.6,0,0,0-21.572,21.572,21.252,21.252,0,0,0,2,9.046h6.822l18.615-29.769A21.329,21.329,0,0,0-417.709,302.315Z" transform="translate(442.064 -274.48)" fill="#ddf4e9"/>
          <path id="Path_426" data-name="Path 426" d="M-437.363,343.552h54.239a1.346,1.346,0,0,0,1.406-1.392,1.363,1.363,0,0,0-.046-.355l-.654-11.358a1.394,1.394,0,0,0-1.389-1.31h-9.982l16.027-20.907,16.787,20.907H-371a1.39,1.39,0,0,0-1.39,1.354l-.319,11.631a1.386,1.386,0,0,0,.392,1.009,1.4,1.4,0,0,0,1,.42h15.05a.728.728,0,0,0,.43.161h7.252c.544,0,.984-.642.984-1.436s-.44-1.435-.984-1.435h-3c0-.024.006-.049.011-.074h-18.311l.242-8.847h11.571a1.391,1.391,0,0,0,1.254-.791,1.4,1.4,0,0,0-.168-1.474L-376.7,305.1a1.5,1.5,0,0,0-1.1-.522,1.39,1.39,0,0,0-1.088.547l-18.825,24.552a1.39,1.39,0,0,0-.143,1.461,1.389,1.389,0,0,0,1.247.778h11.489l.509,8.847h-51.88a21.252,21.252,0,0,1-2-9.046,21.6,21.6,0,0,1,21.572-21.572,21.561,21.561,0,0,1,7.014,1.191,1.39,1.39,0,0,0,1.106-.088,1.405,1.405,0,0,0,.69-.87A34.126,34.126,0,0,1-375.173,285.1a33.911,33.911,0,0,1,33.679,28.762,1.39,1.39,0,0,0,1.357,1.175,18.854,18.854,0,0,1,18.546,18.775,18.58,18.58,0,0,1-1.35,6.959h-13.55c0,.025.006.05.01.074h-3.35c-.543,0-.984.642-.984,1.435s.441,1.436.984,1.436h7.252a.735.735,0,0,0,.431-.161h10.122a1.389,1.389,0,0,0,1.266-.813,21.375,21.375,0,0,0,1.951-8.929A21.656,21.656,0,0,0-338.941,312.3a36.674,36.674,0,0,0-36.233-29.982A36.925,36.925,0,0,0-410.4,308.272a24.129,24.129,0,0,0-6.522-.906,24.384,24.384,0,0,0-24.355,24.355A24.1,24.1,0,0,0-438.6,342.8,1.394,1.394,0,0,0-437.363,343.552Z" transform="translate(441.281 -282.315)" fill="#262245"/>
        </g>
        <g id="Group_871" data-name="Group 871" transform="translate(305.614 250.896)">
          <path id="Path_427" data-name="Path 427" d="M-465.426,279.59a4.5,4.5,0,0,0-3.834,1.069L-488.2,298.871l1.922,2,1.816,1.889,12.829-12.338a6.025,6.025,0,0,1,8.492.394l3.933,4.09,2.486,2.583v.006l3.187,3.312a6.367,6.367,0,0,1,1.788,4.536,5.665,5.665,0,0,1-1.728,3.966l-31.055,30.6a5.66,5.66,0,0,1-4.291,1.574,6.327,6.327,0,0,1-4.211-1.955l-9.6-9.99A6.352,6.352,0,0,1-504.426,325a5.67,5.67,0,0,1,1.73-3.967l8.678-9.013-.207-.214-3.542-3.687L-512.525,323a4.326,4.326,0,0,0-1.266,3.066,7.875,7.875,0,0,0,2.32,5.447l16.592,17.258c2.625,2.728,6.41,3.358,8.441,1.407l43.279-42.358a4.3,4.3,0,0,0,1.255-3.049,7.869,7.869,0,0,0-2.32-5.444l-16.6-17.26A8.044,8.044,0,0,0-465.426,279.59Z" transform="translate(516.577 -242.974)" fill="#924f8f"/>
          <path id="Path_428" data-name="Path 428" d="M-484.53,329.624a5.66,5.66,0,0,1-4.291,1.574,6.327,6.327,0,0,1-4.211-1.955l-9.6-9.99a6.352,6.352,0,0,1-1.791-4.536,5.67,5.67,0,0,1,1.73-3.966l2.015-2.092-4.966-2.878-6.878,6.936a4.326,4.326,0,0,0-1.266,3.066,7.875,7.875,0,0,0,2.32,5.447l16.592,17.258c2.625,2.728,6.41,3.358,8.441,1.407l14.759-14.443-5.426-3.141Z" transform="translate(516.577 -232.691)" fill="#ae6fae" opacity="0.5" style="mix-blend-mode: multiply;isolation: isolate"/>
          <path id="Path_429" data-name="Path 429" d="M-506.935,298.975a4.317,4.317,0,0,0-1.254,3.052h0a7.875,7.875,0,0,0,2.32,5.443l6.91,7.186.014.011,4.75,4.945,4.923,5.117c2.622,2.728,6.408,3.358,8.44,1.407l18.944-18.215-1.581-1.641-2.635-2.742-12.829,12.335a6.027,6.027,0,0,1-8.494-.39l-.274-.287h0l-.605-.629-8.726-9.077a6.353,6.353,0,0,1-1.786-4.534,5.671,5.671,0,0,1,1.724-3.966l31.339-30.827a6.025,6.025,0,0,1,8.5.384l9.6,9.99a6.371,6.371,0,0,1,1.79,4.536,5.661,5.661,0,0,1-1.73,3.965l-8.959,9.244,4.227,4.394,15.041-15.109a4.347,4.347,0,0,0,1.266-3.066,7.872,7.872,0,0,0-2.32-5.446l-16.6-17.259a8.023,8.023,0,0,0-4.607-2.473,4.5,4.5,0,0,0-3.834,1.066Z" transform="translate(518.772 -252.48)" fill="#fbb040"/>
          <path id="Path_430" data-name="Path 430" d="M-475.612,266.165a6.025,6.025,0,0,1,8.5.384l9.6,9.99a6.37,6.37,0,0,1,1.79,4.536,5.661,5.661,0,0,1-1.73,3.965l-.913.942,4.879,3.958,6.342-6.371a4.347,4.347,0,0,0,1.267-3.066,7.872,7.872,0,0,0-2.32-5.446l-16.6-17.259a8.023,8.023,0,0,0-4.607-2.473,4.5,4.5,0,0,0-3.834,1.066l-9.8,9.579,4.172,3.385Z" transform="translate(528.63 -252.48)" fill="#ffffb1"/>
          <path id="Path_431" data-name="Path 431" d="M-477.074,289.014l6.108,5.961-5.2,3.576-4.709-6.157Z" transform="translate(529.471 -239.26)" fill="#fb5429" opacity="0.5" style="mix-blend-mode: multiply;isolation: isolate"/>
          <path id="Path_432" data-name="Path 432" d="M-487.158,296.059l-5.171-6.286-4.174,4.3,4.224,7.608Z" transform="translate(523.35 -238.962)" fill="#ae6fae" opacity="0.5" style="mix-blend-mode: multiply;isolation: isolate"/>
          <path id="Path_433" data-name="Path 433" d="M-505.893,297.761a7.087,7.087,0,0,0-2.1,4.975h0a10.544,10.544,0,0,0,3.1,7.449l5.979,6.217-14.776,14.9a7.08,7.08,0,0,0-2.1,4.975,10.54,10.54,0,0,0,3.1,7.45l16.592,17.259c3.688,3.833,9.241,4.5,12.387,1.474l19.063-18.655c-.011-.011-.022-.025-.032-.036l2.942-2.877c.391-.381.255-1.148-.3-1.715s-1.318-.718-1.71-.338l-5.184,5.066a.771.771,0,0,0-.2.388l-16.523,16.169c-2.031,1.951-5.816,1.321-8.441-1.407L-510.688,341.8a7.875,7.875,0,0,1-2.32-5.447,4.325,4.325,0,0,1,1.266-3.066l14.757-14.881,3.542,3.687.207.214-8.678,9.013a5.67,5.67,0,0,0-1.73,3.966,6.352,6.352,0,0,0,1.791,4.536l9.6,9.99a6.327,6.327,0,0,0,4.211,1.955,5.66,5.66,0,0,0,4.291-1.574l31.055-30.6a5.665,5.665,0,0,0,1.728-3.966,6.368,6.368,0,0,0-1.788-4.536l-3.187-3.312v-.006l-2.486-2.583-3.933-4.09a6.025,6.025,0,0,0-8.492-.394L-483.68,313.05l-1.816-1.889-1.922-2,18.942-18.212a4.5,4.5,0,0,1,3.834-1.069,8.045,8.045,0,0,1,4.605,2.476l16.6,17.26a7.869,7.869,0,0,1,2.32,5.444,4.3,4.3,0,0,1-1.255,3.049l-11.13,10.895a.735.735,0,0,0-.4.187l-5.19,5.07c-.385.38-.253,1.148.3,1.713s1.317.718,1.708.338l3.12-3.052c.015.015.035.026.051.04l13.479-13.191a7.084,7.084,0,0,0,2.1-4.975,10.543,10.543,0,0,0-3.1-7.447l-5.979-6.218,15.063-15.132a7.09,7.09,0,0,0,2.1-4.977,10.547,10.547,0,0,0-3.1-7.447l-16.6-17.262a10.842,10.842,0,0,0-6.228-3.3,7.23,7.23,0,0,0-6.156,1.829Zm51.135,15.266a3.322,3.322,0,0,1,.124,4.577l-31.051,30.6a2.907,2.907,0,0,1-2.2.789,3.534,3.534,0,0,1-2.353-1.106l-9.606-9.989a3.293,3.293,0,0,1-.1-4.6l8.64-8.975,3.006,3.126c3.685,3.831,9.237,4.5,12.373,1.485l18.943-18.215Zm-14.162-10.306a3.111,3.111,0,0,1,3.756-.3l-12.72,12.232a3.116,3.116,0,0,1-3.758.3Zm12.363-46.612a8.024,8.024,0,0,1,4.607,2.473l16.6,17.259a7.872,7.872,0,0,1,2.32,5.446,4.347,4.347,0,0,1-1.266,3.066l-15.041,15.109-4.227-4.394,8.959-9.244a5.661,5.661,0,0,0,1.73-3.965,6.37,6.37,0,0,0-1.79-4.536l-9.6-9.99a6.025,6.025,0,0,0-8.5-.384l-1.358,1.335a.726.726,0,0,0-.341.181l-5.187,5.067c-.388.383-.252,1.148.3,1.716s1.315.72,1.708.338l2.263-2.214a.139.139,0,0,0,.024.025l4.527-4.452a3.243,3.243,0,0,1,4.558.317l9.6,9.99a3.3,3.3,0,0,1,.1,4.6l-8.928,9.209-2.53-2.632a10.82,10.82,0,0,0-6.229-3.3,7.218,7.218,0,0,0-6.147,1.818l-18.942,18.214-2.7-2.806a3.331,3.331,0,0,1-.125-4.579l15.109-14.862c-.014-.017-.024-.036-.036-.054l4.795-4.683c.388-.384.255-1.151-.3-1.717s-1.318-.72-1.7-.338l-5.187,5.07a.749.749,0,0,0-.2.409l-14.417,14.18a5.67,5.67,0,0,0-1.724,3.966,6.352,6.352,0,0,0,1.786,4.534l8.726,9.077.605.629h0l.274.287a6.027,6.027,0,0,0,8.494.39l12.829-12.335,2.635,2.742,1.581,1.641-18.944,18.215c-2.032,1.951-5.817,1.321-8.44-1.407l-4.923-5.117-4.75-4.945-.014-.011-6.91-7.186a7.874,7.874,0,0,1-2.32-5.443h0a4.317,4.317,0,0,1,1.254-3.052l43.564-42.584A4.5,4.5,0,0,1-456.558,256.109Z" transform="translate(515.793 -253.264)" fill="#262245"/>
        </g>
        <g id="Group_872" data-name="Group 872" transform="translate(97.898 15.572)">
          <path id="Path_434" data-name="Path 434" d="M-593.727,115.352a4.5,4.5,0,0,1-.724,3.914l-16.463,20.481-2.163-1.737-2.042-1.641,11.152-13.873a6.025,6.025,0,0,0-1.144-8.424l-4.423-3.555-2.793-2.248h-.006l-3.582-2.88a6.356,6.356,0,0,0-4.675-1.379,5.659,5.659,0,0,0-3.8,2.072l-27.726,33.641a5.666,5.666,0,0,0-1.187,4.416,6.316,6.316,0,0,0,2.321,4.021l10.8,8.682a6.351,6.351,0,0,0,4.676,1.379,5.673,5.673,0,0,0,3.8-2.072l8.207-9.442.232.187,3.985,3.2-13.514,16.016a4.329,4.329,0,0,1-2.942,1.534,7.868,7.868,0,0,1-5.631-1.829l-18.659-15c-2.951-2.373-3.914-6.087-2.149-8.284l38.355-46.863a4.311,4.311,0,0,1,2.927-1.518,7.854,7.854,0,0,1,5.628,1.829l18.662,15A8.058,8.058,0,0,1-593.727,115.352Z" transform="translate(665.819 -80.286)" fill="#00d3c2"/>
          <path id="Path_435" data-name="Path 435" d="M-652.113,130.592a5.666,5.666,0,0,0-1.187,4.416,6.316,6.316,0,0,0,2.321,4.021l10.8,8.682a6.35,6.35,0,0,0,4.676,1.379,5.673,5.673,0,0,0,3.8-2.072l1.905-2.192,3.3,4.69-6.3,7.465a4.329,4.329,0,0,1-2.942,1.534,7.868,7.868,0,0,1-5.631-1.829l-18.659-15c-2.951-2.373-3.914-6.087-2.149-8.284l13.078-15.98,3.61,5.126Z" transform="translate(665.819 -71.155)" fill="#00a79d"/>
          <path id="Path_436" data-name="Path 436" d="M-609.294,158.494a4.309,4.309,0,0,1-2.93,1.518h0a7.861,7.861,0,0,1-5.628-1.827l-7.769-6.245-.011-.014-5.347-4.294-5.534-4.448c-2.948-2.372-3.912-6.086-2.149-8.282l16.466-20.484,1.775,1.428,2.963,2.383L-628.609,132.1a6.026,6.026,0,0,0,1.141,8.426l.309.248h0l.681.546,9.813,7.888a6.368,6.368,0,0,0,4.676,1.378,5.674,5.674,0,0,0,3.8-2.071l27.93-33.945a6.032,6.032,0,0,0-1.136-8.438l-10.8-8.682a6.362,6.362,0,0,0-4.676-1.379,5.662,5.662,0,0,0-3.8,2.071l-8.413,9.746-4.751-3.82,13.716-16.321a4.332,4.332,0,0,1,2.942-1.532,7.863,7.863,0,0,1,5.63,1.829l18.662,15a8.042,8.042,0,0,1,2.872,4.37,4.5,4.5,0,0,1-.724,3.912Z" transform="translate(675.03 -83.395)" fill="#f14529"/>
          <path id="Path_437" data-name="Path 437" d="M-589.73,114.572a6.032,6.032,0,0,0-1.136-8.438l-10.8-8.682a6.362,6.362,0,0,0-4.676-1.379,5.662,5.662,0,0,0-3.8,2.071l-.859.994-4.374-4.506,5.784-6.882a4.332,4.332,0,0,1,2.942-1.532,7.864,7.864,0,0,1,5.63,1.829l18.662,15a8.043,8.043,0,0,1,2.873,4.37,4.5,4.5,0,0,1-.724,3.912l-8.673,10.611-3.741-3.857Z" transform="translate(684.499 -83.395)" fill="#f15e57"/>
          <path id="Path_438" data-name="Path 438" d="M-620.027,110.882l-6.479-5.555-3.1,5.5,6.55,4.146Z" transform="translate(678.923 -75.893)" fill="#d13629"/>
          <path id="Path_439" data-name="Path 439" d="M-625.5,121.384l6.719,4.593-3.912,4.539-7.953-3.534Z" transform="translate(678.517 -69.603)" fill="#00a79d"/>
          <path id="Path_440" data-name="Path 440" d="M-558.588,113.865a7.223,7.223,0,0,0,1.276-6.292,10.842,10.842,0,0,0-3.843-5.914l-18.662-15a10.537,10.537,0,0,0-7.694-2.423,7.083,7.083,0,0,0-4.772,2.529L-606.02,103.11l-6.723-5.406a10.538,10.538,0,0,0-7.691-2.424,7.083,7.083,0,0,0-4.771,2.532l-11.945,14.594c.017.015.028.032.044.047l-2.764,3.381c-.344.423-.125,1.169.489,1.67s1.389.566,1.734.148l4.59-5.616a.741.741,0,0,0,.15-.419l9.865-12.052a4.311,4.311,0,0,1,2.927-1.518,7.854,7.854,0,0,1,5.628,1.829l18.662,15a8.058,8.058,0,0,1,2.875,4.369,4.5,4.5,0,0,1-.724,3.914l-16.463,20.481L-612.3,141.9l-2.042-1.641,11.152-13.873a6.025,6.025,0,0,0-1.144-8.424l-4.423-3.555-2.793-2.248h-.006l-3.582-2.88a6.356,6.356,0,0,0-4.675-1.379,5.659,5.659,0,0,0-3.8,2.072l-27.726,33.641a5.665,5.665,0,0,0-1.187,4.416,6.316,6.316,0,0,0,2.321,4.021l10.8,8.682a6.35,6.35,0,0,0,4.676,1.379,5.674,5.674,0,0,0,3.8-2.072l8.207-9.442.232.187,3.985,3.2L-632.016,170a4.329,4.329,0,0,1-2.942,1.534,7.868,7.868,0,0,1-5.631-1.829l-18.659-15c-2.951-2.373-3.914-6.087-2.149-8.284l14.641-17.889a.735.735,0,0,0,.367-.23l4.589-5.614c.344-.422.125-1.169-.489-1.671s-1.389-.566-1.734-.146l-2.605,3.187c-.011-.011-.027-.018-.038-.029l-16.894,20.64c-2.732,3.4-1.578,8.874,2.566,12.206l18.661,15a10.544,10.544,0,0,0,7.695,2.426,7.09,7.09,0,0,0,4.771-2.53l13.536-16.04,6.724,5.406a10.536,10.536,0,0,0,7.691,2.423h0a7.087,7.087,0,0,0,4.772-2.53Zm-55.792-.4-16.464,20.482c-2.724,3.392-1.568,8.863,2.575,12.194l3.379,2.717-8.172,9.4a3.3,3.3,0,0,1-4.6.309l-10.8-8.682a3.536,3.536,0,0,1-1.311-2.248,2.912,2.912,0,0,1,.59-2.262l27.729-33.641a3.32,3.32,0,0,1,4.569-.281Zm-2.036,24.939a3.116,3.116,0,0,1-.035-3.77l11.056-13.755a3.116,3.116,0,0,1,.035,3.77Zm55.667-26.287-38.557,47.166a4.309,4.309,0,0,1-2.93,1.518h0a7.86,7.86,0,0,1-5.628-1.827l-7.769-6.245-.011-.014-5.347-4.294-5.534-4.448c-2.948-2.372-3.912-6.086-2.149-8.282l16.466-20.484,1.775,1.428,2.963,2.383-11.149,13.871a6.026,6.026,0,0,0,1.141,8.426l.309.248h0l.681.546,9.813,7.888A6.368,6.368,0,0,0-602,151.371a5.675,5.675,0,0,0,3.8-2.071l12.849-15.618a.734.734,0,0,0,.39-.231l4.59-5.614c.345-.42.127-1.168-.489-1.67s-1.389-.569-1.735-.148l-4.241,5.19c-.019-.013-.04-.019-.058-.031l-13.465,16.365a3.328,3.328,0,0,1-4.572.28l-3.034-2.438,16.463-20.484a7.216,7.216,0,0,0,1.268-6.282,10.837,10.837,0,0,0-3.843-5.912l-2.847-2.288,8.382-9.71a3.3,3.3,0,0,1,4.591-.3l10.8,8.682a3.242,3.242,0,0,1,.721,4.512l-4.035,4.9.028.022-2,2.452c-.347.422-.127,1.169.487,1.67s1.39.568,1.735.148l4.589-5.614a.721.721,0,0,0,.15-.355l1.209-1.47a6.032,6.032,0,0,0-1.136-8.438l-10.8-8.682a6.362,6.362,0,0,0-4.676-1.379,5.662,5.662,0,0,0-3.8,2.071l-8.413,9.746-4.751-3.82,13.716-16.321A4.332,4.332,0,0,1-587.19,87a7.864,7.864,0,0,1,5.63,1.829l18.662,15a8.043,8.043,0,0,1,2.873,4.37A4.5,4.5,0,0,1-560.749,112.112Z" transform="translate(665.042 -84.178)" fill="#262245"/>
        </g>
        <g id="Group_873" data-name="Group 873" transform="translate(110.261 381.158)">
          <path id="Path_441" data-name="Path 441" d="M-363.171,377.481v-9.046h-273.71v9.046h-17.278v70.746a5.709,5.709,0,0,0,5.9,5.483h289.516a5.709,5.709,0,0,0,5.9-5.483V377.481Z" transform="translate(656.943 -338.408)" fill="#b8dde9"/>
          <path id="Path_442" data-name="Path 442" d="M-636.881,368.435v9.046h-17.278v70.746a5.709,5.709,0,0,0,5.9,5.483h8.789l65.516-85.276Z" transform="translate(656.943 -338.408)" fill="#ddf4e9"/>
          <path id="Path_443" data-name="Path 443" d="M-363.171,377.481v-9.046h-26.737l-35.352,64.948h-228.9v14.844a5.709,5.709,0,0,0,5.9,5.483h289.516a5.709,5.709,0,0,0,5.9-5.483V377.481Z" transform="translate(656.943 -338.408)" fill="#aecff4" opacity="0.5" style="mix-blend-mode: multiply;isolation: isolate"/>
          <path id="Path_444" data-name="Path 444" d="M-456.46,408.292h-80.18c-.257,0-1.312,1.258-1.312,3.911s1.055,3.912,1.313,3.912h80.18c.262,0,1.317-1.258,1.317-3.912S-456.2,408.292-456.46,408.292Z" transform="translate(702.466 -322.795)" fill="#f14529"/>
          <path id="Path_445" data-name="Path 445" d="M-532.367,408.292h-80.177c-.26,0-1.312,1.258-1.312,3.911s1.052,3.912,1.313,3.912h80.177c.262,0,1.315-1.258,1.315-3.912S-532.105,408.292-532.367,408.292Z" transform="translate(672.731 -322.795)" fill="#00a79d"/>
          <path id="Path_446" data-name="Path 446" d="M-473.025,370.541a7.9,7.9,0,0,0,7.888-7.886,7.9,7.9,0,0,0-7.888-7.888,7.9,7.9,0,0,0-7.886,7.888A7.9,7.9,0,0,0-473.025,370.541Z" transform="translate(724.811 -343.763)" fill="#f14529"/>
          <path id="Path_447" data-name="Path 447" d="M-474.55,370.049a7.9,7.9,0,0,0,7.888-7.886,7.874,7.874,0,0,0-2.945-6.139l-7.412,13.621A7.808,7.808,0,0,0-474.55,370.049Z" transform="translate(726.336 -343.27)" fill="#d13629"/>
          <path id="Path_448" data-name="Path 448" d="M-352.847,382.337v-27.92a5.708,5.708,0,0,0-5.9-5.482H-648.262a5.708,5.708,0,0,0-5.9,5.482v27.92Zm-22.388-28.069a10.683,10.683,0,0,1,10.672,10.672,10.682,10.682,0,0,1-10.672,10.669A10.68,10.68,0,0,1-385.9,364.94,10.682,10.682,0,0,1-375.235,354.268Zm-29.922,0a10.683,10.683,0,0,1,10.672,10.672,10.682,10.682,0,0,1-10.672,10.669,10.68,10.68,0,0,1-10.669-10.669A10.682,10.682,0,0,1-405.157,354.268Z" transform="translate(656.943 -346.047)" fill="#924f8f"/>
          <path id="Path_449" data-name="Path 449" d="M-358.747,348.935h-16.391l-3.148,5.784a10.581,10.581,0,0,1,3.051-.451,10.683,10.683,0,0,1,10.672,10.672,10.647,10.647,0,0,1-4.047,8.35h0a10.8,10.8,0,0,1-2.029,1.264c-.089.043-.178.089-.271.132-.168.074-.342.142-.516.21-.136.052-.269.1-.408.146-.154.054-.315.1-.473.15s-.334.089-.5.127c-.145.036-.288.068-.436.1-.2.04-.412.068-.622.095-.117.017-.234.036-.354.046-.334.033-.671.053-1.013.053a10.87,10.87,0,0,1-1.713-.142c-.029-.006-.06-.008-.089-.014a10.309,10.309,0,0,1-1.536-.391c-.06-.019-.12-.032-.18-.054a10.25,10.25,0,0,1-1.35-.593c-.079-.04-.161-.077-.237-.12a10.3,10.3,0,0,1-1.189-.767c-.078-.057-.163-.114-.239-.174a10.7,10.7,0,0,1-3.7-5.433l-2.921,5.369h-10.139a10.605,10.605,0,0,1-6.625,2.319,10.6,10.6,0,0,1-6.622-2.319h-242.38v9.046h301.312v-27.92A5.708,5.708,0,0,0-358.747,348.935Z" transform="translate(656.943 -346.047)" fill="#ae6fae" opacity="0.5" style="mix-blend-mode: multiply;isolation: isolate"/>
          <path id="Path_450" data-name="Path 450" d="M-410.638,388.481H-621.563c-.26,0-1.314,1.26-1.314,3.912s1.053,3.911,1.314,3.911h210.925c.26,0,1.315-1.258,1.315-3.911S-410.378,388.481-410.638,388.481Z" transform="translate(669.197 -330.555)" fill="#ffffb1"/>
          <path id="Path_451" data-name="Path 451" d="M-451.525,370.541a7.9,7.9,0,0,0,7.888-7.886,7.9,7.9,0,0,0-7.888-7.888,7.9,7.9,0,0,0-7.886,7.888A7.9,7.9,0,0,0-451.525,370.541Z" transform="translate(733.233 -343.763)" fill="#007279"/>
          <path id="Path_452" data-name="Path 452" d="M-621.563,388.481c-.26,0-1.314,1.26-1.314,3.912s1.053,3.911,1.314,3.911h7.906l6.01-7.823Z" transform="translate(669.197 -330.555)" fill="#ffffb1"/>
          <path id="Path_453" data-name="Path 453" d="M-648.262,348.935a5.708,5.708,0,0,0-5.9,5.482v27.92h75.389l25.662-33.4Z" transform="translate(656.943 -346.047)" fill="#9263b5"/>
          <path id="Path_454" data-name="Path 454" d="M-654.159,366.435v9.046h75.389l6.95-9.046Z" transform="translate(656.942 -339.192)" fill="#924f8f"/>
          <path id="Path_455" data-name="Path 455" d="M-475.621,416.115c.262,0,1.317-1.258,1.317-3.912s-1.055-3.911-1.317-3.911h-9.163l-4.256,7.823Z" transform="translate(721.626 -322.795)" fill="#d13629"/>
          <path id="Path_456" data-name="Path 456" d="M-467.291,396.3c.26,0,1.315-1.258,1.315-3.911s-1.055-3.912-1.315-3.912H-474l-4.26,7.823Z" transform="translate(725.85 -330.555)" fill="#fbb040" opacity="0.5" style="mix-blend-mode: multiply;isolation: isolate"/>
          <path id="Path_457" data-name="Path 457" d="M-455.677,406.3h-9.785c-.021,0-.038-.019-.06-.019h-21.17c-.021,0-.04.017-.06.019h-49.1c-2.335,0-4.1,2.878-4.1,6.694s1.761,6.7,4.1,6.7h80.18c2.335,0,4.1-2.878,4.1-6.7S-453.341,406.3-455.677,406.3Zm0,10.606h-80.18c-.257,0-1.312-1.258-1.312-3.912s1.055-3.911,1.313-3.911h48.928a.765.765,0,0,0,.237.068h21.17a.738.738,0,0,0,.234-.068h9.611c.262,0,1.317,1.258,1.317,3.911S-455.415,416.9-455.677,416.9Z" transform="translate(701.682 -323.584)" fill="#262245"/>
          <path id="Path_458" data-name="Path 458" d="M-531.583,416.9h-48.06a.646.646,0,0,0-.189-.057h-7.252c-.543,0-.984.644-.984,1.435s.441,1.436.984,1.436h7.252c.039,0,.07-.025.106-.031h48.143c2.338,0,4.1-2.878,4.1-6.7s-1.761-6.694-4.1-6.694H-611.76c-2.337,0-4.1,2.878-4.1,6.694s1.759,6.7,4.1,6.7h8.565c.038.006.07.031.106.031h7.252c.544,0,.984-.642.984-1.436s-.44-1.435-.984-1.435h-7.252a.664.664,0,0,0-.188.057h-8.483c-.26,0-1.312-1.258-1.312-3.912s1.052-3.911,1.312-3.911h80.177c.262,0,1.315,1.258,1.315,3.911S-531.322,416.9-531.583,416.9Z" transform="translate(671.947 -323.578)" fill="#262245"/>
          <path id="Path_459" data-name="Path 459" d="M-409.854,386.512h-167.7a.715.715,0,0,0-.365-.109h-7.252c-.543,0-.984.644-.984,1.436s.441,1.435.984,1.435h3.854l-.007.021h171.472c.26,0,1.315,1.26,1.315,3.912s-1.055,3.911-1.315,3.911H-620.78c-.26,0-1.314-1.258-1.314-3.911s1.054-3.912,1.314-3.912h24.862l-.005-.021h3.62c.544,0,.984-.642.984-1.435s-.44-1.436-.984-1.436h-7.252a.714.714,0,0,0-.363.109H-620.78c-2.335,0-4.1,2.88-4.1,6.7s1.762,6.694,4.1,6.694h210.925c2.338,0,4.1-2.878,4.1-6.694S-407.516,386.512-409.854,386.512Z" transform="translate(668.414 -331.369)" fill="#262245"/>
          <path id="Path_460" data-name="Path 460" d="M-368.866,346.964H-562.76a.725.725,0,0,0-.356-.1h-7.252a.716.716,0,0,0-.355.1h-.646c.065.22.091.454.136.682a1.883,1.883,0,0,0-.12.65,1.8,1.8,0,0,0,.265.959c0,.166.017.326,0,.493h202.22a5.708,5.708,0,0,1,5.9,5.482v27.92H-619.8a.71.71,0,0,0-.3-.088h-7.252c-.544,0-.984.644-.984,1.435s.44,1.436.984,1.436h264.378V456.68a5.709,5.709,0,0,1-5.9,5.483h-26.152l0,.04h-3.12c-.543,0-.984.642-.984,1.435s.441,1.436.984,1.436h7.252a.725.725,0,0,0,.4-.128h21.626a8.492,8.492,0,0,0,8.683-8.267V355.23A8.492,8.492,0,0,0-368.866,346.964Z" transform="translate(667.062 -346.86)" fill="#262245"/>
          <path id="Path_461" data-name="Path 461" d="M-461.57,363.439a10.683,10.683,0,0,0-10.672-10.672,10.682,10.682,0,0,0-10.669,10.672,10.68,10.68,0,0,0,10.669,10.669A10.682,10.682,0,0,0-461.57,363.439Zm-18.557,0a7.9,7.9,0,0,1,7.886-7.888,7.9,7.9,0,0,1,7.888,7.888,7.9,7.9,0,0,1-7.888,7.886A7.9,7.9,0,0,1-480.128,363.439Z" transform="translate(724.027 -344.546)" fill="#262245"/>
          <path id="Path_462" data-name="Path 462" d="M-440.07,363.439a10.683,10.683,0,0,0-10.672-10.672,10.682,10.682,0,0,0-10.669,10.672,10.68,10.68,0,0,0,10.669,10.669A10.682,10.682,0,0,0-440.07,363.439Zm-18.557,0a7.9,7.9,0,0,1,7.886-7.888,7.9,7.9,0,0,1,7.888,7.888,7.9,7.9,0,0,1-7.888,7.886A7.9,7.9,0,0,1-458.628,363.439Z" transform="translate(732.45 -344.546)" fill="#262245"/>
          <path id="Path_463" data-name="Path 463" d="M-599.781,349.731h7.252c.544,0,.984-.644.984-1.435s-.44-1.436-.984-1.436h-7.252c-.543,0-.984.642-.984,1.436S-600.324,349.731-599.781,349.731Z" transform="translate(677.859 -346.86)" fill="#262245"/>
          <path id="Path_464" data-name="Path 464" d="M-466.654,429.737h-7.252c-.543,0-.984.642-.984,1.435s.441,1.436.984,1.436h7.252c.544,0,.984-.644.984-1.436S-466.11,429.737-466.654,429.737Z" transform="translate(727.17 -314.394)" fill="#262245"/>
          <path id="Path_465" data-name="Path 465" d="M-412.113,462.2h-3.365l0-.04h-232a5.709,5.709,0,0,1-5.9-5.483V385.933h24.737v-.017h2.664c.544,0,.984-.644.984-1.435s-.44-1.436-.984-1.436h-7.252a.725.725,0,0,0-.355.1h-19.792V355.23a5.708,5.708,0,0,1,5.9-5.482h59.9v-.017h1.1c.544,0,.984-.644.984-1.435s-.44-1.436-.984-1.436h-7.252a.725.725,0,0,0-.355.1h-53.386a8.49,8.49,0,0,0-8.68,8.266V456.68a8.49,8.49,0,0,0,8.68,8.267h227.717a.73.73,0,0,0,.4.128h7.252c.544,0,.984-.644.984-1.436S-411.569,462.2-412.113,462.2Z" transform="translate(656.159 -346.86)" fill="#262245"/>
        </g>
        <g id="Group_874" data-name="Group 874" transform="translate(29.802 383.089)">
          <path id="Path_466" data-name="Path 466" d="M-691.055,368.593a1.4,1.4,0,0,0-.855-.907l-11.628-4.257,35.744-12.691L-672.7,388.35l-6.6-10.477a1.4,1.4,0,0,0-1.068-.647c-.037,0-.072,0-.109,0a1.389,1.389,0,0,0-1.047.476l-22.4,25.593-7.662-6.192,20.322-27.275A1.4,1.4,0,0,0-691.055,368.593Z" transform="translate(714.901 -347.272)" fill="#00a79d"/>
          <path id="Path_467" data-name="Path 467" d="M-676.265,350.737l-2.533,19.406-11.171-14.54Z" transform="translate(723.372 -347.272)" fill="#00d3c2"/>
          <path id="Path_468" data-name="Path 468" d="M-703.932,395.532l-7.661-6.192,14-18.794,5.954,10.941Z" transform="translate(714.901 -339.512)" fill="#007279"/>
          <path id="Path_469" data-name="Path 469" d="M-693.688,370.634l-13.5-4.942a1.4,1.4,0,0,1-.913-1.315,1.394,1.394,0,0,1,.925-1.305l41.521-14.743a1.381,1.381,0,0,1,1.342.231,1.39,1.39,0,0,1,.5,1.261l-2.354,18.03-.029-.006-.494,4.545c-.063.54-.747.91-1.535.821s-1.378-.59-1.321-1.132l.785-7.209a.744.744,0,0,1,.234-.431l1.66-12.727L-702.607,364.4l11.628,4.257a1.4,1.4,0,0,1,.855.907,1.4,1.4,0,0,1-.217,1.232l-20.322,27.275,7.662,6.192,22.4-25.593a1.389,1.389,0,0,1,1.047-.476c.036,0,.071,0,.109,0a1.4,1.4,0,0,1,1.068.647l6.6,10.477.611-4.69c0-.01-.007-.018-.006-.029l.785-7.209c.061-.54.746-.907,1.531-.821s1.381.59,1.324,1.132l-.784,7.209a.731.731,0,0,1-.115.274l-1.086,8.32a1.392,1.392,0,0,1-1.081,1.18,1.386,1.386,0,0,1-1.475-.617l-7.666-12.162L-701.79,407.1a1.378,1.378,0,0,1-1.047.476,1.378,1.378,0,0,1-.875-.31l-9.742-7.872a1.392,1.392,0,0,1-.241-1.914Z" transform="translate(713.97 -348.247)" fill="#262245"/>
        </g>
        <g id="Group_877" data-name="Group 877" transform="translate(237.059)">
          <g id="Group_876" data-name="Group 876">
            <path id="Path_470" data-name="Path 470" d="M-563.051,101.018V285.509a5.706,5.706,0,0,0,5.9,5.482h242.2a5.706,5.706,0,0,0,5.9-5.482V101.018Zm248.078,84.288v-5.738a9.222,9.222,0,0,1,.463,2.868A9.237,9.237,0,0,1-314.973,185.306Z" transform="translate(565.835 -62.009)" fill="#b8dde9"/>
            <path id="Path_471" data-name="Path 471" d="M-332.378,101.018l-64.893,119.228h-165.78v65.263a5.706,5.706,0,0,0,5.9,5.482h242.2a5.706,5.706,0,0,0,5.9-5.482V101.018Zm17.405,78.55a9.222,9.222,0,0,1,.463,2.868,9.237,9.237,0,0,1-.463,2.87Z" transform="translate(565.835 -62.009)" fill="#aecff4" opacity="0.4" style="mix-blend-mode: multiply;isolation: isolate"/>
            <path id="Path_472" data-name="Path 472" d="M-563.051,190.905l69.06-89.887h-69.06Z" transform="translate(565.835 -62.009)" fill="#ddf4e9"/>
            <path id="Path_473" data-name="Path 473" d="M-411.748,82.352a7.894,7.894,0,0,0-7.887,7.886,7.9,7.9,0,0,0,7.887,7.887,7.9,7.9,0,0,0,7.887-7.887A7.894,7.894,0,0,0-411.748,82.352Z" transform="translate(622.017 -69.321)" fill="#f14529"/>
            <path id="Path_474" data-name="Path 474" d="M-413.545,97.441a7.9,7.9,0,0,0,7.887-7.887,7.849,7.849,0,0,0-2.207-5.457l-7.183,13.2A7.977,7.977,0,0,0-413.545,97.441Z" transform="translate(623.813 -68.638)" fill="#d13629"/>
            <path id="Path_475" data-name="Path 475" d="M-394.666,164.4h-41.6c-.259,0-1.314,1.26-1.314,3.912s1.055,3.911,1.314,3.911h41.6c.259,0,1.314-1.257,1.314-3.911S-394.407,164.4-394.666,164.4Z" transform="translate(614.987 -37.181)" fill="#ffffb1"/>
            <path id="Path_476" data-name="Path 476" d="M-383.5,148.208h-81.264c-.259,0-1.314,1.258-1.314,3.911s1.055,3.912,1.314,3.912H-383.5c.259,0,1.314-1.257,1.314-3.912S-383.243,148.208-383.5,148.208Z" transform="translate(603.822 -43.523)" fill="#ffffb1"/>
            <path id="Path_477" data-name="Path 477" d="M-351.314,188.042H-546.931c-.259,0-1.314,1.257-1.314,3.911s1.055,3.912,1.314,3.912h195.618c.259,0,1.314-1.258,1.314-3.912S-351.055,188.042-351.314,188.042Z" transform="translate(571.635 -27.918)" fill="#7ca6e9"/>
            <path id="Path_478" data-name="Path 478" d="M-383.5,131.958h-81.264c-.259,0-1.314,1.258-1.314,3.911s1.055,3.912,1.314,3.912H-383.5c.259,0,1.314-1.257,1.314-3.912S-383.243,131.958-383.5,131.958Z" transform="translate(603.822 -49.888)" fill="#ffffb1"/>
            <g id="Group_875" data-name="Group 875" transform="translate(2.783 2.824)">
              <path id="Path_479" data-name="Path 479" d="M-314.955,75.018h-242.2a5.708,5.708,0,0,0-5.9,5.485V108.42h253.993V80.5A5.708,5.708,0,0,0-314.955,75.018Zm-40.611,28.763a10.683,10.683,0,0,1-10.671-10.67,10.682,10.682,0,0,1,10.671-10.669A10.682,10.682,0,0,1-344.9,93.111,10.682,10.682,0,0,1-355.566,103.781Zm29.922,0a10.683,10.683,0,0,1-10.67-10.67,10.682,10.682,0,0,1,10.67-10.669,10.682,10.682,0,0,1,10.67,10.669A10.682,10.682,0,0,1-325.644,103.781Z" transform="translate(563.051 -75.018)" fill="#00a79d"/>
            </g>
            <path id="Path_480" data-name="Path 480" d="M-312.884,75.283l-5.435,9.986a10.633,10.633,0,0,1,3.346,7.738,10.647,10.647,0,0,1-4.36,8.584h0a10.712,10.712,0,0,1-2.885,1.513l-.072.026a10.414,10.414,0,0,1-1.5.376c-.091.017-.184.029-.276.043a10.642,10.642,0,0,1-1.574.128,10.7,10.7,0,0,1-1.5-.122c-.2-.031-.406-.071-.608-.113a10.662,10.662,0,0,1-4.2-1.851h-17.3a10.593,10.593,0,0,1-6.31,2.086,10.593,10.593,0,0,1-6.31-2.086H-563.051v6.725h253.993V80.4A5.511,5.511,0,0,0-312.884,75.283Z" transform="translate(565.835 -72.09)" fill="#007279"/>
            <path id="Path_481" data-name="Path 481" d="M-389.308,154.852a6.5,6.5,0,0,0-6.494,6.5,6.5,6.5,0,0,0,6.494,6.5,6.5,6.5,0,0,0,6.5-6.5A6.5,6.5,0,0,0-389.308,154.852Z" transform="translate(631.353 -40.92)" fill="#f9ed77"/>
            <path id="Path_482" data-name="Path 482" d="M-389.308,154.852a6.5,6.5,0,0,0-6.494,6.5,6.5,6.5,0,0,0,6.494,6.5,6.5,6.5,0,0,0,6.5-6.5A6.5,6.5,0,0,0-389.308,154.852Z" transform="translate(631.353 -40.92)" fill="#fbb040" opacity="0.5" style="mix-blend-mode: multiply;isolation: isolate"/>
            <path id="Path_483" data-name="Path 483" d="M-390.357,167.563a6.5,6.5,0,0,0,6.5-6.5,6.481,6.481,0,0,0-3.085-5.5l-6.179,11.355A6.416,6.416,0,0,0-390.357,167.563Z" transform="translate(632.402 -40.641)" fill="#fbb040" opacity="0.5" style="mix-blend-mode: multiply;isolation: isolate"/>
            <path id="Path_484" data-name="Path 484" d="M-383.5,116.542h-81.264c-.259,0-1.314,1.257-1.314,3.911s1.055,3.912,1.314,3.912H-383.5c.259,0,1.314-1.258,1.314-3.912S-383.243,116.542-383.5,116.542Z" transform="translate(603.822 -55.927)" fill="#ffffb1"/>
            <path id="Path_485" data-name="Path 485" d="M-478.182,168.958c-2.082-10.437-7.577-19.3-14.892-24.034-.171.131-.354.244-.529.369-.2.139-.39.28-.591.413-.3.193-.6.373-.907.551-.21.122-.415.252-.629.367-.47.249-.95.482-1.438.693-.277.12-.561.22-.843.327s-.561.217-.848.312-.565.17-.849.248-.593.163-.893.231c-.271.061-.541.118-.816.17-.356.065-.715.118-1.077.164-.227.029-.451.064-.681.085-.6.056-1.208.092-1.818.092s-1.222-.036-1.829-.093c-.239-.021-.476-.06-.713-.089-.352-.046-.7-.1-1.049-.161-.294-.054-.583-.117-.871-.185s-.55-.136-.822-.213c-.319-.088-.635-.18-.946-.285-.223-.074-.443-.159-.663-.241-.34-.128-.679-.253-1.009-.4-.127-.056-.248-.121-.373-.178a19.8,19.8,0,0,1-2.413-1.331c-.043-.026-.089-.051-.132-.079-.323-.213-.632-.445-.941-.676-.128-.1-.262-.181-.388-.281-7.475,4.689-13.081,13.618-15.2,24.215,7.67,4.4,19.308,4.783,29.677,4.783C-492.453,173.731-485.6,173.4-478.182,168.958Z" transform="translate(577.866 -44.884)" fill="#fff"/>
            <path id="Path_486" data-name="Path 486" d="M-487.51,167.288A40.953,40.953,0,0,0-495.987,149l-12.542,23.046C-500.167,171.928-494.054,171.21-487.51,167.288Z" transform="translate(587.193 -43.214)" fill="#d1d3d4" opacity="0.5" style="mix-blend-mode: multiply;isolation: isolate"/>
            <path id="Path_487" data-name="Path 487" d="M-518.96,151.17c.3.256.608.5.923.733.1.077.2.156.308.231.31.221.63.429.952.626.121.075.241.15.362.22.319.186.644.359.973.523.139.07.277.136.417.2q.484.225.98.42c.163.063.327.121.491.18.317.113.637.22.959.312.2.058.408.107.612.16.3.072.59.145.889.2.277.051.558.089.841.128.237.033.473.075.714.1.532.05,1.069.082,1.613.082s1.074-.032,1.6-.082c.223-.021.443-.058.664-.088.3-.04.592-.081.881-.135.271-.051.54-.117.809-.181.232-.057.465-.114.694-.18.283-.081.564-.171.842-.267.21-.072.419-.15.626-.23.274-.107.547-.219.818-.341.207-.095.413-.2.617-.3.253-.127.5-.255.752-.392.221-.125.436-.262.65-.4s.438-.27.653-.416c.241-.168.47-.348.7-.526.178-.136.358-.267.53-.409A16.9,16.9,0,0,0-491,138.363a16.946,16.946,0,0,0-16.926-16.926,16.945,16.945,0,0,0-16.925,16.926A16.887,16.887,0,0,0-518.96,151.17Z" transform="translate(580.799 -54.01)" fill="#fff"/>
            <path id="Path_488" data-name="Path 488" d="M-390.248,82.352a7.894,7.894,0,0,0-7.887,7.886,7.9,7.9,0,0,0,7.887,7.887,7.9,7.9,0,0,0,7.887-7.887A7.894,7.894,0,0,0-390.248,82.352Z" transform="translate(630.439 -69.321)" fill="#fff"/>
            <path id="Path_489" data-name="Path 489" d="M-351.314,219.708H-546.931c-.259,0-1.314,1.258-1.314,3.911s1.055,3.912,1.314,3.912h195.618c.259,0,1.314-1.257,1.314-3.912S-351.055,219.708-351.314,219.708Z" transform="translate(571.635 -15.513)" fill="#7ca6e9"/>
            <path id="Path_490" data-name="Path 490" d="M-351.314,203.458H-546.931c-.259,0-1.314,1.258-1.314,3.911s1.055,3.912,1.314,3.912h195.618c.259,0,1.314-1.257,1.314-3.912S-351.055,203.458-351.314,203.458Z" transform="translate(571.635 -21.879)" fill="#7ca6e9"/>
            <path id="Path_491" data-name="Path 491" d="M-542.688,202.765h86.731c2.82,0,5.113-2.614,5.113-5.827V115.348c0-3.215-2.294-5.83-5.113-5.83h-86.731c-2.818,0-5.113,2.615-5.113,5.83v81.589C-547.8,200.151-545.506,202.765-542.688,202.765ZM-529.2,183.19c2.046-11.465,7.97-21.259,15.994-26.6a19.623,19.623,0,0,1-5.439-13.556,19.732,19.732,0,0,1,19.708-19.71,19.732,19.732,0,0,1,19.71,19.71,19.636,19.636,0,0,1-5.641,13.777c7.845,5.386,13.642,15.1,15.657,26.38a1.394,1.394,0,0,1-.624,1.42c-8.343,5.3-16.016,5.7-26.772,5.7-11.13,0-23.7-.44-31.97-5.7A1.393,1.393,0,0,1-529.2,183.19Z" transform="translate(571.809 -58.679)" fill="#7ca6e9"/>
            <path id="Path_492" data-name="Path 492" d="M-547.8,115.348v44.6l38.748-50.434h-33.634C-545.506,109.518-547.8,112.133-547.8,115.348Z" transform="translate(571.809 -58.679)" fill="#aecff4"/>
            <path id="Path_493" data-name="Path 493" d="M-557.154,75.018a5.708,5.708,0,0,0-5.9,5.485V108.42h71.2l25.664-33.4Z" transform="translate(565.835 -72.194)" fill="#00d3c2"/>
            <path id="Path_494" data-name="Path 494" d="M-563.051,94.186v6.725h71.2l5.167-6.725Z" transform="translate(565.835 -64.685)" fill="#00a79d"/>
            <path id="Path_495" data-name="Path 495" d="M-399.182,156.031c.259,0,1.314-1.257,1.314-3.912s-1.055-3.911-1.314-3.911h-22.61l-4.259,7.823Z" transform="translate(619.503 -43.523)" fill="#fbb040" opacity="0.5" style="mix-blend-mode: multiply;isolation: isolate"/>
            <path id="Path_496" data-name="Path 496" d="M-402.647,139.781c.259,0,1.314-1.257,1.314-3.912s-1.055-3.911-1.314-3.911h-10.3l-4.257,7.823Z" transform="translate(622.968 -49.888)" fill="#fbb040" opacity="0.5" style="mix-blend-mode: multiply;isolation: isolate"/>
            <path id="Path_497" data-name="Path 497" d="M-405.934,124.065c.259,0,1.314-1.258,1.314-3.912a7.189,7.189,0,0,0-.518-2.843l-3.678,6.756Z" transform="translate(626.255 -55.627)" fill="#fbb040" opacity="0.5" style="mix-blend-mode: multiply;isolation: isolate"/>
            <path id="Path_498" data-name="Path 498" d="M-383.937,227.531c.259,0,1.314-1.257,1.314-3.912s-1.055-3.911-1.314-3.911h-76.77l-4.259,7.823Z" transform="translate(604.258 -15.513)" fill="#599af4" opacity="0.5" style="mix-blend-mode: multiply;isolation: isolate"/>
            <path id="Path_499" data-name="Path 499" d="M-387.4,211.281c.259,0,1.314-1.257,1.314-3.912s-1.055-3.911-1.314-3.911h-64.463l-4.257,7.823Z" transform="translate(607.723 -21.879)" fill="#599af4" opacity="0.5" style="mix-blend-mode: multiply;isolation: isolate"/>
            <path id="Path_500" data-name="Path 500" d="M-390.689,195.865c.259,0,1.314-1.258,1.314-3.912s-1.055-3.911-1.314-3.911h-52.783l-4.259,7.823Z" transform="translate(611.01 -27.918)" fill="#599af4" opacity="0.5" style="mix-blend-mode: multiply;isolation: isolate"/>
            <path id="Path_501" data-name="Path 501" d="M-395.731,172.22c.259,0,1.314-1.257,1.314-3.911s-1.055-3.912-1.314-3.912h-34.874l-4.256,7.823Z" transform="translate(616.052 -37.181)" fill="#fbb040" opacity="0.5" style="mix-blend-mode: multiply;isolation: isolate"/>
            <path id="Path_502" data-name="Path 502" d="M-392.15,97.363a7.9,7.9,0,0,0,7.887-7.887,7.852,7.852,0,0,0-1.954-5.18l-7.063,12.978A7.97,7.97,0,0,0-392.15,97.363Z" transform="translate(632.341 -68.56)" fill="#e6e7e8" opacity="0.5" style="mix-blend-mode: multiply;isolation: isolate"/>
            <path id="Path_503" data-name="Path 503" d="M-467.873,171.493H-469.2a1.386,1.386,0,0,1-.633,1.1c-8.343,5.3-16.016,5.7-26.772,5.7-11.13,0-23.7-.44-31.97-5.7a1.384,1.384,0,0,1-.635-1.1H-547.8v13.423c0,3.214,2.3,5.827,5.113,5.827h86.731c2.82,0,5.113-2.614,5.113-5.827V140.205Z" transform="translate(571.809 -46.658)" fill="#aecff4" opacity="0.5" style="mix-blend-mode: multiply;isolation: isolate"/>
            <path id="Path_504" data-name="Path 504" d="M-350.53,201.479h-28.936a.853.853,0,0,0-.269-.074h-24.138a.7.7,0,0,0-.249.074H-546.148c-2.337,0-4.1,2.878-4.1,6.694s1.761,6.7,4.1,6.7H-350.53c2.335,0,4.1-2.877,4.1-6.7S-348.195,201.479-350.53,201.479Zm0,10.606H-546.148c-.259,0-1.314-1.257-1.314-3.912s1.055-3.911,1.314-3.911H-403.92c.017,0,.031.014.047.014h24.138c.017,0,.033-.013.05-.014h29.154c.259,0,1.314,1.258,1.314,3.911S-350.271,212.085-350.53,212.085Z" transform="translate(570.851 -22.683)" fill="#262245"/>
            <path id="Path_505" data-name="Path 505" d="M-350.53,186.047H-490.194c-.018,0-.033-.017-.053-.017H-497.5c-.543,0-.984.643-.984,1.435s.441,1.436.984,1.436h7.252a.713.713,0,0,0,.242-.071H-350.53c.259,0,1.314,1.257,1.314,3.911s-1.055,3.912-1.314,3.912H-546.148c-.259,0-1.314-1.258-1.314-3.912s1.055-3.911,1.314-3.911h30.635a.7.7,0,0,0,.242.071h7.252c.543,0,.984-.642.984-1.436s-.441-1.435-.984-1.435h-7.252c-.02,0-.035.015-.053.017h-30.824c-2.337,0-4.1,2.877-4.1,6.694s1.761,6.7,4.1,6.7H-350.53c2.335,0,4.1-2.878,4.1-6.7S-348.195,186.047-350.53,186.047Z" transform="translate(570.851 -28.706)" fill="#262245"/>
            <path id="Path_506" data-name="Path 506" d="M-382.718,129.958h-81.264c-2.337,0-4.1,2.878-4.1,6.694s1.761,6.7,4.1,6.7h81.264c2.335,0,4.1-2.877,4.1-6.7S-380.383,129.958-382.718,129.958Zm0,10.606h-81.264c-.259,0-1.314-1.257-1.314-3.912s1.055-3.911,1.314-3.911h81.264c.259,0,1.314,1.258,1.314,3.911S-382.459,140.564-382.718,140.564Z" transform="translate(603.039 -50.672)" fill="#262245"/>
            <path id="Path_507" data-name="Path 507" d="M-382.718,114.547h-51.056c-.018,0-.033-.017-.053-.017h-7.252c-.543,0-.984.643-.984,1.435s.441,1.436.984,1.436h7.252a.713.713,0,0,0,.242-.071h50.867c.259,0,1.314,1.257,1.314,3.911s-1.055,3.912-1.314,3.912h-81.264c-.259,0-1.314-1.258-1.314-3.912s1.055-3.911,1.314-3.911h8.195a.7.7,0,0,0,.242.071h7.252c.543,0,.984-.642.984-1.436s-.441-1.435-.984-1.435h-7.252c-.019,0-.035.015-.053.017h-8.384c-2.337,0-4.1,2.877-4.1,6.694s1.761,6.7,4.1,6.7h81.264c2.335,0,4.1-2.878,4.1-6.7S-380.383,114.547-382.718,114.547Z" transform="translate(603.039 -56.716)" fill="#262245"/>
            <path id="Path_508" data-name="Path 508" d="M-382.718,146.208h-81.264c-2.337,0-4.1,2.878-4.1,6.694s1.761,6.7,4.1,6.7h81.264c2.335,0,4.1-2.877,4.1-6.7S-380.383,146.208-382.718,146.208Zm0,10.606h-81.264c-.259,0-1.314-1.257-1.314-3.912s1.055-3.911,1.314-3.911h81.264c.259,0,1.314,1.258,1.314,3.911S-382.459,156.814-382.718,156.814Z" transform="translate(603.039 -44.306)" fill="#262245"/>
            <path id="Path_509" data-name="Path 509" d="M-393.883,162.4H-412.97v.011h-4.944c-.543,0-.984.643-.984,1.435s.441,1.436.984,1.436h7.252a.711.711,0,0,0,.333-.1h16.446c.259,0,1.314,1.26,1.314,3.912S-393.624,173-393.883,173h-41.6c-.259,0-1.314-1.257-1.314-3.911s1.055-3.912,1.314-3.912h3.058a.721.721,0,0,0,.334.1h7.252c.543,0,.984-.642.984-1.436s-.441-1.435-.984-1.435H-427.9V162.4h-7.585c-2.337,0-4.1,2.88-4.1,6.7s1.761,6.694,4.1,6.694h41.6c2.335,0,4.1-2.877,4.1-6.694S-391.547,162.4-393.883,162.4Z" transform="translate(614.204 -37.964)" fill="#262245"/>
            <path id="Path_510" data-name="Path 510" d="M-465.26,206.408c4.355,0,7.9-3.862,7.9-8.611V116.208c0-4.749-3.542-8.613-7.9-8.613h-50.01a.79.79,0,0,0-.547-.273h-7.252c-.543,0-.984.642-.984,1.435s.441,1.436.984,1.436h2.932c0,.061-.005.125-.01.185h54.886c2.82,0,5.113,2.615,5.113,5.83V197.8c0,3.214-2.294,5.827-5.113,5.827h-15.724a.771.771,0,0,0-.5-.23h-7.252c-.543,0-.984.642-.984,1.436s.441,1.435.984,1.435h2.7c-.022.046-.033.1-.054.142Z" transform="translate(581.112 -59.539)" fill="#262245"/>
            <path id="Path_511" data-name="Path 511" d="M-387.6,186.771a9.292,9.292,0,0,0,8.352-9.231,9.293,9.293,0,0,0-8.352-9.231v-53.4a1.392,1.392,0,0,0-1.392-1.392,1.392,1.392,0,0,0-1.392,1.392v53.537a9.3,9.3,0,0,0-7.422,9.092,9.294,9.294,0,0,0,7.422,9.092v31.562a.723.723,0,0,0-.1.342v7.251c0,.544.643.984,1.435.984s1.435-.44,1.435-.984v-2.628l.014,0Zm-7.422-9.231a6.5,6.5,0,0,1,6.494-6.5,6.5,6.5,0,0,1,6.5,6.5,6.5,6.5,0,0,1-6.5,6.5A6.5,6.5,0,0,1-395.019,177.54Z" transform="translate(630.569 -57.112)" fill="#262245"/>
            <path id="Path_512" data-name="Path 512" d="M-391.049,237.238a1.39,1.39,0,0,0,1.392-1.392V204.789h-.014v-5.1c0-.544-.643-.984-1.435-.984s-1.435.44-1.435.984v7.252a.714.714,0,0,0,.1.341v28.561A1.391,1.391,0,0,0-391.049,237.238Z" transform="translate(632.63 -23.74)" fill="#262245"/>
            <path id="Path_513" data-name="Path 513" d="M-400.294,91.021a10.681,10.681,0,0,0-10.67-10.669,10.683,10.683,0,0,0-10.671,10.669,10.683,10.683,0,0,0,10.671,10.67A10.682,10.682,0,0,0-400.294,91.021Zm-18.557,0a7.894,7.894,0,0,1,7.887-7.886,7.894,7.894,0,0,1,7.887,7.886,7.9,7.9,0,0,1-7.887,7.887A7.9,7.9,0,0,1-418.852,91.021Z" transform="translate(621.233 -70.105)" fill="#262245"/>
            <path id="Path_514" data-name="Path 514" d="M-378.794,91.021a10.682,10.682,0,0,0-10.67-10.669,10.682,10.682,0,0,0-10.671,10.669,10.683,10.683,0,0,0,10.671,10.67A10.682,10.682,0,0,0-378.794,91.021Zm-18.557,0a7.894,7.894,0,0,1,7.887-7.886,7.894,7.894,0,0,1,7.887,7.886,7.9,7.9,0,0,1-7.887,7.887A7.9,7.9,0,0,1-397.352,91.021Z" transform="translate(629.655 -70.105)" fill="#262245"/>
            <path id="Path_515" data-name="Path 515" d="M-534.429,179.3a1.393,1.393,0,0,0,.625,1.42c8.273,5.261,20.84,5.7,31.97,5.7,10.755,0,18.428-.4,26.772-5.7a1.394,1.394,0,0,0,.624-1.42c-2.015-11.281-7.812-20.994-15.657-26.38a19.637,19.637,0,0,0,5.641-13.777,19.732,19.732,0,0,0-19.71-19.71,19.732,19.732,0,0,0-19.708,19.71,19.623,19.623,0,0,0,5.439,13.556C-526.458,158.045-532.383,167.839-534.429,179.3Zm13.339-40.157a16.945,16.945,0,0,1,16.925-16.926,16.946,16.946,0,0,1,16.926,16.926,16.9,16.9,0,0,1-6.086,12.984c-.173.142-.352.273-.53.409-.231.178-.461.358-.7.526-.214.146-.434.28-.653.416s-.429.271-.65.4c-.248.138-.5.266-.752.392-.2.1-.409.2-.617.3-.271.122-.544.234-.818.341-.207.079-.416.157-.626.23-.278.1-.56.186-.842.267-.23.065-.462.122-.695.18-.269.064-.537.129-.809.181-.289.054-.586.095-.881.135-.221.029-.441.067-.664.088-.529.05-1.062.082-1.6.082s-1.081-.032-1.613-.082c-.241-.022-.477-.064-.714-.1-.283-.039-.564-.077-.841-.128-.3-.058-.594-.131-.889-.2-.2-.053-.411-.1-.612-.16-.321-.092-.642-.2-.959-.312-.164-.058-.328-.117-.491-.18q-.495-.194-.98-.42c-.141-.065-.278-.132-.417-.2-.328-.164-.654-.337-.973-.523-.121-.07-.241-.145-.362-.22-.321-.2-.642-.405-.952-.626-.1-.075-.2-.154-.307-.231-.315-.235-.624-.477-.923-.733A16.887,16.887,0,0,1-521.09,139.147Zm4.775,15.5c.127.1.26.185.388.281.309.231.618.463.941.676.043.028.089.053.132.079a19.8,19.8,0,0,0,2.413,1.331c.125.057.246.122.373.178.33.146.669.271,1.009.4.22.082.44.167.662.241.312.106.628.2.946.285.273.077.546.148.823.213s.578.131.871.185c.347.065.7.115,1.049.161.237.029.473.068.713.089.607.057,1.216.093,1.829.093s1.214-.036,1.818-.092c.23-.021.454-.056.681-.085.362-.046.721-.1,1.077-.164.274-.051.544-.109.816-.17.3-.068.6-.148.893-.231s.568-.156.849-.248.566-.2.848-.312.566-.207.843-.327c.487-.212.967-.444,1.438-.693.214-.115.419-.245.629-.367.308-.178.611-.358.907-.551.2-.134.4-.274.591-.413.175-.125.358-.238.529-.369,7.315,4.733,12.81,13.6,14.892,24.034-7.414,4.444-14.271,4.774-24.479,4.774-10.37,0-22.008-.379-29.677-4.783C-529.4,168.261-523.79,159.331-516.315,154.643Z" transform="translate(577.038 -54.793)" fill="#262245"/>
            <path id="Path_516" data-name="Path 516" d="M-526.463,75.86h7.252c.543,0,.984-.643.984-1.436s-.441-1.435-.984-1.435h-7.252c-.544,0-.984.642-.984,1.435S-527.007,75.86-526.463,75.86Z" transform="translate(579.782 -72.989)" fill="#262245"/>
            <path id="Path_517" data-name="Path 517" d="M-523.908,107.322h-7.252a.788.788,0,0,0-.547.273h-10.2c-4.355,0-7.9,3.865-7.9,8.613V197.8c0,4.749,3.542,8.611,7.9,8.611h51.682c-.022-.045-.033-.1-.054-.142h1.627c.543,0,.984-.643.984-1.435s-.441-1.436-.984-1.436H-495.9a.777.777,0,0,0-.5.23h-45.5c-2.818,0-5.113-2.614-5.113-5.827V116.208c0-3.215,2.295-5.83,5.113-5.83h15.453c0-.06,0-.124-.008-.185h2.552c.543,0,.984-.643.984-1.436S-523.365,107.322-523.908,107.322Z" transform="translate(571.025 -59.539)" fill="#262245"/>
            <path id="Path_518" data-name="Path 518" d="M-314.172,73.029H-488.565a.85.85,0,0,0-.141-.04h-7.252c-.544,0-.984.642-.984,1.435s.44,1.436.984,1.436h7.252a.705.705,0,0,0,.154-.047h174.38a5.708,5.708,0,0,1,5.9,5.485v27.917H-562.268V81.3a5.708,5.708,0,0,1,5.9-5.485h28.246a.714.714,0,0,0,.156.047h7.252c.543,0,.984-.643.984-1.436s-.441-1.435-.984-1.435h-7.252a.866.866,0,0,0-.142.04h-28.259a8.492,8.492,0,0,0-8.68,8.268V296.489a8.49,8.49,0,0,0,8.68,8.266h173.219a.716.716,0,0,0,.156.047h7.252c.543,0,.984-.643.984-1.436s-.441-1.435-.984-1.435H-383a.865.865,0,0,0-.142.04H-556.371a5.706,5.706,0,0,1-5.9-5.482V112h253.993V296.489a5.706,5.706,0,0,1-5.9,5.482H-339.65a.85.85,0,0,0-.141-.04h-7.252c-.544,0-.984.642-.984,1.435s.44,1.436.984,1.436h7.252a.705.705,0,0,0,.155-.047h25.465a8.49,8.49,0,0,0,8.68-8.266V81.3A8.492,8.492,0,0,0-314.172,73.029Z" transform="translate(565.051 -72.989)" fill="#262245"/>
            <path id="Path_519" data-name="Path 519" d="M-413.545,237.489H-420.8c-.544,0-.984.642-.984,1.435s.44,1.436.984,1.436h7.252c.543,0,.984-.643.984-1.436S-413,237.489-413.545,237.489Z" transform="translate(621.176 -8.548)" fill="#262245"/>
            <path id="Path_520" data-name="Path 520" d="M-482.1,229.855c0,.795.44,1.436.984,1.436h7.252a.751.751,0,0,0,.465-.193H-350.53c2.335,0,4.1-2.877,4.1-6.7s-1.762-6.694-4.1-6.694H-546.148c-2.337,0-4.1,2.878-4.1,6.694s1.761,6.7,4.1,6.7h47.4a.747.747,0,0,0,.465.193h7.252c.543,0,.984-.642.984-1.436s-.441-1.435-.984-1.435h-2.935c0-.035,0-.071.006-.106h-52.19c-.259,0-1.314-1.257-1.314-3.912s1.055-3.911,1.314-3.911H-350.53c.259,0,1.314,1.258,1.314,3.911s-1.055,3.912-1.314,3.912H-479.578c.006.035,0,.071.006.106h-1.542C-481.659,228.42-482.1,229.063-482.1,229.855Z" transform="translate(570.851 -16.297)" fill="#262245"/>
          </g>
          <path id="Path_521" data-name="Path 521" d="M-557.154,263.633h41.638V177.812a6.959,6.959,0,0,0-6.959-6.959h-40.576v87.3A5.706,5.706,0,0,0-557.154,263.633Z" transform="translate(565.835 -34.652)" fill="#939598" opacity="0.4" style="mix-blend-mode: multiply;isolation: isolate"/>
        </g>
        <g id="Group_879" data-name="Group 879" transform="translate(0 125.677)">
          <path id="Path_522" data-name="Path 522" d="M-733.384,191.353V375.842a5.708,5.708,0,0,0,5.9,5.482h261.682a5.707,5.707,0,0,0,5.9-5.482V191.353Zm262.925,103.785v-3.912a9.255,9.255,0,0,1,.23,1.955A9.257,9.257,0,0,1-470.459,295.138Z" transform="translate(736.167 -152.298)" fill="#b8dde9"/>
          <path id="Path_523" data-name="Path 523" d="M-486.219,191.353l-64.766,118.992h-182.4v65.5a5.708,5.708,0,0,0,5.9,5.482h261.682a5.707,5.707,0,0,0,5.9-5.482V191.353Zm15.76,99.873a9.255,9.255,0,0,1,.23,1.955,9.257,9.257,0,0,1-.23,1.957Z" transform="translate(736.167 -152.298)" fill="#aecff4" opacity="0.4" style="mix-blend-mode: multiply;isolation: isolate"/>
          <circle id="Ellipse_18" data-name="Ellipse 18" cx="7.887" cy="7.887" r="7.887" transform="translate(248.774 12.38)" fill="#00a79d"/>
          <circle id="Ellipse_19" data-name="Ellipse 19" cx="7.887" cy="7.887" r="7.887" transform="translate(218.851 12.38)" fill="#fff"/>
          <path id="Path_524" data-name="Path 524" d="M-571.987,187.319a7.9,7.9,0,0,0,7.887-7.887,7.859,7.859,0,0,0-2.351-5.609l-7.243,13.305A7.846,7.846,0,0,0-571.987,187.319Z" transform="translate(798.725 -159.165)" fill="#d1d3d4"/>
          <path id="Path_525" data-name="Path 525" d="M-459.907,198.755V170.836a5.708,5.708,0,0,0-5.9-5.483H-727.487a5.709,5.709,0,0,0-5.9,5.483v27.918Zm-19.6-26.675a10.683,10.683,0,0,1,10.671,10.67,10.682,10.682,0,0,1-10.671,10.671,10.683,10.683,0,0,1-10.67-10.671A10.684,10.684,0,0,1-479.507,172.079Zm-29.922,0a10.683,10.683,0,0,1,10.671,10.67,10.682,10.682,0,0,1-10.671,10.671A10.683,10.683,0,0,1-520.1,182.75,10.684,10.684,0,0,1-509.429,172.079Z" transform="translate(736.167 -162.483)" fill="#f14529"/>
          <path id="Path_526" data-name="Path 526" d="M-506.337,295.042H-717.264c-.26,0-1.314,1.258-1.314,3.911s1.053,3.912,1.314,3.912h210.927c.259,0,1.314-1.258,1.314-3.912S-506.079,295.042-506.337,295.042Z" transform="translate(741.968 -111.679)" fill="#7ca6e9"/>
          <path id="Path_527" data-name="Path 527" d="M-549.14,259.852a6.5,6.5,0,0,0-6.5,6.5,6.5,6.5,0,0,0,6.5,6.5,6.5,6.5,0,0,0,6.5-6.5A6.5,6.5,0,0,0-549.14,259.852Z" transform="translate(805.799 -125.464)" fill="#f9ed77"/>
          <path id="Path_528" data-name="Path 528" d="M-549.14,259.852a6.5,6.5,0,0,0-6.5,6.5,6.5,6.5,0,0,0,6.5,6.5,6.5,6.5,0,0,0,6.5-6.5A6.5,6.5,0,0,0-549.14,259.852Z" transform="translate(805.799 -125.464)" fill="#fbb040" opacity="0.5" style="mix-blend-mode: multiply;isolation: isolate"/>
          <path id="Path_529" data-name="Path 529" d="M-645.676,243.177l13.052-7.536-13.052-7.535Z" transform="translate(770.526 -137.901)" fill="#fff"/>
          <path id="Path_530" data-name="Path 530" d="M-510.764,199.853h-201.8a5.709,5.709,0,0,0-5.567,5.829v81.589a5.707,5.707,0,0,0,5.567,5.827h201.8a5.708,5.708,0,0,0,5.567-5.827V205.682A5.71,5.71,0,0,0-510.764,199.853ZM-612.825,275.47a28.8,28.8,0,0,1-28.763-28.762,28.8,28.8,0,0,1,28.763-28.763,28.8,28.8,0,0,1,28.762,28.763A28.793,28.793,0,0,1-612.825,275.47Z" transform="translate(742.142 -148.968)" fill="#ffffb1"/>
          <path id="Path_531" data-name="Path 531" d="M-552.7,283.876V208.52L-596.883,289.7h38.62A5.708,5.708,0,0,0-552.7,283.876Z" transform="translate(789.641 -145.573)" fill="#fbb040" opacity="0.5" style="mix-blend-mode: multiply;isolation: isolate"/>
          <path id="Path_532" data-name="Path 532" d="M-550.329,272.477a6.5,6.5,0,0,0,6.5-6.5,6.474,6.474,0,0,0-2.636-5.2l-6.129,11.259A6.452,6.452,0,0,0-550.329,272.477Z" transform="translate(806.988 -125.098)" fill="#fbb040" opacity="0.5" style="mix-blend-mode: multiply;isolation: isolate"/>
          <path id="Path_533" data-name="Path 533" d="M-543.139,278.042h-80.18c-.262,0-1.315,1.258-1.315,3.911s1.053,3.912,1.315,3.912h80.18c.259,0,1.314-1.258,1.314-3.912S-542.88,278.042-543.139,278.042Z" transform="translate(778.769 -118.338)" fill="#7ca6e9"/>
          <path id="Path_534" data-name="Path 534" d="M-506.337,310.542H-717.264c-.26,0-1.314,1.258-1.314,3.911s1.053,3.912,1.314,3.912h210.927c.259,0,1.314-1.258,1.314-3.912S-506.079,310.542-506.337,310.542Z" transform="translate(741.968 -105.607)" fill="#7ca6e9"/>
          <path id="Path_535" data-name="Path 535" d="M-635.154,214.853a26.009,26.009,0,0,0-25.98,25.98,26.008,26.008,0,0,0,25.98,25.978,26.007,26.007,0,0,0,25.978-25.978A26.008,26.008,0,0,0-635.154,214.853Zm12.761,25.98a1.369,1.369,0,0,1-.122.569,1.366,1.366,0,0,1-.287.416,1.269,1.269,0,0,1-.309.231l-17.014,9.824a1.628,1.628,0,0,1-.86.3h-.025a1.215,1.215,0,0,1-.142-.007,1.411,1.411,0,0,1-.548-.175,1.372,1.372,0,0,1-.44-.4,1.4,1.4,0,0,1-.217-.452,1.438,1.438,0,0,1-.046-.359V230.886a1.392,1.392,0,0,1,.7-1.205,1.389,1.389,0,0,1,1.392,0l17.2,9.933a1.394,1.394,0,0,1,.313.237,1.358,1.358,0,0,1,.282.413,1.356,1.356,0,0,1,.122.566Z" transform="translate(764.471 -143.092)" fill="#f14529"/>
          <path id="Path_536" data-name="Path 536" d="M-629.283,237.83v0a1.371,1.371,0,0,1-.122.569,1.367,1.367,0,0,1-.287.416,1.271,1.271,0,0,1-.309.231l-.163.095-13.384,24.592c.5.028,1,.075,1.5.075a26.007,26.007,0,0,0,25.978-25.978,25.8,25.8,0,0,0-5.045-15.32l-8.22,15.1A1.381,1.381,0,0,1-629.283,237.83Z" transform="translate(771.36 -140.092)" fill="#d13629"/>
          <path id="Path_537" data-name="Path 537" d="M-733.384,274.13l63.6-82.776h-63.6Z" transform="translate(736.167 -152.298)" fill="#ddf4e9"/>
          <path id="Path_538" data-name="Path 538" d="M-684.85,199.853h-27.717a5.709,5.709,0,0,0-5.567,5.829v37.492Z" transform="translate(742.142 -148.968)" fill="#fff"/>
          <path id="Path_539" data-name="Path 539" d="M-661.134,240.829a25.881,25.881,0,0,0,.839,6.431l24.89-32.4A26,26,0,0,0-661.134,240.829Z" transform="translate(764.471 -143.088)" fill="#f15e57"/>
          <path id="Path_540" data-name="Path 540" d="M-727.487,165.353a5.709,5.709,0,0,0-5.9,5.483v27.918h65.735l25.662-33.4Z" transform="translate(736.167 -162.483)" fill="#f15e57"/>
          <path id="Path_541" data-name="Path 541" d="M-550.883,186.891A7.9,7.9,0,0,0-543,179a7.844,7.844,0,0,0-1.155-4.089l-7.03,11.962C-551.082,186.88-550.983,186.891-550.883,186.891Z" transform="translate(807.544 -158.737)" fill="#007279"/>
          <path id="Path_542" data-name="Path 542" d="M-543.577,310.542H-619.3l-4.218,7.823h79.94c.259,0,1.314-1.258,1.314-3.912S-543.318,310.542-543.577,310.542Z" transform="translate(779.207 -105.607)" fill="#599af4" opacity="0.5" style="mix-blend-mode: multiply;isolation: isolate"/>
          <path id="Path_543" data-name="Path 543" d="M-546.85,295.042h-64.094l-4.217,7.823h68.311c.259,0,1.314-1.258,1.314-3.912S-546.591,295.042-546.85,295.042Z" transform="translate(782.48 -111.679)" fill="#599af4" opacity="0.5" style="mix-blend-mode: multiply;isolation: isolate"/>
          <path id="Path_544" data-name="Path 544" d="M-550.44,278.042h-51.34L-606,285.865h55.557c.259,0,1.314-1.258,1.314-3.912S-550.181,278.042-550.44,278.042Z" transform="translate(786.07 -118.338)" fill="#599af4" opacity="0.5" style="mix-blend-mode: multiply;isolation: isolate"/>
          <path id="Path_545" data-name="Path 545" d="M-465,165.407l-6.229,10.6a10.621,10.621,0,0,1,2.392,6.721,10.659,10.659,0,0,1-5.04,9.046h0a10.649,10.649,0,0,1-2.632,1.187c-.028.01-.058.015-.086.024a10.594,10.594,0,0,1-1.215.266l-.319.049a10.724,10.724,0,0,1-1.379.1,10.468,10.468,0,0,1-1.262-.09c-.156-.021-.313-.038-.466-.064a10.641,10.641,0,0,1-3.9-1.47H-503.8a10.589,10.589,0,0,1-5.631,1.624,10.6,10.6,0,0,1-5.632-1.624H-733.384v6.959h273.477V170.815A5.627,5.627,0,0,0-465,165.407Z" transform="translate(736.167 -162.462)" fill="#d13629"/>
          <path id="Path_546" data-name="Path 546" d="M-733.384,184.353v6.959h65.734l5.347-6.959Z" transform="translate(736.167 -155.04)" fill="#f14529"/>
          <path id="Path_547" data-name="Path 547" d="M-716.481,306.432h210.927c2.335,0,4.1-2.878,4.1-6.7s-1.762-6.694-4.1-6.694h-163.14c0,.014,0,.026.006.04H-670.7c-.544,0-.984.644-.984,1.435s.44,1.436.984,1.436h7.252a.731.731,0,0,0,.4-.128h157.495c.259,0,1.314,1.258,1.314,3.911s-1.055,3.912-1.314,3.912H-716.481c-.26,0-1.314-1.258-1.314-3.912s1.054-3.911,1.314-3.911h29.03a.723.723,0,0,0,.4.128h7.252c.543,0,.984-.642.984-1.436s-.441-1.435-.984-1.435h-3.056c0-.014,0-.026.005-.04h-33.63c-2.337,0-4.1,2.878-4.1,6.694S-718.817,306.432-716.481,306.432Z" transform="translate(741.184 -112.462)" fill="#262245"/>
          <g id="Group_878" data-name="Group 878" transform="translate(20.606 202.152)">
            <path id="Path_548" data-name="Path 548" d="M-602.014,316.173c.122-.079-.142,0,0,0Z" transform="translate(767.008 -305.566)" fill="#262245"/>
            <path id="Path_549" data-name="Path 549" d="M-505.554,308.542H-716.481c-2.337,0-4.1,2.878-4.1,6.694s1.761,6.7,4.1,6.7h165.9l-.007-.04h15.107c0,.013,0,.026-.006.04h29.934c2.335,0,4.1-2.878,4.1-6.7S-503.219,308.542-505.554,308.542Zm0,10.606H-716.481c-.26,0-1.314-1.258-1.314-3.912s1.054-3.911,1.314-3.911h210.927c.259,0,1.314,1.258,1.314,3.911S-505.3,319.148-505.554,319.148Z" transform="translate(720.578 -308.542)" fill="#262245"/>
          </g>
          <path id="Path_550" data-name="Path 550" d="M-711.784,200.649h24.408a.707.707,0,0,0,.149.045h7.252c.543,0,.984-.643.984-1.436s-.441-1.435-.984-1.435h-7.252a.7.7,0,0,0-.149.043h-24.408a8.494,8.494,0,0,0-8.35,8.612v81.589a8.493,8.493,0,0,0,8.35,8.611h201.8a8.492,8.492,0,0,0,8.35-8.611V206.477a8.493,8.493,0,0,0-8.35-8.612H-663.937a.71.71,0,0,0-.148-.043h-7.252c-.544,0-.984.642-.984,1.435s.44,1.436.984,1.436h7.252a.716.716,0,0,0,.148-.045h153.956a5.71,5.71,0,0,1,5.567,5.829v81.589a5.708,5.708,0,0,1-5.567,5.827h-201.8a5.707,5.707,0,0,1-5.567-5.827V206.477A5.709,5.709,0,0,1-711.784,200.649Z" transform="translate(741.358 -149.764)" fill="#262245"/>
          <path id="Path_551" data-name="Path 551" d="M-547.891,200.853a1.391,1.391,0,0,0-1.392,1.392v77.983a9.293,9.293,0,0,0-8.352,9.231,9.293,9.293,0,0,0,8.352,9.233v15.7a.6.6,0,0,0-.043.146v7.252c0,.544.643.984,1.435.984s1.435-.44,1.435-.984v-7.252a.678.678,0,0,0-.043-.146V298.552a9.294,9.294,0,0,0,7.422-9.092,9.293,9.293,0,0,0-7.422-9.091V202.245A1.392,1.392,0,0,0-547.891,200.853Zm6.03,88.607a6.5,6.5,0,0,1-6.5,6.5,6.5,6.5,0,0,1-6.5-6.5,6.5,6.5,0,0,1,6.5-6.5A6.5,6.5,0,0,1-541.861,289.46Z" transform="translate(805.016 -148.576)" fill="#262245"/>
          <path id="Path_552" data-name="Path 552" d="M-550.23,323.277a1.391,1.391,0,0,0,1.392-1.392V300.55a.7.7,0,0,0,.043-.149v-7.252c0-.544-.643-.984-1.435-.984s-1.435.44-1.435.984V300.4a.626.626,0,0,0,.043.149v21.335A1.39,1.39,0,0,0-550.23,323.277Z" transform="translate(807.354 -112.806)" fill="#262245"/>
          <path id="Path_553" data-name="Path 553" d="M-605.609,241.616a28.8,28.8,0,0,0-28.762-28.763,28.8,28.8,0,0,0-28.763,28.763,28.8,28.8,0,0,0,28.763,28.762A28.793,28.793,0,0,0-605.609,241.616Zm-54.741,0a26.009,26.009,0,0,1,25.98-25.98,26.008,26.008,0,0,1,25.978,25.98,26.007,26.007,0,0,1-25.978,25.978A26.008,26.008,0,0,1-660.351,241.616Z" transform="translate(763.687 -143.876)" fill="#262245"/>
          <path id="Path_554" data-name="Path 554" d="M-628.075,237.7a1.365,1.365,0,0,0,.287-.416,1.369,1.369,0,0,0,.123-.569v0a1.356,1.356,0,0,0-.123-.566,1.359,1.359,0,0,0-.282-.413,1.394,1.394,0,0,0-.313-.237l-17.2-9.933a1.389,1.389,0,0,0-1.392,0,1.392,1.392,0,0,0-.7,1.205v19.894a1.441,1.441,0,0,0,.046.359,1.4,1.4,0,0,0,.217.452,1.371,1.371,0,0,0,.44.4,1.412,1.412,0,0,0,.548.175,1.217,1.217,0,0,0,.142.007h.025a1.629,1.629,0,0,0,.86-.3l17.014-9.824A1.268,1.268,0,0,0-628.075,237.7Zm-16.818,6.551V229.175l13.052,7.535Z" transform="translate(769.743 -138.971)" fill="#262245"/>
          <path id="Path_555" data-name="Path 555" d="M-558.793,180.856a10.683,10.683,0,0,0-10.671-10.67,10.684,10.684,0,0,0-10.67,10.67,10.683,10.683,0,0,0,10.67,10.671A10.682,10.682,0,0,0-558.793,180.856Zm-18.557,0a7.9,7.9,0,0,1,7.887-7.887,7.9,7.9,0,0,1,7.887,7.887,7.9,7.9,0,0,1-7.887,7.887A7.9,7.9,0,0,1-577.35,180.856Z" transform="translate(796.202 -160.59)" fill="#262245"/>
          <path id="Path_556" data-name="Path 556" d="M-537.293,180.856a10.683,10.683,0,0,0-10.67-10.67,10.684,10.684,0,0,0-10.671,10.67,10.683,10.683,0,0,0,10.671,10.671A10.682,10.682,0,0,0-537.293,180.856Zm-18.557,0a7.9,7.9,0,0,1,7.887-7.887,7.9,7.9,0,0,1,7.887,7.887,7.9,7.9,0,0,1-7.887,7.887A7.9,7.9,0,0,1-555.851,180.856Z" transform="translate(804.624 -160.59)" fill="#262245"/>
          <path id="Path_557" data-name="Path 557" d="M-696.129,163.291c-.544,0-.984.642-.984,1.435s.44,1.435.984,1.435h7.252c.543,0,.984-.642.984-1.435s-.441-1.435-.984-1.435Z" transform="translate(750.376 -163.291)" fill="#262245"/>
          <path id="Path_558" data-name="Path 558" d="M-573.462,330.692h7.252c.543,0,.984-.642.984-1.436s-.441-1.435-.984-1.435h-7.252c-.544,0-.984.644-.984,1.435S-574.006,330.692-573.462,330.692Z" transform="translate(798.43 -98.838)" fill="#262245"/>
          <path id="Path_559" data-name="Path 559" d="M-526.769,395.145h7.252c.543,0,.984-.642.984-1.436s-.441-1.435-.984-1.435h-7.252a.793.793,0,0,0-.149.043H-726.7a5.707,5.707,0,0,1-5.9-5.482V202.346h273.477V386.835a5.707,5.707,0,0,1-5.9,5.482h-21.643a.767.767,0,0,0-.146-.043h-7.252c-.544,0-.984.644-.984,1.435s.44,1.436.984,1.436h7.252a.681.681,0,0,0,.146-.045h21.643a8.491,8.491,0,0,0,8.682-8.266V171.644a8.492,8.492,0,0,0-8.682-8.267H-656.887a.713.713,0,0,0-.3-.086h-7.252c-.544,0-.984.642-.984,1.435s.44,1.435.984,1.435h199.414a5.708,5.708,0,0,1,5.9,5.483v27.918H-732.6V171.644a5.709,5.709,0,0,1,5.9-5.483h36.525c.543,0,.984-.642.984-1.435s-.441-1.435-.984-1.435h-7.252a.708.708,0,0,0-.3.086H-726.7a8.491,8.491,0,0,0-8.68,8.267V386.835a8.49,8.49,0,0,0,8.68,8.266h199.786A.7.7,0,0,0-526.769,395.145Z" transform="translate(735.384 -163.291)" fill="#262245"/>
          <path id="Path_560" data-name="Path 560" d="M-595.812,277.343c0-.79-.285-1.279-.829-1.279l-25.893-.022c-2.337,0-4.1,2.878-4.1,6.694s1.762,6.7,4.1,6.7h80.18c2.335,0,4.1-2.878,4.1-6.7s-1.762-6.694-4.1-6.694l-45.681.022a1.217,1.217,0,0,0-1.138,1.279c0,.795.441,1.436.984,1.436h3.12c0,.015,0,.032-.006.046h42.721c.259,0,1.314,1.258,1.314,3.911s-1.055,3.912-1.314,3.912h-80.18c-.262,0-1.315-1.258-1.315-3.912s1.053-3.911,1.315-3.911H-599.3c0-.014,0-.031-.006-.046h2.511C-596.254,278.78-595.812,278.138-595.812,277.343Z" transform="translate(777.986 -119.122)" fill="#262245"/>
        </g>
        <g id="Group_882" data-name="Group 882" transform="translate(196.647 87.879)">
          <g id="Group_880" data-name="Group 880">
            <path id="Path_561" data-name="Path 561" d="M-573.073,154.185a1.3,1.3,0,0,1,.127,1.823h0a1.3,1.3,0,0,1-1.781.415l-18.427-13.617a1.3,1.3,0,0,1-.127-1.823h0a1.3,1.3,0,0,1,1.78-.415Z" transform="translate(594.284 -134.474)" fill="#262245"/>
            <path id="Path_562" data-name="Path 562" d="M-578,154.362a1.3,1.3,0,0,1,.88,1.6h0a1.3,1.3,0,0,1-1.442,1.125l-14.613-2.639a1.3,1.3,0,0,1-.881-1.6h0a1.3,1.3,0,0,1,1.443-1.123Z" transform="translate(594.088 -130.033)" fill="#262245"/>
            <path id="Path_563" data-name="Path 563" d="M-573.675,150.138a1.3,1.3,0,0,1-.775,1.655h0a1.3,1.3,0,0,1-1.759-.5l-6.484-13.358a1.3,1.3,0,0,1,.775-1.656h0a1.3,1.3,0,0,1,1.758.5Z" transform="translate(598.516 -136.132)" fill="#262245"/>
          </g>
          <g id="Group_881" data-name="Group 881" transform="translate(95.988 157.192)">
            <path id="Path_564" data-name="Path 564" d="M-522.321,255.059a1.3,1.3,0,0,1-.127-1.825h0a1.3,1.3,0,0,1,1.78-.415l18.427,13.618a1.3,1.3,0,0,1,.127,1.823h0a1.3,1.3,0,0,1-1.78.413Z" transform="translate(526.044 -247.693)" fill="#262245"/>
            <path id="Path_565" data-name="Path 565" d="M-518.508,251.826a1.3,1.3,0,0,1-.881-1.6h0a1.3,1.3,0,0,1,1.445-1.123l14.613,2.639a1.3,1.3,0,0,1,.88,1.6h0a1.3,1.3,0,0,1-1.443,1.123Z" transform="translate(527.35 -249.079)" fill="#262245"/>
            <path id="Path_566" data-name="Path 566" d="M-525.026,258.977a1.3,1.3,0,0,1,.775-1.656h0a1.3,1.3,0,0,1,1.758.5l6.484,13.358a1.3,1.3,0,0,1-.775,1.658h0a1.3,1.3,0,0,1-1.758-.5Z" transform="translate(525.118 -245.906)" fill="#262245"/>
          </g>
        </g>
      </g>
    </g>
  </g>
</svg>
