<svg xmlns="http://www.w3.org/2000/svg" width="278.5" height="278.453" viewBox="0 0 278.5 278.453">
  <g id="Group_1129" data-name="Group 1129" transform="translate(-18.234 -25.447)">
    <g id="Background_Simple" data-name="Background Simple" transform="translate(18.234 25.447)">
      <g id="Group_1058" data-name="Group 1058">
        <path id="Path_1002" data-name="Path 1002" d="M282.428,92.064c-15.911-31.75-46.113-53.748-78.682-62.082-31.069-7.952-68.472-7.56-91.859,18.624-15.4,17.241-21.566,41.243-35.157,59.861-6.755,9.253-15.209,13.487-24.059,19.963C31.1,144.216,15.236,169.619,18.713,198.35c5.813,48.037,47.759,73.836,89.916,76.734,55.711,3.829,95.443-3.953,129.192-26.484,17.528-11.7,35.011-25.588,45.712-44.807,16.182-29.066,15.518-65.718,5.049-96.927A113.774,113.774,0,0,0,282.428,92.064Z" transform="translate(-18.234 -25.447)" fill="#92e3a9"/>
        <path id="Path_1003" data-name="Path 1003" d="M282.428,92.064c-15.911-31.75-46.113-53.748-78.682-62.082-31.069-7.952-68.472-7.56-91.859,18.624-15.4,17.241-21.566,41.243-35.157,59.861-6.755,9.253-15.209,13.487-24.059,19.963C31.1,144.216,15.236,169.619,18.713,198.35c5.813,48.037,47.759,73.836,89.916,76.734,55.711,3.829,95.443-3.953,129.192-26.484,17.528-11.7,35.011-25.588,45.712-44.807,16.182-29.066,15.518-65.718,5.049-96.927A113.774,113.774,0,0,0,282.428,92.064Z" transform="translate(-18.234 -25.447)" fill="#b8eac4" opacity="0.8"/>
      </g>
    </g>
    <g id="Signs" transform="translate(98.773 39.925)">
      <g id="Group_1060" data-name="Group 1060">
        <g id="Group_1059" data-name="Group 1059" transform="translate(50.329)">
          <path id="Path_1004" data-name="Path 1004" d="M242.273,311.719h-5.722V51.557a2.927,2.927,0,0,1,2.861-2.989h0a2.927,2.927,0,0,1,2.861,2.989Z" transform="translate(-236.551 -48.568)" fill="#63b03c" stroke="#263238" stroke-linecap="round" stroke-linejoin="round" stroke-width="1"/>
        </g>
        <rect id="Rectangle_321" data-name="Rectangle 321" width="50.167" height="18.453" transform="translate(0 34.654)" fill="#263238" stroke="#263238" stroke-linecap="round" stroke-linejoin="round" stroke-width="1"/>
        <rect id="Rectangle_322" data-name="Rectangle 322" width="50.167" height="18.453" transform="translate(56.148 14.874)" fill="#263238" stroke="#263238" stroke-linecap="round" stroke-linejoin="round" stroke-width="1"/>
        <path id="Path_1005" data-name="Path 1005" d="M246.259,140.292l28.013,3.718V118.12l-28.013,3.718Z" transform="translate(-190.111 -74.566)" fill="#263238" stroke="#263238" stroke-linecap="round" stroke-linejoin="round" stroke-width="1"/>
        <path id="Path_1006" data-name="Path 1006" d="M270.813,135.331l-6.183-7.122v3.106l-12.912.531v6.766l12.912.67v3.106Z" transform="translate(-192.298 -78.338)" fill="#63b03c" stroke="#263238" stroke-linecap="round" stroke-linejoin="round" stroke-width="1"/>
        <path id="Path_1007" data-name="Path 1007" d="M294.025,81.482l-9.534-5.75v2.519H259.358v6.462h25.133v2.519Z" transform="translate(-195.358 -58.722)" fill="#63b03c" stroke="#263238" stroke-linecap="round" stroke-linejoin="round" stroke-width="1"/>
        <path id="Path_1008" data-name="Path 1008" d="M166.01,115.427l9.534-5.75V112.2h25.133v6.462H175.544v2.519Z" transform="translate(-157.967 -71.41)" fill="#63b03c" stroke="#263238" stroke-linecap="round" stroke-linejoin="round" stroke-width="1"/>
      </g>
    </g>
    <g id="Graphics" transform="translate(51.653 49.669)">
      <g id="Group_1061" data-name="Group 1061" transform="translate(157.462)">
        <ellipse id="Ellipse_39" data-name="Ellipse 39" cx="20.787" cy="21.715" rx="20.787" ry="21.715" fill="none" stroke="#263238" stroke-linecap="round" stroke-linejoin="round" stroke-width="1"/>
        <path id="Path_1009" data-name="Path 1009" d="M390.985,121.7a19.494,19.494,0,0,1-4.733,3.621" transform="translate(-356.528 -85.648)" fill="none" stroke="#263238" stroke-linecap="round" stroke-linejoin="round" stroke-width="1"/>
        <path id="Path_1010" data-name="Path 1010" d="M364.565,105.914a18.6,18.6,0,0,1-6.166,1.046c-10.7,0-19.371-9.06-19.371-20.236S347.7,66.489,358.4,66.489s19.371,9.06,19.371,20.236a20.825,20.825,0,0,1-2.719,10.345" transform="translate(-337.612 -65.01)" fill="none" stroke="#263238" stroke-linecap="round" stroke-linejoin="round" stroke-width="1"/>
        <ellipse id="Ellipse_40" data-name="Ellipse 40" cx="1.534" cy="1.602" rx="1.534" ry="1.602" transform="translate(19.253 20.113)" fill="#263238" stroke="#263238" stroke-linecap="round" stroke-linejoin="round" stroke-width="1"/>
        <path id="Path_1011" data-name="Path 1011" d="M373.55,102.3l-2.206-9,12.874-9.212" transform="translate(-350.556 -71.59)" fill="none" stroke="#263238" stroke-linecap="round" stroke-linejoin="round" stroke-width="1"/>
      </g>
      <g id="Group_1066" data-name="Group 1066" transform="translate(0 65.317)">
        <path id="Path_1012" data-name="Path 1012" d="M128.163,188.775v32.086H105.288" transform="translate(-86.523 -176.037)" fill="none" stroke="#263238" stroke-linecap="round" stroke-linejoin="round" stroke-width="1"/>
        <path id="Path_1013" data-name="Path 1013" d="M73.984,210.6V174.8h41.64v5.923" transform="translate(-73.984 -170.814)" fill="none" stroke="#263238" stroke-linecap="round" stroke-linejoin="round" stroke-width="1"/>
        <path id="Path_1014" data-name="Path 1014" d="M89.464,238.453H73.984v-2.616" transform="translate(-73.984 -193.628)" fill="none" stroke="#263238" stroke-linecap="round" stroke-linejoin="round" stroke-width="1"/>
        <g id="Group_1062" data-name="Group 1062" transform="translate(2.531 14.04)">
          <rect id="Rectangle_323" data-name="Rectangle 323" width="4.064" height="4.246" fill="none" stroke="#263238" stroke-linecap="round" stroke-linejoin="round" stroke-width="1"/>
          <rect id="Rectangle_324" data-name="Rectangle 324" width="4.064" height="4.246" transform="translate(5.419)" fill="none" stroke="#263238" stroke-linecap="round" stroke-linejoin="round" stroke-width="1"/>
          <rect id="Rectangle_325" data-name="Rectangle 325" width="4.064" height="4.246" transform="translate(10.838)" fill="none" stroke="#263238" stroke-linecap="round" stroke-linejoin="round" stroke-width="1"/>
          <rect id="Rectangle_326" data-name="Rectangle 326" width="4.064" height="4.246" transform="translate(16.257)" fill="none" stroke="#263238" stroke-linecap="round" stroke-linejoin="round" stroke-width="1"/>
          <rect id="Rectangle_327" data-name="Rectangle 327" width="4.064" height="4.246" transform="translate(21.676)" fill="none" stroke="#263238" stroke-linecap="round" stroke-linejoin="round" stroke-width="1"/>
          <rect id="Rectangle_328" data-name="Rectangle 328" width="4.064" height="4.246" transform="translate(27.094)" fill="none" stroke="#263238" stroke-linecap="round" stroke-linejoin="round" stroke-width="1"/>
          <rect id="Rectangle_329" data-name="Rectangle 329" width="4.064" height="4.246" transform="translate(32.513)" fill="none" stroke="#263238" stroke-linecap="round" stroke-linejoin="round" stroke-width="1"/>
        </g>
        <g id="Group_1063" data-name="Group 1063" transform="translate(2.531 20.74)">
          <rect id="Rectangle_330" data-name="Rectangle 330" width="4.064" height="4.246" fill="none" stroke="#263238" stroke-linecap="round" stroke-linejoin="round" stroke-width="1"/>
          <rect id="Rectangle_331" data-name="Rectangle 331" width="4.064" height="4.246" transform="translate(5.419)" fill="none" stroke="#263238" stroke-linecap="round" stroke-linejoin="round" stroke-width="1"/>
          <rect id="Rectangle_332" data-name="Rectangle 332" width="4.064" height="4.246" transform="translate(10.838)" fill="none" stroke="#263238" stroke-linecap="round" stroke-linejoin="round" stroke-width="1"/>
          <rect id="Rectangle_333" data-name="Rectangle 333" width="4.064" height="4.246" transform="translate(16.257)" fill="none" stroke="#263238" stroke-linecap="round" stroke-linejoin="round" stroke-width="1"/>
          <rect id="Rectangle_334" data-name="Rectangle 334" width="4.064" height="4.246" transform="translate(21.676)" fill="none" stroke="#263238" stroke-linecap="round" stroke-linejoin="round" stroke-width="1"/>
          <rect id="Rectangle_335" data-name="Rectangle 335" width="4.064" height="4.246" transform="translate(27.094)" fill="none" stroke="#263238" stroke-linecap="round" stroke-linejoin="round" stroke-width="1"/>
          <rect id="Rectangle_336" data-name="Rectangle 336" width="4.064" height="4.246" transform="translate(32.513)" fill="none" stroke="#263238" stroke-linecap="round" stroke-linejoin="round" stroke-width="1"/>
        </g>
        <g id="Group_1064" data-name="Group 1064" transform="translate(2.531 27.441)">
          <rect id="Rectangle_337" data-name="Rectangle 337" width="4.064" height="4.246" fill="none" stroke="#263238" stroke-linecap="round" stroke-linejoin="round" stroke-width="1"/>
          <rect id="Rectangle_338" data-name="Rectangle 338" width="4.064" height="4.246" transform="translate(5.419)" fill="none" stroke="#263238" stroke-linecap="round" stroke-linejoin="round" stroke-width="1"/>
          <rect id="Rectangle_339" data-name="Rectangle 339" width="4.064" height="4.246" transform="translate(10.838)" fill="none" stroke="#263238" stroke-linecap="round" stroke-linejoin="round" stroke-width="1"/>
          <rect id="Rectangle_340" data-name="Rectangle 340" width="4.064" height="4.246" transform="translate(16.257)" fill="none" stroke="#263238" stroke-linecap="round" stroke-linejoin="round" stroke-width="1"/>
          <rect id="Rectangle_341" data-name="Rectangle 341" width="4.064" height="4.246" transform="translate(21.676)" fill="none" stroke="#263238" stroke-linecap="round" stroke-linejoin="round" stroke-width="1"/>
          <rect id="Rectangle_342" data-name="Rectangle 342" width="4.064" height="4.246" transform="translate(27.094)" fill="none" stroke="#263238" stroke-linecap="round" stroke-linejoin="round" stroke-width="1"/>
          <rect id="Rectangle_343" data-name="Rectangle 343" width="4.064" height="4.246" transform="translate(32.513)" fill="none" stroke="#263238" stroke-linecap="round" stroke-linejoin="round" stroke-width="1"/>
        </g>
        <g id="Group_1065" data-name="Group 1065" transform="translate(2.531 34.141)">
          <rect id="Rectangle_344" data-name="Rectangle 344" width="4.064" height="4.246" fill="none" stroke="#263238" stroke-linecap="round" stroke-linejoin="round" stroke-width="1"/>
          <rect id="Rectangle_345" data-name="Rectangle 345" width="4.064" height="4.246" transform="translate(5.419)" fill="none" stroke="#263238" stroke-linecap="round" stroke-linejoin="round" stroke-width="1"/>
          <rect id="Rectangle_346" data-name="Rectangle 346" width="4.064" height="4.246" transform="translate(10.838)" fill="none" stroke="#263238" stroke-linecap="round" stroke-linejoin="round" stroke-width="1"/>
          <rect id="Rectangle_347" data-name="Rectangle 347" width="4.064" height="4.246" transform="translate(16.257)" fill="none" stroke="#263238" stroke-linecap="round" stroke-linejoin="round" stroke-width="1"/>
          <rect id="Rectangle_348" data-name="Rectangle 348" width="4.064" height="4.246" transform="translate(21.676)" fill="none" stroke="#263238" stroke-linecap="round" stroke-linejoin="round" stroke-width="1"/>
          <rect id="Rectangle_349" data-name="Rectangle 349" width="4.064" height="4.246" transform="translate(27.094)" fill="none" stroke="#263238" stroke-linecap="round" stroke-linejoin="round" stroke-width="1"/>
          <rect id="Rectangle_350" data-name="Rectangle 350" width="4.064" height="4.246" transform="translate(32.513)" fill="none" stroke="#263238" stroke-linecap="round" stroke-linejoin="round" stroke-width="1"/>
        </g>
        <path id="Path_1015" data-name="Path 1015" d="M85.074,175.3H83.28v-6.871h1.794Zm7.176-6.871H90.455V175.3h1.794Zm7.175,0H97.631V175.3h1.794Zm7.175,0h-1.794V175.3H106.6Zm7.175,0h-1.794V175.3h1.794Z" transform="translate(-77.708 -168.433)" fill="#263238" stroke="#263238" stroke-linecap="round" stroke-linejoin="round" stroke-width="1"/>
      </g>
      <g id="Group_1067" data-name="Group 1067" transform="translate(4.937 137.591)">
        <path id="Path_1016" data-name="Path 1016" d="M98.1,283.85c-8.772,0-15.882,7.428-15.882,16.591s7.111,16.591,15.882,16.591,15.882-7.428,15.882-16.591S106.875,283.85,98.1,283.85Zm0,27.088a10.506,10.506,0,1,1,10.048-10.5A10.279,10.279,0,0,1,98.1,310.938Z" transform="translate(-82.221 -283.85)" fill="#00b02b" stroke="#263238" stroke-linecap="round" stroke-linejoin="round" stroke-width="1"/>
        <path id="Path_1017" data-name="Path 1017" d="M109.257,283.864v6.1a10.289,10.289,0,0,1,9.724,10.479,10.7,10.7,0,0,1-2.9,7.371l4.583,3.812a16.946,16.946,0,0,0,4.15-11.183C124.815,291.4,117.878,284.045,109.257,283.864Z" transform="translate(-93.051 -283.855)" fill="#00b02b" stroke="#263238" stroke-linecap="round" stroke-linejoin="round" stroke-width="1"/>
        <line id="Line_40" data-name="Line 40" x2="11.344" transform="translate(10.048 15.914)" fill="none" stroke="#263238" stroke-linecap="round" stroke-linejoin="round" stroke-width="1"/>
        <line id="Line_41" data-name="Line 41" x2="11.344" transform="translate(10.048 18.962)" fill="none" stroke="#263238" stroke-linecap="round" stroke-linejoin="round" stroke-width="1"/>
      </g>
      <g id="Group_1068" data-name="Group 1068" transform="translate(152.582 76.158)">
        <line id="Line_42" data-name="Line 42" x2="30.9" transform="translate(12.315 3.546)" fill="none" stroke="#263238" stroke-linecap="round" stroke-linejoin="round" stroke-width="1"/>
        <line id="Line_43" data-name="Line 43" x2="3.182" transform="translate(0 3.546)" fill="none" stroke="#263238" stroke-linecap="round" stroke-linejoin="round" stroke-width="1"/>
        <line id="Line_44" data-name="Line 44" x2="20.61" transform="translate(22.605 8.667)" fill="none" stroke="#263238" stroke-linecap="round" stroke-linejoin="round" stroke-width="1"/>
        <line id="Line_45" data-name="Line 45" x2="3.433" transform="translate(0 8.667)" fill="none" stroke="#263238" stroke-linecap="round" stroke-linejoin="round" stroke-width="1"/>
        <line id="Line_46" data-name="Line 46" x2="10.696" transform="translate(32.518 13.789)" fill="none" stroke="#263238" stroke-linecap="round" stroke-linejoin="round" stroke-width="1"/>
        <line id="Line_47" data-name="Line 47" x2="3.182" transform="translate(0 13.789)" fill="none" stroke="#263238" stroke-linecap="round" stroke-linejoin="round" stroke-width="1"/>
        <line id="Line_48" data-name="Line 48" x2="1.912" transform="translate(41.303 18.91)" fill="none" stroke="#263238" stroke-linecap="round" stroke-linejoin="round" stroke-width="1"/>
        <line id="Line_49" data-name="Line 49" x2="3.182" transform="translate(0 18.91)" fill="none" stroke="#263238" stroke-linecap="round" stroke-linejoin="round" stroke-width="1"/>
        <line id="Line_50" data-name="Line 50" x2="1.912" transform="translate(41.303 24.87)" fill="none" stroke="#263238" stroke-linecap="round" stroke-linejoin="round" stroke-width="1"/>
        <line id="Line_51" data-name="Line 51" x2="3.182" transform="translate(0 24.87)" fill="none" stroke="#263238" stroke-linecap="round" stroke-linejoin="round" stroke-width="1"/>
        <line id="Line_52" data-name="Line 52" x2="1.912" transform="translate(41.303 30.83)" fill="none" stroke="#263238" stroke-linecap="round" stroke-linejoin="round" stroke-width="1"/>
        <line id="Line_53" data-name="Line 53" x2="3.182" transform="translate(0 30.83)" fill="none" stroke="#263238" stroke-linecap="round" stroke-linejoin="round" stroke-width="1"/>
        <rect id="Rectangle_351" data-name="Rectangle 351" width="7.165" height="31.376" transform="translate(3.994)" fill="#00b02b" stroke="#263238" stroke-linecap="round" stroke-linejoin="round" stroke-width="1"/>
        <rect id="Rectangle_352" data-name="Rectangle 352" width="7.165" height="25.466" transform="translate(13.799 5.909)" fill="#00b02b" stroke="#263238" stroke-linecap="round" stroke-linejoin="round" stroke-width="1"/>
        <rect id="Rectangle_353" data-name="Rectangle 353" width="7.165" height="19.951" transform="translate(23.604 11.425)" fill="#00b02b" stroke="#263238" stroke-linecap="round" stroke-linejoin="round" stroke-width="1"/>
        <rect id="Rectangle_354" data-name="Rectangle 354" width="7.165" height="12.859" transform="translate(33.409 18.516)" fill="#00b02b" stroke="#263238" stroke-linecap="round" stroke-linejoin="round" stroke-width="1"/>
      </g>
      <g id="Group_1069" data-name="Group 1069" transform="translate(3.22 2.147)">
        <path id="Path_1018" data-name="Path 1018" d="M107.472,71.2a17.032,17.032,0,0,0-10.516-3.642c-9.72,0-17.6,8.231-17.6,18.385s7.88,18.385,17.6,18.385,17.6-8.231,17.6-18.385a18.774,18.774,0,0,0-4.718-12.528" transform="translate(-79.356 -67.556)" fill="#00b02b" stroke="#263238" stroke-linecap="round" stroke-linejoin="round" stroke-width="1"/>
        <path id="Path_1019" data-name="Path 1019" d="M92.7,98.128a11.3,11.3,0,0,0,8.291,3.658A12.093,12.093,0,1,0,89.423,89.7a12.412,12.412,0,0,0,1.908,6.65" transform="translate(-83.388 -71.319)" fill="#00b02b" stroke="#263238" stroke-linecap="round" stroke-linejoin="round" stroke-width="1"/>
        <ellipse id="Ellipse_41" data-name="Ellipse 41" cx="6.034" cy="6.304" rx="6.034" ry="6.304" transform="translate(11.566 12.082)" fill="#00b02b" stroke="#263238" stroke-linecap="round" stroke-linejoin="round" stroke-width="1"/>
      </g>
      <g id="Group_1071" data-name="Group 1071" transform="translate(150.224 138.823)">
        <g id="Group_1070" data-name="Group 1070" transform="translate(19.823 5.784)">
          <path id="Path_1020" data-name="Path 1020" d="M361.992,296.387c1.937.286,2.826,1.858,2.826,4.1v.453h-1.664v-.572c0-1.477-.569-2.382-1.847-2.382-1.253,0-1.823.9-1.823,2.382,0,3.739,5.357,3.763,5.357,8.454,0,2.239-.912,3.835-2.849,4.12V314.2h-1.46V312.94c-1.984-.286-2.873-1.858-2.873-4.12V307.8h1.665v1.143c0,1.5.592,2.358,1.869,2.358,1.3,0,1.87-.857,1.87-2.358,0-3.715-5.335-3.763-5.335-8.455,0-2.286.89-3.787,2.8-4.1v-1.333h1.46Z" transform="translate(-357.66 -295.054)" fill="#263238"/>
        </g>
        <path id="Path_1021" data-name="Path 1021" d="M373.381,331.7a14.559,14.559,0,0,0,3.146-1.94" transform="translate(-344.135 -302.245)" fill="none" stroke="#263238" stroke-linecap="round" stroke-linejoin="round" stroke-width="1"/>
        <path id="Path_1022" data-name="Path 1022" d="M348.626,287.395a15.355,15.355,0,0,0-9.5,14.37c0,8.482,6.582,15.358,14.7,15.358a14.169,14.169,0,0,0,2.979-.315" transform="translate(-330.413 -286.407)" fill="none" stroke="#263238" stroke-linecap="round" stroke-linejoin="round" stroke-width="1"/>
        <path id="Path_1023" data-name="Path 1023" d="M372.069,311.562a15.685,15.685,0,0,0,3.872-10.387c0-8.483-6.582-15.358-14.7-15.358a14.137,14.137,0,0,0-3.609.466" transform="translate(-337.825 -285.817)" fill="none" stroke="#263238" stroke-linecap="round" stroke-linejoin="round" stroke-width="1"/>
        <path id="Path_1080" data-name="Path 1080" d="M16.884,4.173A11.7,11.7,0,0,1,28.918,16.248,12.991,12.991,0,0,1,16.347,28.86,11.7,11.7,0,0,1,4.313,16.785,12.991,12.991,0,0,1,16.884,4.173Z" transform="matrix(0.734, -0.68, 0.68, 0.734, 0, 14.533)" fill="none" stroke="#263238" stroke-linecap="round" stroke-width="1"/>
      </g>
    </g>
    <g id="Character" transform="translate(113.842 118.869)">
      <g id="Group_1073" data-name="Group 1073">
        <path id="Path_1024" data-name="Path 1024" d="M263.5,227.444s.147-.017.412-.051c1.737-.224,8.55-1.178,12.451-2.789,4.5-1.857,14.746-.874,14.746-.874l4.5,3.387-5.125,3.5s-7.216-2.513-12.236-2.294-7.426,1.748-10.563,1.53-7.007-2.4-7.007-2.4Z" transform="translate(-210.955 -192.889)" fill="#263238" stroke="#263238" stroke-linecap="round" stroke-linejoin="round" stroke-width="1"/>
        <path id="Path_1025" data-name="Path 1025" d="M233.329,212.177v7.031h11.09v-8.141Z" transform="translate(-200.001 -188.253)" fill="#fff" stroke="#263238" stroke-linecap="round" stroke-linejoin="round" stroke-width="1"/>
        <path id="Path_1026" data-name="Path 1026" d="M226.986,201.632s-2.627-1.83-1.752,1.373,1.752,4.422,3.065,4.269,2.044-.61,1.606-1.83S226.986,201.632,226.986,201.632Z" transform="translate(-196.687 -184.532)" fill="#fff" stroke="#263238" stroke-linecap="round" stroke-linejoin="round" stroke-width="1"/>
        <path id="Path_1027" data-name="Path 1027" d="M255.516,201.632s2.628-1.83,1.752,1.373-1.752,4.422-3.066,4.269-2.043-.61-1.606-1.83S255.516,201.632,255.516,201.632Z" transform="translate(-207.668 -184.532)" fill="#fff" stroke="#263238" stroke-linecap="round" stroke-linejoin="round" stroke-width="1"/>
        <path id="Path_1028" data-name="Path 1028" d="M233.43,177.1a10.222,10.222,0,0,0-5.839,5.794c-1.46,4.269-.146,9.454.584,11.589s4.233,6.252,4.233,6.252h7.882a23.626,23.626,0,0,0,4.525-6.709,28.084,28.084,0,0,0,1.606-9.149s1.313.458,1.313-1.372-4.087-5.337-4.087-5.337,1.9-.762.584-1.83-5.985-.61-5.985-.61S237.663,172.522,233.43,177.1Z" transform="translate(-197.438 -174.635)" fill="#263238" stroke="#263238" stroke-linecap="round" stroke-linejoin="round" stroke-width="1"/>
        <path id="Path_1029" data-name="Path 1029" d="M260.139,458.317l1.2.783a3.276,3.276,0,0,1,2.1.783c.749.783.471,4.673.471,4.673s-.6.461-3.446.461-9.118.727-9.718-.369.1-5.7.1-5.7Z" transform="translate(-206.88 -280.674)" fill="#858585" stroke="#263238" stroke-linecap="round" stroke-linejoin="round" stroke-width="1"/>
        <g id="Group_1072" data-name="Group 1072" transform="translate(17.55 76.425)">
          <path id="Path_1030" data-name="Path 1030" d="M209.9,299.427s-.9,6.888-.9,8.3-.3,13.62-.3,13.62.15,32.093.15,32.719-2.548,9.393-1.648,15.342,2.7,28.805,2.7,28.805-.6,5.01-.15,5.479,5.994,1.1,7.193.47.45-6.732.45-6.732a21.033,21.033,0,0,0,.749-4.54v-5.01c0-1.565.749-15.5,1.5-20.978s1.2-12.837,1.2-12.837l3.147-33.815,2.4-.157s3,36.32,3.147,38.981-.45,7.984.9,14.09,2.1,22.7,2.1,22.7a5.158,5.158,0,0,0,0,2.192c.3.626,1.049,2.5,1.049,2.5a16.592,16.592,0,0,0,3.148,0,11.22,11.22,0,0,0,4.82-1.371,3.486,3.486,0,0,0,.971-3.887,11.076,11.076,0,0,0-1.3-2.726s1.349-19.725,1.349-24.578-.749-10.8-.749-11.272.9-35.694.9-39.294-.3-13.307-1.8-17.534-25.476-3.131-27.874-2.974A3.733,3.733,0,0,0,209.9,299.427Z" transform="translate(-207.008 -296.68)" fill="#263238" stroke="#263238" stroke-linecap="round" stroke-linejoin="round" stroke-width="1"/>
          <line id="Line_54" data-name="Line 54" y1="0.626" x2="12.888" transform="translate(11.732 22.706)" fill="none" stroke="#757575" stroke-linecap="round" stroke-linejoin="round" stroke-width="1"/>
        </g>
        <path id="Path_1031" data-name="Path 1031" d="M216.037,223.567l-8.092,2.035s-11.689,5.949-14.237,7.514-12.588,22.7-12.139,23.8,2.4,2.5,4.346,2.818S197.754,248.3,197.754,248.3s2.847,14.716,2.847,15.342-1.648,8.141-.9,9.393,29.522,0,29.522,0a2.225,2.225,0,0,0,2.4-1.879c.3-2.035-.6-7.984-.6-7.984l3.3-18s6.3,9.979,7.71,11.585c2.454,2.792,5.5,1.622,7.126-.47,1.418-1.822.15-5.323-.3-6.419s-8.392-19.725-10.79-20.508-12.438-4.54-12.438-4.54Z" transform="translate(-179.262 -192.926)" fill="#00b02b" stroke="#263238" stroke-linecap="round" stroke-linejoin="round" stroke-width="1"/>
        <path id="Path_1032" data-name="Path 1032" d="M225.579,224.073s9.9-.214,11.553-.214,7.666-.054,7.666-.054l-1.522-3.39a30.466,30.466,0,0,0-7.943-.939,23.118,23.118,0,0,0-8.392,1.566Z" transform="translate(-196.897 -191.396)" fill="#fff" stroke="#263238" stroke-linecap="round" stroke-linejoin="round" stroke-width="1"/>
        <path id="Path_1033" data-name="Path 1033" d="M202.027,249.885l3.048,8.255-5.245-5.479" transform="translate(-186.582 -202.763)" fill="none" stroke="#263238" stroke-linecap="round" stroke-linejoin="round" stroke-width="1"/>
        <line id="Line_55" data-name="Line 55" x2="0.364" y2="0.985" transform="translate(14.446 44.418)" fill="none" stroke="#263238" stroke-linecap="round" stroke-linejoin="round" stroke-width="1"/>
        <path id="Path_1034" data-name="Path 1034" d="M228.909,285.388a15.068,15.068,0,0,1-1.58,1.208" transform="translate(-197.598 -216.034)" fill="none" stroke="#263238" stroke-linecap="round" stroke-linejoin="round" stroke-width="1"/>
        <path id="Path_1035" data-name="Path 1035" d="M244.264,247.567s-5.479,15.648-12.817,22.86" transform="translate(-199.247 -201.897)" fill="none" stroke="#263238" stroke-linecap="round" stroke-linejoin="round" stroke-width="1"/>
        <path id="Path_1036" data-name="Path 1036" d="M273.026,243.817l-3.447,8.923,5.545-6.262" transform="translate(-214.521 -200.495)" fill="none" stroke="#263238" stroke-linecap="round" stroke-linejoin="round" stroke-width="1"/>
        <path id="Path_1037" data-name="Path 1037" d="M179.329,282.319a13.963,13.963,0,0,0,4.346,6.262c3.3,2.661,12.139,11.428,12.139,11.428a3.688,3.688,0,0,0,0,1.409c.15.783,2.548,2.818,2.548,2.818v-1.566l.6-1.252.6-1.565a17.353,17.353,0,0,0,1.948-.939,3.143,3.143,0,0,0,.749-.783,18.667,18.667,0,0,0,2.7.313c1.049,0,2.548-1.1,1.648-1.409s-1.8,0-3-.626-1.8-1.252-3-1.252h-3.147l-8.242-14.09Z" transform="translate(-178.371 -214.419)" fill="#fff" stroke="#263238" stroke-linecap="round" stroke-linejoin="round" stroke-width="1"/>
        <path id="Path_1038" data-name="Path 1038" d="M182.236,267.7a7.941,7.941,0,0,0-2.2,1.012c-.45.47-2.7,4.07-2.248,5.949s1.049,4.54,4.945,5.323,5.994-.939,6.294-1.409,1.039-6.008.439-6.008-2.238,2.095-2.238,2.095-4.464-1.056-5.363-1.839S182.236,267.7,182.236,267.7Z" transform="translate(-177.73 -209.423)" fill="#fff" stroke="#263238" stroke-linecap="round" stroke-linejoin="round" stroke-width="1"/>
        <path id="Path_1039" data-name="Path 1039" d="M281.531,282.319a13.963,13.963,0,0,1-4.346,6.262c-3.3,2.661-12.139,11.428-12.139,11.428a3.688,3.688,0,0,1,0,1.409c-.15.783-3.452,3.191-3.452,3.191v-2.282l-.23-1.442-.065-1.033a17.353,17.353,0,0,1-1.948-.939,3.143,3.143,0,0,1-.749-.783,18.667,18.667,0,0,1-2.7.313c-1.049,0-2.548-1.1-1.648-1.409s1.8,0,3-.626,1.8-1.252,3-1.252H263.4l8.242-14.09Z" transform="translate(-208.273 -214.419)" fill="#fff" stroke="#263238" stroke-linecap="round" stroke-linejoin="round" stroke-width="1"/>
        <path id="Path_1040" data-name="Path 1040" d="M289.873,268.9s1.124-.226,1.574.244,2.7,4.07,2.248,5.949-1.049,4.54-4.945,5.323-5.994-.939-6.294-1.409-.542-5.8-.15-5.323a6.237,6.237,0,0,0,1.948,1.409s4.646-.247,5.375-2.991A14.31,14.31,0,0,0,289.873,268.9Z" transform="translate(-219.537 -209.849)" fill="#fff" stroke="#263238" stroke-linecap="round" stroke-linejoin="round" stroke-width="1"/>
        <path id="Path_1041" data-name="Path 1041" d="M218.714,464.72c.947-.494.679-4.4.525-6.025a10.76,10.76,0,0,1-3.372,1.016,6.107,6.107,0,0,1-4.2-.939s-.481,5.415-.074,5.925C212.038,465.25,217.515,465.346,218.714,464.72Z" transform="translate(-191.23 -280.816)" fill="#858585" stroke="#263238" stroke-linecap="round" stroke-linejoin="round" stroke-width="1"/>
      </g>
    </g>
    <g id="Plants" transform="translate(32.48 256.479)">
      <g id="Group_1086" data-name="Group 1086" transform="translate(205.659 3.514)">
        <g id="Group_1085" data-name="Group 1085">
          <g id="Group_1084" data-name="Group 1084">
            <g id="Group_1074" data-name="Group 1074" transform="translate(9.294 10.615)">
              <path id="Path_1042" data-name="Path 1042" d="M400.829,449.751a.244.244,0,0,1-.238-.249V417.2a.238.238,0,1,1,.476,0v32.3A.244.244,0,0,1,400.829,449.751Z" transform="translate(-400.591 -416.952)" fill="#00b02b"/>
            </g>
            <g id="Group_1075" data-name="Group 1075" transform="translate(0 35.394)">
              <path id="Path_1043" data-name="Path 1043" d="M394.386,461.378a9.863,9.863,0,0,0-9.3-4.857S386.946,463.564,394.386,461.378Z" transform="translate(-385.086 -456.521)" fill="#00b02b"/>
            </g>
            <g id="Group_1076" data-name="Group 1076" transform="translate(9.532 35.394)">
              <path id="Path_1044" data-name="Path 1044" d="M400.988,461.378a9.865,9.865,0,0,1,9.3-4.857S408.428,463.564,400.988,461.378Z" transform="translate(-400.988 -456.521)" fill="#00b02b"/>
            </g>
            <g id="Group_1077" data-name="Group 1077" transform="translate(0 26.65)">
              <path id="Path_1045" data-name="Path 1045" d="M394.386,447.415a9.863,9.863,0,0,0-9.3-4.857S386.946,449.6,394.386,447.415Z" transform="translate(-385.086 -442.558)" fill="#00b02b"/>
            </g>
            <g id="Group_1078" data-name="Group 1078" transform="translate(9.532 26.65)">
              <path id="Path_1046" data-name="Path 1046" d="M400.988,447.415a9.865,9.865,0,0,1,9.3-4.857S408.428,449.6,400.988,447.415Z" transform="translate(-400.988 -442.558)" fill="#00b02b"/>
            </g>
            <g id="Group_1079" data-name="Group 1079" transform="translate(0 17.907)">
              <path id="Path_1047" data-name="Path 1047" d="M394.386,433.453a9.863,9.863,0,0,0-9.3-4.857S386.946,435.64,394.386,433.453Z" transform="translate(-385.086 -428.596)" fill="#00b02b"/>
            </g>
            <g id="Group_1080" data-name="Group 1080" transform="translate(9.532 17.907)">
              <path id="Path_1048" data-name="Path 1048" d="M400.988,433.453a9.865,9.865,0,0,1,9.3-4.857S408.428,435.64,400.988,433.453Z" transform="translate(-400.988 -428.596)" fill="#00b02b"/>
            </g>
            <g id="Group_1081" data-name="Group 1081" transform="translate(0 9.164)">
              <path id="Path_1049" data-name="Path 1049" d="M394.386,419.491a9.865,9.865,0,0,0-9.3-4.857S386.946,421.677,394.386,419.491Z" transform="translate(-385.086 -414.634)" fill="#00b02b"/>
            </g>
            <g id="Group_1082" data-name="Group 1082" transform="translate(9.532 9.164)">
              <path id="Path_1050" data-name="Path 1050" d="M400.988,419.491a9.866,9.866,0,0,1,9.3-4.857S408.428,421.677,400.988,419.491Z" transform="translate(-400.988 -414.634)" fill="#00b02b"/>
            </g>
            <g id="Group_1083" data-name="Group 1083" transform="translate(7.574)">
              <path id="Path_1051" data-name="Path 1051" d="M399.679,410.864a11.3,11.3,0,0,1-1.955-5.114A15.126,15.126,0,0,1,399.2,400S404.9,404.913,399.679,410.864Z" transform="translate(-397.72 -400)" fill="#00b02b"/>
            </g>
          </g>
        </g>
      </g>
      <g id="Group_1099" data-name="Group 1099" transform="translate(0)">
        <g id="Group_1098" data-name="Group 1098">
          <g id="Group_1097" data-name="Group 1097">
            <g id="Group_1087" data-name="Group 1087" transform="translate(10.047 11.474)">
              <path id="Path_1052" data-name="Path 1052" d="M59.017,448.165a.263.263,0,0,1-.257-.269V412.98a.257.257,0,1,1,.514,0V447.9A.263.263,0,0,1,59.017,448.165Z" transform="translate(-58.76 -412.711)" fill="#00b02b"/>
            </g>
            <g id="Group_1088" data-name="Group 1088" transform="translate(0 38.258)">
              <path id="Path_1053" data-name="Path 1053" d="M52.053,460.735a14.66,14.66,0,0,0-4.021-3.938C45.77,455.484,42,455.484,42,455.484S44.011,463.1,52.053,460.735Z" transform="translate(-42 -455.484)" fill="#00b02b"/>
            </g>
            <g id="Group_1089" data-name="Group 1089" transform="translate(10.304 38.258)">
              <path id="Path_1054" data-name="Path 1054" d="M59.189,460.735A14.66,14.66,0,0,1,63.21,456.8c2.262-1.312,6.032-1.312,6.032-1.312S67.231,463.1,59.189,460.735Z" transform="translate(-59.189 -455.484)" fill="#00b02b"/>
            </g>
            <g id="Group_1090" data-name="Group 1090" transform="translate(0 28.807)">
              <path id="Path_1055" data-name="Path 1055" d="M52.053,445.642a14.669,14.669,0,0,0-4.021-3.938C45.77,440.391,42,440.391,42,440.391S44.011,448,52.053,445.642Z" transform="translate(-42 -440.391)" fill="#00b02b"/>
            </g>
            <g id="Group_1091" data-name="Group 1091" transform="translate(10.304 28.807)">
              <path id="Path_1056" data-name="Path 1056" d="M59.189,445.642A14.669,14.669,0,0,1,63.21,441.7c2.262-1.313,6.032-1.313,6.032-1.313S67.231,448,59.189,445.642Z" transform="translate(-59.189 -440.391)" fill="#00b02b"/>
            </g>
            <g id="Group_1092" data-name="Group 1092" transform="translate(0 19.356)">
              <path id="Path_1057" data-name="Path 1057" d="M52.053,430.549a14.662,14.662,0,0,0-4.021-3.938C45.77,425.3,42,425.3,42,425.3S44.011,432.912,52.053,430.549Z" transform="translate(-42 -425.298)" fill="#00b02b"/>
            </g>
            <g id="Group_1093" data-name="Group 1093" transform="translate(10.304 19.356)">
              <path id="Path_1058" data-name="Path 1058" d="M59.189,430.549a14.662,14.662,0,0,1,4.021-3.938c2.262-1.313,6.032-1.313,6.032-1.313S67.231,432.912,59.189,430.549Z" transform="translate(-59.189 -425.298)" fill="#00b02b"/>
            </g>
            <g id="Group_1094" data-name="Group 1094" transform="translate(0 9.905)">
              <path id="Path_1059" data-name="Path 1059" d="M52.053,415.457a14.66,14.66,0,0,0-4.021-3.938C45.77,410.206,42,410.206,42,410.206S44.011,417.819,52.053,415.457Z" transform="translate(-42 -410.206)" fill="#00b02b"/>
            </g>
            <g id="Group_1095" data-name="Group 1095" transform="translate(10.304 9.905)">
              <path id="Path_1060" data-name="Path 1060" d="M59.189,415.457a14.661,14.661,0,0,1,4.021-3.938c2.262-1.312,6.032-1.312,6.032-1.312S67.231,417.819,59.189,415.457Z" transform="translate(-59.189 -410.206)" fill="#00b02b"/>
            </g>
            <g id="Group_1096" data-name="Group 1096" transform="translate(8.186)">
              <path id="Path_1061" data-name="Path 1061" d="M57.774,406.131a12.21,12.21,0,0,1-2.113-5.528c-.1-2.7,1.6-6.215,1.6-6.215S63.42,399.7,57.774,406.131Z" transform="translate(-55.657 -394.388)" fill="#00b02b"/>
            </g>
          </g>
        </g>
      </g>
      <g id="Group_1108" data-name="Group 1108" transform="translate(21.341 19.149)">
        <g id="Group_1107" data-name="Group 1107">
          <g id="Group_1106" data-name="Group 1106">
            <g id="Group_1100" data-name="Group 1100" transform="translate(10.047 11.474)">
              <path id="Path_1062" data-name="Path 1062" d="M94.875,459.442V443.559a.257.257,0,1,0-.514,0v15.883Z" transform="translate(-94.361 -443.29)" fill="#00b02b"/>
            </g>
            <g id="Group_1101" data-name="Group 1101" transform="translate(0 19.356)">
              <path id="Path_1063" data-name="Path 1063" d="M87.654,461.128a14.662,14.662,0,0,0-4.021-3.938c-2.262-1.313-6.032-1.313-6.032-1.313S79.612,463.49,87.654,461.128Z" transform="translate(-77.601 -455.877)" fill="#00b02b"/>
            </g>
            <g id="Group_1102" data-name="Group 1102" transform="translate(10.304 19.356)">
              <path id="Path_1064" data-name="Path 1064" d="M94.79,461.128a14.662,14.662,0,0,1,4.021-3.938c2.262-1.313,6.032-1.313,6.032-1.313S102.832,463.49,94.79,461.128Z" transform="translate(-94.79 -455.877)" fill="#00b02b"/>
            </g>
            <g id="Group_1103" data-name="Group 1103" transform="translate(0 9.905)">
              <path id="Path_1065" data-name="Path 1065" d="M87.654,446.036a14.66,14.66,0,0,0-4.021-3.938c-2.262-1.313-6.032-1.313-6.032-1.313S79.612,448.4,87.654,446.036Z" transform="translate(-77.601 -440.785)" fill="#00b02b"/>
            </g>
            <g id="Group_1104" data-name="Group 1104" transform="translate(10.304 9.905)">
              <path id="Path_1066" data-name="Path 1066" d="M94.79,446.036a14.66,14.66,0,0,1,4.021-3.938c2.262-1.313,6.032-1.313,6.032-1.313S102.832,448.4,94.79,446.036Z" transform="translate(-94.79 -440.785)" fill="#00b02b"/>
            </g>
            <g id="Group_1105" data-name="Group 1105" transform="translate(8.186)">
              <path id="Path_1067" data-name="Path 1067" d="M93.375,436.71a12.21,12.21,0,0,1-2.113-5.527c-.1-2.7,1.6-6.215,1.6-6.215S99.021,430.277,93.375,436.71Z" transform="translate(-91.258 -424.967)" fill="#00b02b"/>
            </g>
          </g>
        </g>
      </g>
      <g id="Group_1117" data-name="Group 1117" transform="translate(185.004 21.229)">
        <g id="Group_1116" data-name="Group 1116">
          <g id="Group_1115" data-name="Group 1115">
            <g id="Group_1109" data-name="Group 1109" transform="translate(9.294 10.615)">
              <path id="Path_1068" data-name="Path 1068" d="M366.609,460.182V445.489a.238.238,0,1,0-.476,0v14.694Z" transform="translate(-366.133 -445.24)" fill="#00b02b"/>
            </g>
            <g id="Group_1110" data-name="Group 1110" transform="translate(0 17.907)">
              <path id="Path_1069" data-name="Path 1069" d="M359.928,461.742a9.865,9.865,0,0,0-9.3-4.857S352.488,463.928,359.928,461.742Z" transform="translate(-350.628 -456.885)" fill="#00b02b"/>
            </g>
            <g id="Group_1111" data-name="Group 1111" transform="translate(9.532 17.907)">
              <path id="Path_1070" data-name="Path 1070" d="M366.53,461.742a9.864,9.864,0,0,1,9.3-4.857S373.97,463.928,366.53,461.742Z" transform="translate(-366.53 -456.885)" fill="#00b02b"/>
            </g>
            <g id="Group_1112" data-name="Group 1112" transform="translate(0 9.163)">
              <path id="Path_1071" data-name="Path 1071" d="M359.928,447.779a9.868,9.868,0,0,0-9.3-4.857S352.488,449.966,359.928,447.779Z" transform="translate(-350.628 -442.922)" fill="#00b02b"/>
            </g>
            <g id="Group_1113" data-name="Group 1113" transform="translate(9.532 9.163)">
              <path id="Path_1072" data-name="Path 1072" d="M366.53,447.779a9.866,9.866,0,0,1,9.3-4.857S373.97,449.966,366.53,447.779Z" transform="translate(-366.53 -442.922)" fill="#00b02b"/>
            </g>
            <g id="Group_1114" data-name="Group 1114" transform="translate(7.574)">
              <path id="Path_1073" data-name="Path 1073" d="M365.221,439.152a11.3,11.3,0,0,1-1.955-5.114,15.126,15.126,0,0,1,1.479-5.75S370.444,433.2,365.221,439.152Z" transform="translate(-363.262 -428.289)" fill="#00b02b"/>
            </g>
          </g>
        </g>
      </g>
      <g id="Group_1126" data-name="Group 1126" transform="translate(225.491 21.229)">
        <g id="Group_1125" data-name="Group 1125">
          <g id="Group_1124" data-name="Group 1124">
            <g id="Group_1118" data-name="Group 1118" transform="translate(9.294 10.615)">
              <path id="Path_1074" data-name="Path 1074" d="M434.15,460.182V445.489a.238.238,0,1,0-.476,0v14.694Z" transform="translate(-433.674 -445.24)" fill="#00b02b"/>
            </g>
            <g id="Group_1119" data-name="Group 1119" transform="translate(0 17.907)">
              <path id="Path_1075" data-name="Path 1075" d="M427.47,461.742a9.865,9.865,0,0,0-9.3-4.857S420.029,463.928,427.47,461.742Z" transform="translate(-418.17 -456.885)" fill="#00b02b"/>
            </g>
            <g id="Group_1120" data-name="Group 1120" transform="translate(9.532 17.907)">
              <path id="Path_1076" data-name="Path 1076" d="M434.071,461.742a9.865,9.865,0,0,1,9.3-4.857S441.511,463.928,434.071,461.742Z" transform="translate(-434.071 -456.885)" fill="#00b02b"/>
            </g>
            <g id="Group_1121" data-name="Group 1121" transform="translate(0 9.163)">
              <path id="Path_1077" data-name="Path 1077" d="M427.47,447.779a9.868,9.868,0,0,0-9.3-4.857S420.029,449.966,427.47,447.779Z" transform="translate(-418.17 -442.922)" fill="#00b02b"/>
            </g>
            <g id="Group_1122" data-name="Group 1122" transform="translate(9.532 9.163)">
              <path id="Path_1078" data-name="Path 1078" d="M434.071,447.779a9.868,9.868,0,0,1,9.3-4.857S441.511,449.966,434.071,447.779Z" transform="translate(-434.071 -442.922)" fill="#00b02b"/>
            </g>
            <g id="Group_1123" data-name="Group 1123" transform="translate(7.573)">
              <path id="Path_1079" data-name="Path 1079" d="M432.762,439.152a11.3,11.3,0,0,1-1.954-5.114,15.118,15.118,0,0,1,1.479-5.75S437.985,433.2,432.762,439.152Z" transform="translate(-430.804 -428.289)" fill="#00b02b"/>
            </g>
          </g>
        </g>
      </g>
    </g>
    <g id="Floor" transform="translate(31.281 303.201)">
      <g id="Group_1127" data-name="Group 1127">
        <line id="Line_56" data-name="Line 56" x2="4.052" transform="translate(260.9)" fill="none" stroke="#263238" stroke-linecap="round" stroke-linejoin="round" stroke-width="1"/>
        <line id="Line_57" data-name="Line 57" x2="208.68" transform="translate(46.689)" fill="none" stroke="#263238" stroke-linecap="round" stroke-linejoin="round" stroke-width="1"/>
        <line id="Line_58" data-name="Line 58" x2="41.158" fill="none" stroke="#263238" stroke-linecap="round" stroke-linejoin="round" stroke-width="1"/>
      </g>
    </g>
  </g>
</svg>
