<svg xmlns="http://www.w3.org/2000/svg" width="278" height="278" viewBox="0 0 278 278">
  <g id="Group_1022" data-name="Group 1022" transform="translate(-418.637 -368.451)">
    <g id="shadow" transform="translate(428.684 642.933)">
      <path id="Path_853" data-name="Path 853" d="M736.49,2052.64H482.9a1.759,1.759,0,0,1-1.759-1.759h0a1.759,1.759,0,0,1,1.759-1.759H736.49a1.759,1.759,0,0,1,1.759,1.759h0A1.758,1.758,0,0,1,736.49,2052.64Z" transform="translate(-481.141 -2049.122)"/>
    </g>
    <g id="elements" transform="translate(418.637 368.451)">
      <g id="cloud" transform="translate(0 0)">
        <g id="Group_996" data-name="Group 996" transform="translate(0 72.988)">
          <path id="Path_854" data-name="Path 854" d="M431.392,852.192c.013-.165.021-.332.021-.5a6.388,6.388,0,1,0-12.776,0c0,.169.009.335.021.5Z" transform="translate(-418.637 -841.644)" fill="#80b2ff"/>
          <path id="Path_855" data-name="Path 855" d="M561.952,852.192c.013-.165.021-.332.021-.5a6.388,6.388,0,1,0-12.776,0c0,.169.008.335.021.5Z" transform="translate(-528.211 -841.644)" fill="#80b2ff"/>
          <path id="Path_856" data-name="Path 856" d="M615.338,861.961a4.517,4.517,0,1,0-8.978,0Z" transform="translate(-576.162 -851.413)" fill="#80b2ff"/>
          <path id="Path_857" data-name="Path 857" d="M485.5,833.081a9.358,9.358,0,1,0-18.566,0Z" transform="translate(-459.111 -822.532)" fill="#80b2ff"/>
        </g>
        <g id="Group_997" data-name="Group 997" transform="translate(157.396)">
          <path id="Path_858" data-name="Path 858" d="M1410.6,398.111c.013-.165.021-.332.021-.5a6.388,6.388,0,1,0-12.776,0c0,.169.009.335.021.5Z" transform="translate(-1397.841 -387.563)" fill="#80b2ff"/>
          <path id="Path_859" data-name="Path 859" d="M1541.156,398.111c.013-.165.021-.332.021-.5a6.388,6.388,0,1,0-12.776,0c0,.169.009.335.021.5Z" transform="translate(-1507.415 -387.563)" fill="#80b2ff"/>
          <path id="Path_860" data-name="Path 860" d="M1464.708,379a9.358,9.358,0,1,0-18.566,0Z" transform="translate(-1438.315 -368.451)" fill="#80b2ff"/>
        </g>
      </g>
      <g id="card" transform="translate(50.401 23.769)">
        <path id="Path_861" data-name="Path 861" d="M818.427,631.635h-2.3a.308.308,0,0,1,0-.616h2.3a.308.308,0,0,1,0,.616Zm-4.6,0h-2.3a.308.308,0,0,1,0-.616h2.3a.308.308,0,1,1,0,.616Zm-4.6,0h-2.3a.308.308,0,1,1,0-.616h2.3a.308.308,0,0,1,0,.616Zm-4.6,0h-2.3a.308.308,0,1,1,0-.616h2.3a.308.308,0,0,1,0,.616Zm-4.6,0h-2.3a.308.308,0,1,1,0-.616h2.3a.308.308,0,1,1,0,.616Zm-4.6,0h-2.3a.308.308,0,0,1,0-.616h2.3a.308.308,0,1,1,0,.616Zm-4.6,0h-2.3a.308.308,0,1,1,0-.616h2.3a.308.308,0,0,1,0,.616Zm-4.6,0h-2.3a.308.308,0,1,1,0-.616h2.3a.308.308,0,0,1,0,.616Zm-4.6,0h-2.3a.308.308,0,1,1,0-.616h2.3a.308.308,0,1,1,0,.616Zm-4.6,0h-2.3a.308.308,0,1,1,0-.616H777a.308.308,0,1,1,0,.616Zm-4.6,0h-2.3a.308.308,0,0,1,0-.616h2.3a.308.308,0,1,1,0,.616Zm-4.6,0h-2.3a.308.308,0,1,1,0-.616h2.3a.308.308,0,1,1,0,.616Zm-4.6,0h-2.3a.308.308,0,1,1,0-.616h2.3a.308.308,0,1,1,0,.616Zm-4.6,0h-2.3a.308.308,0,1,1,0-.616h2.3a.308.308,0,0,1,0,.616Zm-4.6,0h-2.3a.308.308,0,1,1,0-.616h2.3a.308.308,0,1,1,0,.616Zm-4.6,0h-2.3a.308.308,0,0,1,0-.616h2.3a.308.308,0,1,1,0,.616Zm-4.6,0h-2.3a.308.308,0,1,1,0-.616h2.3a.308.308,0,0,1,0,.616Zm-4.6,0h-2.3a.308.308,0,1,1,0-.616h2.3a.308.308,0,0,1,0,.616Zm-4.6,0H735.2a3.024,3.024,0,0,1-1.971-.722.308.308,0,0,1,.4-.468,2.408,2.408,0,0,0,1.57.574h.375a.308.308,0,1,1,0,.616Zm85.033-.545a.308.308,0,0,1-.186-.554,2.172,2.172,0,0,0,.883-1.733.308.308,0,0,1,.308-.308h0a.308.308,0,0,1,.307.309,2.782,2.782,0,0,1-1.128,2.224A.307.307,0,0,1,820.61,631.09Zm-88.057-2.142a.308.308,0,0,1-.308-.308v-2.3a.308.308,0,0,1,.616,0v2.3A.308.308,0,0,1,732.552,628.948Zm89.063-2.138a.308.308,0,0,1-.308-.308v-2.3a.308.308,0,1,1,.616,0v2.3A.308.308,0,0,1,821.615,626.81Zm-89.063-2.465a.308.308,0,0,1-.308-.308v-2.3a.308.308,0,0,1,.616,0v2.3A.308.308,0,0,1,732.552,624.345Zm89.063-2.138a.308.308,0,0,1-.308-.308v-2.3a.308.308,0,1,1,.616,0v2.3A.308.308,0,0,1,821.615,622.207Zm-89.063-2.465a.308.308,0,0,1-.308-.308v-2.3a.308.308,0,1,1,.616,0v2.3A.308.308,0,0,1,732.552,619.743Zm89.063-2.138a.308.308,0,0,1-.308-.308v-2.3a.308.308,0,1,1,.616,0v2.3A.308.308,0,0,1,821.615,617.6Zm-89.063-2.465a.308.308,0,0,1-.308-.308v-2.3a.308.308,0,1,1,.616,0v2.3A.308.308,0,0,1,732.552,615.14ZM821.615,613a.308.308,0,0,1-.308-.308v-2.3a.308.308,0,1,1,.616,0v2.3A.308.308,0,0,1,821.615,613Zm-89.063-2.465a.308.308,0,0,1-.308-.308v-2.3a.308.308,0,1,1,.616,0v2.3A.308.308,0,0,1,732.552,610.537Zm89.063-2.138a.308.308,0,0,1-.308-.308v-2.3a.308.308,0,1,1,.616,0v2.3A.308.308,0,0,1,821.615,608.4Zm-89.063-2.465a.308.308,0,0,1-.308-.308v-2.3a.308.308,0,1,1,.616,0v2.3A.308.308,0,0,1,732.552,605.934Zm89.063-2.138a.308.308,0,0,1-.308-.308v-2.3a.308.308,0,1,1,.616,0v2.3A.308.308,0,0,1,821.615,603.8Zm-89.063-2.465a.308.308,0,0,1-.308-.308v-2.3a.308.308,0,0,1,.616,0v2.3A.308.308,0,0,1,732.552,601.332Zm89.063-2.138a.308.308,0,0,1-.308-.308v-2.3a.308.308,0,1,1,.616,0v2.3A.308.308,0,0,1,821.615,599.193Zm-89.063-2.465a.308.308,0,0,1-.308-.308v-2.3a.308.308,0,0,1,.616,0v2.3A.308.308,0,0,1,732.552,596.729Zm89.063-2.138a.308.308,0,0,1-.308-.308v-2.3a.308.308,0,1,1,.616,0v2.3A.308.308,0,0,1,821.615,594.591Zm-89.063-2.465a.308.308,0,0,1-.308-.308v-2.3a.308.308,0,1,1,.616,0v2.3A.308.308,0,0,1,732.552,592.126Zm89.063-2.138a.308.308,0,0,1-.308-.308v-2.3a.308.308,0,1,1,.616,0v2.3A.308.308,0,0,1,821.615,589.988Zm-89.063-2.465a.308.308,0,0,1-.308-.308v-2.3a.313.313,0,0,1,.308-.314.3.3,0,0,1,.308.3v2.312A.308.308,0,0,1,732.552,587.523Zm89.063-2.138a.308.308,0,0,1-.308-.308v-.163a2.177,2.177,0,0,0-.768-1.645.308.308,0,1,1,.4-.467,2.793,2.793,0,0,1,.981,2.111v.163A.308.308,0,0,1,821.615,585.385Zm-88.053-2.151a.308.308,0,0,1-.186-.554,3.009,3.009,0,0,1,1.825-.6h.544a.308.308,0,0,1,0,.616H735.2a2.4,2.4,0,0,0-1.454.48A.307.307,0,0,1,733.563,583.234Zm85.034-.542h-2.3a.308.308,0,0,1,0-.616h2.3a.308.308,0,1,1,0,.616Zm-4.6,0h-2.3a.308.308,0,1,1,0-.616h2.3a.308.308,0,0,1,0,.616Zm-4.6,0h-2.3a.308.308,0,0,1,0-.616h2.3a.308.308,0,1,1,0,.616Zm-4.6,0h-2.3a.308.308,0,0,1,0-.616h2.3a.308.308,0,1,1,0,.616Zm-4.6,0h-2.3a.308.308,0,1,1,0-.616h2.3a.308.308,0,0,1,0,.616Zm-4.6,0h-2.3a.308.308,0,1,1,0-.616h2.3a.308.308,0,1,1,0,.616Zm-4.6,0h-2.3a.308.308,0,0,1,0-.616h2.3a.308.308,0,1,1,0,.616Zm-4.6,0h-2.3a.308.308,0,0,1,0-.616h2.3a.308.308,0,0,1,0,.616Zm-4.6,0h-2.3a.308.308,0,1,1,0-.616h2.3a.308.308,0,1,1,0,.616Zm-4.6,0h-2.3a.308.308,0,1,1,0-.616h2.3a.308.308,0,1,1,0,.616Zm-4.6,0h-2.3a.308.308,0,1,1,0-.616h2.3a.308.308,0,0,1,0,.616Zm-4.6,0h-2.3a.308.308,0,1,1,0-.616h2.3a.308.308,0,0,1,0,.616Zm-4.6,0h-2.3a.308.308,0,0,1,0-.616h2.3a.308.308,0,1,1,0,.616Zm-4.6,0h-2.3a.308.308,0,0,1,0-.616h2.3a.308.308,0,0,1,0,.616Zm-4.6,0h-2.3a.308.308,0,1,1,0-.616h2.3a.308.308,0,1,1,0,.616Zm-4.6,0h-2.3a.308.308,0,1,1,0-.616h2.3a.308.308,0,1,1,0,.616Zm-4.6,0h-2.3a.308.308,0,0,1,0-.616h2.3a.308.308,0,1,1,0,.616Zm-4.6,0h-2.3a.308.308,0,0,1,0-.616h2.3a.308.308,0,0,1,0,.616Z" transform="translate(-732.244 -571.507)" fill="#c0daff"/>
        <path id="Path_862" data-name="Path 862" d="M864.692,568.988H782.869a3.119,3.119,0,0,1-3.119-3.119V519.443a3.119,3.119,0,0,1,3.119-3.119h81.823a3.119,3.119,0,0,1,3.119,3.119v46.426A3.119,3.119,0,0,1,864.692,568.988Z" transform="translate(-772.114 -516.324)" fill="#9feac3"/>
        <rect id="Rectangle_314" data-name="Rectangle 314" width="88.061" height="9.087" transform="translate(7.636 9.946)" fill="#0046b3"/>
        <path id="Path_863" data-name="Path 863" d="M829.853,781.1H816.905a1.49,1.49,0,0,0-1.49,1.49h0a1.49,1.49,0,0,0,1.49,1.49h12.948a1.49,1.49,0,0,0,1.49-1.49h0A1.49,1.49,0,0,0,829.853,781.1Z" transform="translate(-802.046 -738.539)" fill="#d1f5ff"/>
        <path id="Path_864" data-name="Path 864" d="M953.726,781.1H940.778a1.49,1.49,0,0,0-1.49,1.49h0a1.49,1.49,0,0,0,1.49,1.49h12.948a1.49,1.49,0,0,0,1.49-1.49h0A1.49,1.49,0,0,0,953.726,781.1Z" transform="translate(-906.008 -738.539)" fill="#d1f5ff"/>
        <path id="Path_865" data-name="Path 865" d="M1077.6,781.1H1064.65a1.49,1.49,0,0,0-1.49,1.49h0a1.49,1.49,0,0,0,1.49,1.49H1077.6a1.49,1.49,0,0,0,1.49-1.49h0A1.49,1.49,0,0,0,1077.6,781.1Z" transform="translate(-1009.969 -738.539)" fill="#d1f5ff"/>
        <path id="Path_866" data-name="Path 866" d="M1201.471,781.1h-12.948a1.49,1.49,0,0,0-1.49,1.49h0a1.49,1.49,0,0,0,1.49,1.49h12.948a1.49,1.49,0,0,0,1.49-1.49h0A1.49,1.49,0,0,0,1201.471,781.1Z" transform="translate(-1113.931 -738.539)" fill="#d1f5ff"/>
        <path id="Path_867" data-name="Path 867" d="M812.388,532.952h0a1.645,1.645,0,0,0-1.645,1.645v.578a1.645,1.645,0,0,0,1.645,1.645h0a1.645,1.645,0,0,0,1.645-1.645V534.6A1.645,1.645,0,0,0,812.388,532.952Z" transform="translate(-798.125 -530.279)" fill="#d1f5ff"/>
        <path id="Path_868" data-name="Path 868" d="M843.021,534.886h0a1.934,1.934,0,0,0,1.934,1.934h6.853a1.934,1.934,0,0,0,1.933-1.934h0a1.934,1.934,0,0,0-1.934-1.934h-6.853A1.934,1.934,0,0,0,843.021,534.886Z" transform="translate(-825.215 -530.279)" fill="#d1f5ff"/>
        <rect id="Rectangle_315" data-name="Rectangle 315" width="13.989" height="12.769" rx="6.384" transform="translate(14.338 23.922)" fill="#ff9f34"/>
      </g>
      <g id="Gear" transform="translate(77.339 23.875)">
        <g id="Group_998" data-name="Group 998" transform="translate(97.792)">
          <path id="Path_869" data-name="Path 869" d="M1572.483,558.816a30.729,30.729,0,0,0,.613-12.12l1.247-.187,2.463-.368.031-.007a34.4,34.4,0,0,0-4.5-12.617l-3.244,1.932a30.737,30.737,0,0,0-8.146-8.994l2.252-3.043a34.254,34.254,0,0,0-12.107-5.748l-.931,3.673a30.679,30.679,0,0,0-12.12-.613l-.562-3.741a34.622,34.622,0,0,0-12.617,4.5l1.932,3.244a30.742,30.742,0,0,0-8.994,8.145l-3.042-2.252a34.259,34.259,0,0,0-5.748,12.107l3.673.931a30.673,30.673,0,0,0-.614,12.12l-2.647.4-1.08.171-.014,0a34.624,34.624,0,0,0,4.5,12.617l3.244-1.932a30.8,30.8,0,0,0,8.159,9l-2.252,3.042a34.186,34.186,0,0,0,12.093,5.745l.931-3.673a30.751,30.751,0,0,0,12.134.617l.433,2.908.13.832a34.563,34.563,0,0,0,12.6-4.506l-1.932-3.244a31.067,31.067,0,0,0,9.011-8.156l3.042,2.252a34.441,34.441,0,0,0,5.731-12.1Zm-34.016,8.661A16.744,16.744,0,1,1,1558.8,555.35,16.742,16.742,0,0,1,1538.467,567.477Z" transform="translate(-1508.326 -516.984)" fill="none" stroke="#b3d1ff" stroke-linejoin="round" stroke-width="4"/>
        </g>
        <g id="Group_999" data-name="Group 999" transform="translate(145.561 67.42)">
          <path id="Path_870" data-name="Path 870" d="M1836.329,944.421a16.178,16.178,0,0,0-4.885-4.119l.319-.582.63-1.15.007-.015a18.114,18.114,0,0,0-6.723-2.133l-.223,1.975a16.183,16.183,0,0,0-6.365.548l-.558-1.913a18.035,18.035,0,0,0-6.267,3.243l1.243,1.561a16.147,16.147,0,0,0-4.119,4.885l-1.747-.956a18.229,18.229,0,0,0-2.133,6.723l1.975.224a16.184,16.184,0,0,0,.548,6.365l-1.913.558a18.039,18.039,0,0,0,3.243,6.267l1.561-1.243a16.144,16.144,0,0,0,4.884,4.119l-.678,1.235-.272.507-.006,0a18.232,18.232,0,0,0,6.723,2.133l.224-1.975a16.222,16.222,0,0,0,6.371-.553l.558,1.913a18,18,0,0,0,6.261-3.238l-1.243-1.561a16.184,16.184,0,0,0,4.125-4.889l1.357.745.39.211a18.2,18.2,0,0,0,2.127-6.718l-1.975-.224a16.358,16.358,0,0,0-.547-6.376l1.913-.558a18.131,18.131,0,0,0-3.244-6.257Zm-7.209,17.017a8.816,8.816,0,1,1,1.4-12.389A8.815,8.815,0,0,1,1829.12,961.438Z" transform="translate(-1805.508 -936.422)" fill="none" stroke="#b3d1ff" stroke-linejoin="round" stroke-width="4"/>
        </g>
        <g id="Group_1000" data-name="Group 1000" transform="translate(0 157.126)">
          <path id="Path_871" data-name="Path 871" d="M935.5,1503.742a18.672,18.672,0,0,0-5.637-4.753l.368-.672.728-1.327.008-.018a20.9,20.9,0,0,0-7.758-2.461l-.258,2.279a18.679,18.679,0,0,0-7.345.633l-.644-2.208a20.813,20.813,0,0,0-7.232,3.742l1.434,1.8a18.643,18.643,0,0,0-4.753,5.637l-2.016-1.1a21.033,21.033,0,0,0-2.461,7.758l2.279.258a18.677,18.677,0,0,0,.633,7.345l-2.208.644a20.814,20.814,0,0,0,3.742,7.232l1.8-1.435a18.636,18.636,0,0,0,5.637,4.753l-.782,1.426-.315.585-.007.005a21.037,21.037,0,0,0,7.758,2.461l.258-2.28a18.712,18.712,0,0,0,7.352-.638l.644,2.208a20.776,20.776,0,0,0,7.225-3.737l-1.434-1.8a18.682,18.682,0,0,0,4.76-5.642l1.566.86.45.243a21,21,0,0,0,2.454-7.753l-2.279-.258a18.876,18.876,0,0,0-.631-7.357l2.208-.644a20.93,20.93,0,0,0-3.744-7.22Zm-8.319,19.637a10.173,10.173,0,1,1,1.613-14.3A10.172,10.172,0,0,1,927.182,1523.38Z" transform="translate(-899.934 -1494.512)" fill="none" stroke="#003880" stroke-width="4"/>
        </g>
      </g>
    </g>
    <g id="phone" transform="translate(516.312 418.911)">
      <g id="phone-2" data-name="phone" transform="translate(0)">
        <path id="Path_872" data-name="Path 872" d="M1188.418,667.094c-1.785-10.574-18.069-15.348-17.75-8.446l-74.647.437c-5.17.03-9.362,4.682-9.367,10.394L1086.5,865.8c0,5.918,4.261,10.757,9.53,10.8l76.2.654a6.1,6.1,0,0,0,2.753,2.651c8.739.186,12.93-4.13,14.462-9.009a11.751,11.751,0,0,0,.757-4.283C1189.9,864.061,1188.97,669.574,1188.418,667.094Z" transform="translate(-1076.837 -655.417)" fill="#9feac3"/>
        <path id="Path_873" data-name="Path 873" d="M1123.721,880.084l-87.469-.564c-5.458-.035-9.873-5-9.864-11.094l.328-201.9c.009-5.872,4.354-10.642,9.707-10.659l85.77-.279c5.395-.018,9.807,4.745,9.852,10.644l1.555,202.832C1133.648,875.184,1129.223,880.12,1123.721,880.084Z" transform="translate(-1026.388 -655.562)" fill="#fff"/>
        <path id="Path_874" data-name="Path 874" d="M1132.639,885.644a7.875,7.875,0,0,1-1.1.069l-87.443-.661c-4.69-.036-8.524-4.392-8.516-9.707l.3-201.677c.008-5.126,3.781-9.31,8.381-9.33l85.765-.373c.134,0,.27,0,.4.008a8.115,8.115,0,0,1,5.683,2.766,9.693,9.693,0,0,1,2.416,6.421l1.534,203.038C1140.1,881.01,1136.916,885.071,1132.639,885.644Z" transform="translate(-1034.098 -662.591)"/>
        <path id="Path_875" data-name="Path 875" d="M1150.708,727.521l1.475,202.331-98.508-.59.251-201.741Z" transform="translate(-1049.288 -715.931)" fill="#00b02b" stroke="#1a2e35" stroke-linecap="round" stroke-linejoin="round" stroke-width="1"/>
      </g>
      <g id="login" transform="translate(14.962 25.976)">
        <path id="Path_876" data-name="Path 876" d="M1285.248,1318.561h-26.371a4.069,4.069,0,0,1-4.057-4.057h0a4.069,4.069,0,0,1,4.057-4.057h26.371a4.069,4.069,0,0,1,4.057,4.057h0A4.069,4.069,0,0,1,1285.248,1318.561Z" transform="translate(-1233.065 -1231.134)" fill="#fff"/>
        <rect id="Rectangle_316" data-name="Rectangle 316" width="76.302" height="8.114" rx="4.057" transform="translate(0 49.195)" fill="#fff"/>
        <path id="Path_877" data-name="Path 877" d="M1191.719,1212.481H1123.53a4.069,4.069,0,0,1-4.057-4.057h0a4.069,4.069,0,0,1,4.057-4.057h68.188a4.069,4.069,0,0,1,4.057,4.057h0A4.069,4.069,0,0,1,1191.719,1212.481Z" transform="translate(-1119.473 -1142.105)" fill="#fff"/>
        <g id="Group_1001" data-name="Group 1001" transform="translate(13.933 64.658)">
          <path id="Path_878" data-name="Path 878" d="M1209.011,1224.386a1.428,1.428,0,1,1-1.428-1.428A1.428,1.428,0,0,1,1209.011,1224.386Z" transform="translate(-1206.154 -1222.366)" fill="#80b2ff"/>
          <circle id="Ellipse_27" data-name="Ellipse 27" cx="1.428" cy="1.428" r="1.428" transform="translate(4.631 3.12) rotate(-77.994)" fill="#80b2ff"/>
          <circle id="Ellipse_28" data-name="Ellipse 28" cx="1.428" cy="1.428" r="1.428" transform="translate(9.203 2.02) rotate(-45)" fill="#80b2ff"/>
          <circle id="Ellipse_29" data-name="Ellipse 29" cx="1.428" cy="1.428" r="1.428" transform="translate(14.1 2.02) rotate(-45)" fill="#80b2ff"/>
          <circle id="Ellipse_30" data-name="Ellipse 30" cx="1.428" cy="1.428" r="1.428" transform="translate(19.151 1.247) rotate(-22.5)" fill="#80b2ff"/>
          <circle id="Ellipse_31" data-name="Ellipse 31" cx="1.428" cy="1.428" r="1.428" transform="matrix(0.23, -0.973, 0.973, 0.23, 24.196, 3.082)" fill="#80b2ff"/>
          <circle id="Ellipse_32" data-name="Ellipse 32" cx="1.428" cy="1.428" r="1.428" transform="translate(28.791 2.02) rotate(-45)" fill="#80b2ff"/>
          <circle id="Ellipse_33" data-name="Ellipse 33" cx="1.428" cy="1.428" r="1.428" transform="translate(33.689 2.02) rotate(-45)" fill="#80b2ff"/>
          <circle id="Ellipse_34" data-name="Ellipse 34" cx="1.428" cy="1.428" r="1.428" transform="translate(38.74 1.247) rotate(-22.5)" fill="#80b2ff"/>
        </g>
        <g id="Group_1004" data-name="Group 1004" transform="translate(16.007 0)">
          <circle id="Ellipse_35" data-name="Ellipse 35" cx="15.675" cy="15.675" r="15.675" transform="translate(0 22.168) rotate(-45)" fill="#fff"/>
          <g id="Group_1003" data-name="Group 1003" transform="translate(13.454 11.648)" opacity="0.8">
            <g id="Group_1002" data-name="Group 1002" transform="translate(3.792)">
              <path id="Path_879" data-name="Path 879" d="M1331.289,899.371a4.951,4.951,0,0,0,3.846-1.884,4.826,4.826,0,0,0,1.06-3.061,4.925,4.925,0,1,0-9.85,0,4.82,4.82,0,0,0,1.06,3.061A4.969,4.969,0,0,0,1331.289,899.371Z" transform="translate(-1326.344 -889.482)" fill="#9feac3"/>
            </g>
            <path id="Path_880" data-name="Path 880" d="M1320.178,966.955c0,3.12-17.424,3.12-17.424,0l.005-3.636c.689-4.971,16-5.18,17.422,0Z" transform="translate(-1302.754 -948.255)" fill="#9feac3"/>
          </g>
        </g>
        <path id="Path_881" data-name="Path 881" d="M1147.818,1215.483v-.218a1.6,1.6,0,1,0-3.193,0v.218h-.242v2.877c0,.5,3.688.5,3.688,0v-2.877Zm-2.624-.218a1.033,1.033,0,1,1,2.065,0v.218h-2.065Zm1.3,1.667v.831a.264.264,0,0,1-.277.256.246.246,0,0,1-.255-.256v-.831a.485.485,0,0,1-.256-.427.511.511,0,1,1,.789.427Z" transform="translate(-1140.379 -1149.912)" fill="#4d4d4d"/>
        <g id="Group_1007" data-name="Group 1007" transform="translate(3.984 50.871)">
          <g id="Group_1006" data-name="Group 1006">
            <g id="Group_1005" data-name="Group 1005" transform="translate(0.819)">
              <path id="Path_882" data-name="Path 882" d="M1150.4,1135.588a1.045,1.045,0,0,0,.812-.4,1.02,1.02,0,0,0,.224-.646,1.039,1.039,0,1,0-2.079,0,1.017,1.017,0,0,0,.224.646A1.048,1.048,0,0,0,1150.4,1135.588Z" transform="translate(-1149.355 -1133.501)" fill="#4d4d4d"/>
            </g>
            <path id="Path_883" data-name="Path 883" d="M1147.956,1149.849c0,.658-3.7.658-3.7,0l.02-.767c.145-1.049,3.377-1.093,3.676,0Z" transform="translate(-1144.26 -1145.903)" fill="#4d4d4d"/>
          </g>
          <path id="Path_884" data-name="Path 884" d="M1220.2,1143.288h-14.943a1.194,1.194,0,0,1-1.191-1.19h0a1.194,1.194,0,0,1,1.191-1.191H1220.2a1.194,1.194,0,0,1,1.191,1.191h0A1.194,1.194,0,0,1,1220.2,1143.288Z" transform="translate(-1194.454 -1139.717)" fill="#80b2ff"/>
          <path id="Path_885" data-name="Path 885" d="M1342.814,1143.288h-14.943a1.194,1.194,0,0,1-1.191-1.19h0a1.194,1.194,0,0,1,1.191-1.191h14.943A1.194,1.194,0,0,1,1344,1142.1h0A1.194,1.194,0,0,1,1342.814,1143.288Z" transform="translate(-1297.358 -1139.717)" fill="#80b2ff"/>
        </g>
        <path id="Path_886" data-name="Path 886" d="M1549.857,1218.143" transform="translate(-1480.678 -1153.667)" fill="none" stroke="#9feac3" stroke-width="1"/>
      </g>
      <g id="key" transform="translate(33.017 134.588)">
        <path id="Path_887" data-name="Path 887" d="M1231.8,1621.327v29.559c0,3.285,40.193,3.285,40.193,0v-29.559Z" transform="translate(-1231.798 -1600.656)" fill="#fff"/>
        <g id="Group_1008" data-name="Group 1008" transform="translate(14.127 25.866)">
          <circle id="Ellipse_36" data-name="Ellipse 36" cx="4.962" cy="4.962" r="4.962" transform="translate(0 9.659) rotate(-76.717)" fill="#00b02b" stroke="#1a2e35" stroke-linecap="round" stroke-linejoin="round" stroke-width="1"/>
          <path id="Rectangle_317" data-name="Rectangle 317" d="M0,0H4.068a0,0,0,0,1,0,0V11.381a2.034,2.034,0,0,1-2.034,2.034h0A2.034,2.034,0,0,1,0,11.381V0A0,0,0,0,1,0,0Z" transform="translate(3.936 7.498)" fill="#00b02b"/>
        </g>
        <path id="Path_888" data-name="Path 888" d="M1286.86,1511.293h-4.068v-1.99a12.506,12.506,0,1,0-25.012,0v1.99h-4.068v-1.99a16.574,16.574,0,1,1,33.147,0Z" transform="translate(-1250.19 -1492.728)" fill="#fff"/>
      </g>
    </g>
    <g id="shield" transform="translate(603.027 516.526)">
      <g id="Group_1012" data-name="Group 1012" transform="translate(0 0)">
        <g id="Group_1010" data-name="Group 1010">
          <g id="Group_1009" data-name="Group 1009">
            <path id="Path_889" data-name="Path 889" d="M1565.927,1398.289h0c0-.157,0-.226,0-.242C1565.928,1398.076,1565.927,1398.289,1565.927,1398.289Z" transform="translate(-1565.927 -1376.292)" fill="#d9ffff"/>
            <path id="Path_890" data-name="Path 890" d="M1565.927,1398.289h0c0-.157,0-.226,0-.242C1565.928,1398.076,1565.927,1398.289,1565.927,1398.289Z" transform="translate(-1565.927 -1376.292)" fill="#d9ffff"/>
            <path id="Path_891" data-name="Path 891" d="M2148.3,1400.892s0-.213,0-.242c0,.016,0,.085,0,.242Z" transform="translate(-2054.687 -1378.477)" fill="#d9ffff"/>
            <path id="Path_892" data-name="Path 892" d="M2148.3,1400.892s0-.213,0-.242c0,.016,0,.085,0,.242Z" transform="translate(-2054.687 -1378.477)" fill="#d9ffff"/>
            <path id="Path_893" data-name="Path 893" d="M1624.484,1262.7c-10.362,11.1-26.9,20.2-44.59,24.072-.005,1.182-.035,7.729-.169,37.906-.18,40.255,38.131,59.927,44.078,62.946,5.763-2.653,44.557-22.294,44.737-62.549.135-30.177.164-36.724.169-37.905C1651.051,1283.139,1634.746,1273.9,1624.484,1262.7Z" transform="translate(-1577.506 -1262.703)" fill="#fff"/>
          </g>
        </g>
        <g id="Group_1011" data-name="Group 1011" transform="translate(4.969 4.366)">
          <path id="Path_894" data-name="Path 894" d="M1638.755,1289.864c-10.682,9.8-25.482,17.5-41.755,21.7l-.161,35.905c-.073,16.429,6.453,31.292,19.4,44.177a92.811,92.811,0,0,0,21.989,16.078c.2-.1.409-.211.62-.321V1289.948C1638.817,1289.92,1638.785,1289.893,1638.755,1289.864Z" transform="translate(-1596.838 -1289.864)" fill="#9feac3"/>
          <path id="Path_895" data-name="Path 895" d="M1858.19,1290.385V1407.84a92.83,92.83,0,0,0,21.512-15.56c13.06-12.768,19.72-27.572,19.793-44l.161-35.906C1883.466,1308.042,1868.777,1300.24,1858.19,1290.385Z" transform="translate(-1816.181 -1290.301)" fill="#96d6b5"/>
        </g>
        <path id="Path_896" data-name="Path 896" d="M1736.143,1514.283c-12.389,1.911-29.26,13.21-39.9,26.8-1.493-6.406-8.195-12.255-11.7-13.534l-10.623,10.677c6.633,2.989,13.881,11.458,14.842,20.128L1699.37,1560c4.474-8.838,16.029-29.977,39.016-41.344A17.409,17.409,0,0,0,1736.143,1514.283Z" transform="translate(-1656.559 -1473.844)" fill="#00b02b" stroke="#1a2e35" stroke-linecap="round" stroke-linejoin="round" stroke-width="1"/>
      </g>
    </g>
    <g id="lady" transform="translate(430.892 467.777)">
      <g id="Group_1021" data-name="Group 1021" transform="translate(0 0)">
        <path id="Path_897" data-name="Path 897" d="M734.914,1105l-1.868,7.51-.34,1.4c-.377,1.774-12.095,1.019-11.265-1.057l.7-1.528,3.6-7.906Z" transform="translate(-684.989 -1080.268)" fill="#f7a58e"/>
        <g id="Group_1014" data-name="Group 1014" transform="translate(28.741)">
          <g id="Group_1013" data-name="Group 1013" transform="translate(6.611 2.239)">
            <path id="Path_898" data-name="Path 898" d="M736.241,984.7c.119,8.143-3.661,14.765-9.576,14.736s-11.638-5.047-11.845-14.84a10.914,10.914,0,0,1,10.765-11.246C731.5,973.382,736.149,978.464,736.241,984.7Z" transform="translate(-714.817 -973.353)" fill="#f7a58e"/>
          </g>
          <path id="Path_899" data-name="Path 899" d="M691.244,959.424s11.787.582,12.767,9.509c1.309,7.835-4.569,2.075-6.969,7.333-2.749,6.022.053,10.43,3.625,11.627-3.176,4.434-21.338,4.275-26.011-3.506C671.456,974.627,675.984,959.965,691.244,959.424Z" transform="translate(-673.688 -959.424)"/>
          <path id="Path_900" data-name="Path 900" d="M811.437,1051.659a2.2,2.2,0,1,1-2.367-2.011A2.2,2.2,0,0,1,811.437,1051.659Z" transform="translate(-785.616 -1035.139)" fill="#f7a58e"/>
        </g>
        <path id="Path_901" data-name="Path 901" d="M821.945,2002.525c.552-.585,3.159-.594,3.4.271s-.221,1.484.879,2.855a11.135,11.135,0,0,1-3.565,0C821.968,2005.452,821.393,2003.11,821.945,2002.525Z" transform="translate(-769.188 -1834.512)" fill="#fff"/>
        <path id="Path_902" data-name="Path 902" d="M729.954,1497.167h6.351c.594-26.875.48-56.132.266-78.166-.077-7.891-.295-11.882-1.725-16.619-2.891-9.566-16.481-6.621-17.445,2.05-.4,4.812-.7,14.2,8.2,46.094C721.748,1464.569,728.469,1481.407,729.954,1497.167Z" transform="translate(-681.503 -1326.196)" fill="#00050d"/>
        <path id="Path_903" data-name="Path 903" d="M798.458,2015.508a6.9,6.9,0,0,1-3.532-1.572c-.607.678-1.871.866-3.4.639-1.8-.269-2.04-1.107-3.333-.995-.545,1.515-1.873,4.916-.592,5.7h13.353C802.15,2018.2,802.119,2015.872,798.458,2015.508Z" transform="translate(-740.099 -1844.127)" fill="#fff"/>
        <g id="Group_1015" data-name="Group 1015" transform="translate(14.666 70.909)">
          <path id="Path_904" data-name="Path 904" d="M620.966,2007.1c.464-.492,2.655-.5,2.854.228s-.186,1.247.738,2.4a9.361,9.361,0,0,1-3,0C620.985,2009.56,620.5,2007.592,620.966,2007.1Z" transform="translate(-615.209 -1909.316)" fill="#fff"/>
          <path id="Path_905" data-name="Path 905" d="M618.443,1407.651c-1.3-9.908-18.926-8.891-20.1-.239-.423,4.655-1.716,11.662,1.6,46.24-6.988,13.2-5.013,32.13-7.1,46.067-.231,2.121,5.777,2.63,6.243.74,6.4-25.859,15.348-54.871,18.673-76.384C618.963,1416.276,619.085,1412.558,618.443,1407.651Z" transform="translate(-591.755 -1400.568)" fill="#00050d"/>
          <path id="Path_906" data-name="Path 906" d="M596.6,2013.219a4.915,4.915,0,0,1-2.727-1.889,3.748,3.748,0,0,1-3.292,1.365c-1.8-.269-2.04-1.106-3.333-.995-.545,1.516-1.873,4.916-.592,5.7H599.65C600.842,2016.316,600.265,2013.583,596.6,2013.219Z" transform="translate(-586.121 -1913.157)" fill="#fff"/>
        </g>
        <g id="Group_1017" data-name="Group 1017" transform="translate(43.784 17.005)">
          <path id="Path_907" data-name="Path 907" d="M919.688,1118.357l-3.288.729c.075,1.73-.133,4.493,0,7.543l5.529-.728C921.088,1122.83,920.276,1120.137,919.688,1118.357Z" transform="translate(-892.391 -1109.815)" fill="#f7a58e"/>
          <path id="Path_908" data-name="Path 908" d="M791.279,1166.021c-.123,6.046-.284,8.636-.334,11.018l-16.405-10.522c-5-1.518-10.828,8.377-4.508,12.842,0,0,21.848,12.336,26.762,8.783,2.659-1.922,1.969-15.712.014-22.849Z" transform="translate(-767.27 -1149.207)" fill="#fff"/>
          <g id="Group_1016" data-name="Group 1016" transform="translate(23.065)">
            <path id="Path_909" data-name="Path 909" d="M919.667,1091.8c-1.519-1.781-4.855-1.16-5.108-1.112l.321,4.927c.075,2.433,3.092,2.516,4.321.418C919.2,1096.029,920.982,1093.549,919.667,1091.8Z" transform="translate(-913.949 -1086.469)" fill="#f7a58e"/>
            <path id="Path_910" data-name="Path 910" d="M912.987,1069.895c-1.107-5.367-2.224-4.648-2.224-4.648s.179,1.9.679,5.243C911.817,1072.386,913.124,1071.243,912.987,1069.895Z" transform="translate(-910.763 -1065.215)" fill="#f7a58e"/>
          </g>
        </g>
        <path id="Path_911" data-name="Path 911" d="M660.794,1174.025c1.114-5.421,1.711-10.774-3.876-14.14-3.313-2-13.962-3.421-18.941-1.773-5.017,2.243-3.932,12.022-4.872,27.465-3.457,7.707-4.96,10.239-5.984,17.745,0,0,1.85,5.656,14.88,5.663,5.917,0,14.632-.523,18.6-3.54-.4-5.119-2.536-10.051-3.428-17.3C657.168,1188.147,660.713,1174.647,660.794,1174.025Z" transform="translate(-605.864 -1125.57)" fill="#fff"/>
        <g id="Group_1020" data-name="Group 1020" transform="translate(0 32.319)">
          <g id="Group_1018" data-name="Group 1018" transform="translate(2.467)">
            <path id="Path_912" data-name="Path 912" d="M547.36,1161.8c-6.116,4.669-12.081,12.012-14.9,15.911s-10.122,19.57-10.122,19.57l4.647,3.426,12.571-17.129,15.357-12.6C560.243,1165.545,553.317,1157.253,547.36,1161.8Z" transform="translate(-520.391 -1160.488)" fill="#fff"/>
            <path id="Path_913" data-name="Path 913" d="M510.224,1381.628l3.013-6.224c.708,1.872,4.157,3.579,5.147,3.544,0,0-3.239,4.661-4.031,5.453S510.289,1383.852,510.224,1381.628Z" transform="translate(-510.224 -1340.859)" fill="#f7a58e"/>
          </g>
          <g id="Group_1019" data-name="Group 1019" transform="translate(0 40.019)">
            <path id="Path_914" data-name="Path 914" d="M502.237,1412.3c-.012.046,0,.109-.011.156a4.472,4.472,0,0,1-2.363,3.591.271.271,0,0,1-.121.048c1.637-.328,2.128,1.866,1.295,2.372-2.41,1.631-5.844-.613-6.135-1.973-.295-1.381,2.45-5.952,2.45-5.952C498.752,1409.406,502.336,1409.582,502.237,1412.3Z" transform="translate(-494.879 -1409.813)" fill="#f7a58e"/>
            <path id="Path_915" data-name="Path 915" d="M511.532,1422.814a4.318,4.318,0,0,1-2.446,3.622c-1.35-.038-1.831-.119-3.119-.116a2.971,2.971,0,0,0,1.9-3.619C509.186,1421.691,511.172,1422.574,511.532,1422.814Z" transform="translate(-504.186 -1420.175)" fill="#e6856a"/>
            <path id="Path_916" data-name="Path 916" d="M519.652,1411.8a15.613,15.613,0,0,1-.3,6.449s-1.3.068-1.174-2.379c.031-.636-.06-2.019-.69-2.48-1.94-1.282-2.252-2.457-1.54-3.422C516.9,1408.688,519.578,1409.993,519.652,1411.8Z" transform="translate(-512.271 -1409.457)" fill="#f7a58e"/>
            <path id="Path_917" data-name="Path 917" d="M501.964,1453.251c1.052.73,3.837,2.144,4.277,1.8s-1.788-2.72-3.225-3.033S501.425,1452.877,501.964,1453.251Z" transform="translate(-500.585 -1445.128)" fill="#f7a58e"/>
          </g>
        </g>
      </g>
    </g>
  </g>
</svg>
