<svg xmlns="http://www.w3.org/2000/svg" xmlns:xlink="http://www.w3.org/1999/xlink" width="286.844" height="286.844" viewBox="0 0 286.844 286.844">
  <defs>
    <linearGradient id="linear-gradient" x1="0.932" y1="-2.907" x2="0.667" y2="-0.816" gradientUnits="objectBoundingBox">
      <stop offset="0" stop-color="#ff928e"/>
      <stop offset="1" stop-color="#fe7062"/>
    </linearGradient>
    <linearGradient id="linear-gradient-2" x1="-63.915" y1="2.654" x2="-71.915" y2="3.512" gradientUnits="objectBoundingBox">
      <stop offset="0" stop-color="#09005d"/>
      <stop offset="1" stop-color="#1a0f91"/>
    </linearGradient>
    <linearGradient id="linear-gradient-3" x1="-6.881" y1="10.137" x2="-7.203" y2="13.584" xlink:href="#linear-gradient-2"/>
    <linearGradient id="linear-gradient-4" x1="74.698" y1="-1.308" x2="71.861" y2="5.08" xlink:href="#linear-gradient-2"/>
    <linearGradient id="linear-gradient-5" x1="294.732" y1="-1.081" x2="295.739" y2="-1.081" gradientUnits="objectBoundingBox">
      <stop offset="0" stop-color="#febbba"/>
      <stop offset="1" stop-color="#ff928e"/>
    </linearGradient>
    <linearGradient id="linear-gradient-6" x1="94.278" y1="-0.073" x2="91.261" y2="0.782" xlink:href="#linear-gradient-2"/>
    <linearGradient id="linear-gradient-7" x1="185.543" y1="-3.175" x2="178.523" y2="4.39" xlink:href="#linear-gradient-2"/>
    <linearGradient id="linear-gradient-8" x1="343.594" y1="-0.682" x2="344.608" y2="-0.682" xlink:href="#linear-gradient-5"/>
    <linearGradient id="linear-gradient-9" x1="63.163" y1="-0.139" x2="61.145" y2="0.704" xlink:href="#linear-gradient-2"/>
    <linearGradient id="linear-gradient-10" x1="25.141" y1="-19.565" x2="24.1" y2="-18.887" xlink:href="#linear-gradient"/>
    <linearGradient id="linear-gradient-11" x1="56.86" y1="0.222" x2="57.853" y2="0.222" xlink:href="#linear-gradient-5"/>
    <linearGradient id="linear-gradient-12" x1="-70.452" y1="1.023" x2="-68.471" y2="3.707" xlink:href="#linear-gradient-5"/>
    <linearGradient id="linear-gradient-13" x1="409.415" y1="-0.657" x2="411.416" y2="-2.437" xlink:href="#linear-gradient-5"/>
    <linearGradient id="linear-gradient-14" x1="64.015" y1="-49.842" x2="61.398" y2="-48.116" xlink:href="#linear-gradient"/>
    <linearGradient id="linear-gradient-15" x1="45.312" y1="0.037" x2="46.314" y2="0.037" xlink:href="#linear-gradient-5"/>
    <linearGradient id="linear-gradient-16" x1="-0.103" y1="1.691" x2="0.844" y2="-0.028" xlink:href="#linear-gradient-5"/>
    <linearGradient id="linear-gradient-17" x1="33.139" y1="46.635" x2="32.815" y2="45.569" xlink:href="#linear-gradient-5"/>
    <linearGradient id="linear-gradient-18" x1="25.118" y1="34.692" x2="25.322" y2="35.875" xlink:href="#linear-gradient-2"/>
    <linearGradient id="linear-gradient-19" x1="106.616" y1="221.975" x2="105.67" y2="217.362" xlink:href="#linear-gradient-5"/>
    <linearGradient id="linear-gradient-20" x1="41.57" y1="-0.062" x2="42.084" y2="2.428" xlink:href="#linear-gradient-2"/>
    <linearGradient id="linear-gradient-21" x1="141.633" y1="0.5" x2="142.633" y2="0.5" xlink:href="#linear-gradient-5"/>
    <linearGradient id="linear-gradient-22" x1="9.972" y1="-0.407" x2="8.878" y2="0.795" xlink:href="#linear-gradient-5"/>
    <linearGradient id="linear-gradient-23" x1="-24.57" y1="1.893" x2="-25.182" y2="2.513" xlink:href="#linear-gradient-2"/>
    <linearGradient id="linear-gradient-24" x1="1.812" y1="-0.58" x2="0.988" y2="0.138" xlink:href="#linear-gradient"/>
    <linearGradient id="linear-gradient-25" x1="-115.067" y1="7.711" x2="-114.842" y2="6.801" xlink:href="#linear-gradient-5"/>
    <linearGradient id="linear-gradient-26" x1="-66.571" y1="5.644" x2="-65.362" y2="6.807" xlink:href="#linear-gradient-5"/>
    <linearGradient id="linear-gradient-27" x1="-76.739" y1="5.01" x2="-78.62" y2="6.915" xlink:href="#linear-gradient-2"/>
    <linearGradient id="linear-gradient-28" x1="-187.299" y1="18.446" x2="-183.923" y2="22.765" xlink:href="#linear-gradient-5"/>
    <linearGradient id="linear-gradient-29" x1="7.286" y1="1.272" x2="8.687" y2="0.135" xlink:href="#linear-gradient-5"/>
    <linearGradient id="linear-gradient-30" x1="16.645" y1="0.43" x2="17.64" y2="0.43" xlink:href="#linear-gradient-2"/>
    <linearGradient id="linear-gradient-31" x1="15.83" y1="0.377" x2="11.933" y2="0.708" xlink:href="#linear-gradient-5"/>
    <linearGradient id="linear-gradient-32" x1="15.631" y1="0.421" x2="16.624" y2="0.421" xlink:href="#linear-gradient-2"/>
    <linearGradient id="linear-gradient-33" x1="1.968" y1="-0.231" x2="0.935" y2="0.314" xlink:href="#linear-gradient-2"/>
    <linearGradient id="linear-gradient-34" x1="8.911" y1="0.789" x2="11.881" y2="-1.387" xlink:href="#linear-gradient-5"/>
    <linearGradient id="linear-gradient-35" x1="-9.604" y1="-1.469" x2="-10.014" y2="-0.35" xlink:href="#linear-gradient-2"/>
    <linearGradient id="linear-gradient-36" x1="-30.264" y1="-0.93" x2="-29.136" y2="-0.93" xlink:href="#linear-gradient-5"/>
    <linearGradient id="linear-gradient-37" x1="-4.436" y1="0.383" x2="-3.744" y2="-0.528" xlink:href="#linear-gradient-2"/>
    <linearGradient id="linear-gradient-38" x1="-8.486" y1="-1.105" x2="-9.728" y2="2.367" xlink:href="#linear-gradient-2"/>
    <linearGradient id="linear-gradient-39" x1="-8.81" y1="-1.332" x2="-7.877" y2="-1.332" gradientUnits="objectBoundingBox">
      <stop offset="0" stop-color="#4f52ff"/>
      <stop offset="1" stop-color="#4042e2"/>
    </linearGradient>
    <linearGradient id="linear-gradient-40" x1="-26.908" y1="-1.077" x2="-26.006" y2="-1.077" xlink:href="#linear-gradient-5"/>
    <linearGradient id="linear-gradient-41" x1="-3.986" y1="0.705" x2="-3.955" y2="-0.272" xlink:href="#linear-gradient-2"/>
    <linearGradient id="linear-gradient-42" x1="1.74" y1="-0.37" x2="-0.624" y2="1.26" xlink:href="#linear-gradient"/>
    <linearGradient id="linear-gradient-43" x1="-6.41" y1="0.002" x2="-5.417" y2="0.002" xlink:href="#linear-gradient-5"/>
    <linearGradient id="linear-gradient-44" x1="-0.88" y1="1.258" x2="0.452" y2="0.577" xlink:href="#linear-gradient"/>
    <linearGradient id="linear-gradient-45" x1="-15.914" y1="-0.516" x2="-14.795" y2="-0.516" xlink:href="#linear-gradient-5"/>
    <linearGradient id="linear-gradient-46" x1="-2.67" y1="1.827" x2="-0.422" y2="0.89" xlink:href="#linear-gradient"/>
    <linearGradient id="linear-gradient-47" x1="-4.698" y1="0.781" x2="-5.941" y2="7.598" xlink:href="#linear-gradient-5"/>
    <linearGradient id="linear-gradient-48" x1="-9.537" y1="-10.969" x2="-10.634" y2="-9.655" xlink:href="#linear-gradient-5"/>
    <linearGradient id="linear-gradient-49" x1="-11.662" y1="-10.689" x2="-10.387" y2="-10.689" xlink:href="#linear-gradient-2"/>
    <linearGradient id="linear-gradient-50" x1="-36.21" y1="-39.653" x2="-33.79" y2="-42.329" xlink:href="#linear-gradient-5"/>
    <linearGradient id="linear-gradient-51" x1="31.102" y1="22.046" x2="30.362" y2="24.483" xlink:href="#linear-gradient-2"/>
    <linearGradient id="linear-gradient-52" x1="23.832" y1="0.134" x2="23.432" y2="0.8" xlink:href="#linear-gradient-2"/>
  </defs>
  <g id="Group_1057" data-name="Group 1057" transform="translate(-133.58 -447.589)">
    <path id="Path_918" data-name="Path 918" d="M672.527,692.838a92.562,92.562,0,0,1-13.7,12.83c-44.682,35.667-97.553,25.27-108.79,22.731-16.593-3.749-48.667-11-71.856-41.333-35.083-45.9-29.62-118.208-2.407-165.941,4.978-8.731,31.271-57.191,84.711-64.963,32.342-4.7,70.042,4.783,97.343,30.229C715.139,539.8,711.059,647.709,672.527,692.838Z" transform="translate(-284.331)" fill="#9feac3" opacity="0.8"/>
    <g id="Group_1028" data-name="Group 1028" transform="translate(-801.582 478.024)">
      <g id="Group_1026" data-name="Group 1026" transform="translate(0 5.899)">
        <path id="Path_998" data-name="Path 998" d="M768.067,661.405c55.929-2.978,98.854,39.947,95.876,95.876S813.21,860.964,757.281,863.943,658.427,824,661.405,768.067,712.137,664.383,768.067,661.405Z" transform="translate(0 107.088) rotate(-45)" fill="#8dd8ae" opacity="0.8"/>
        <g id="Group_1023" data-name="Group 1023" transform="translate(992.659 11.497)">
          <ellipse id="Ellipse_38" data-name="Ellipse 38" cx="81.827" cy="91.031" rx="81.827" ry="91.031" transform="translate(4.098 4.56)" fill="#00b02b" stroke="#1a2e35" stroke-linecap="round" stroke-linejoin="round" stroke-width="1"/>
          <path id="Path_919" data-name="Path 919" d="M783.825,1053.287c-47.379,0-85.925-42.882-85.925-95.591S736.446,862.1,783.825,862.1,869.75,904.987,869.75,957.7,831.2,1053.287,783.825,1053.287Zm0-186.623C738.706,866.665,702,907.5,702,957.7s36.707,91.031,81.826,91.031,81.826-40.836,81.826-91.031S828.944,866.665,783.825,866.665Z" transform="translate(-697.9 -862.105)" fill="#fff"/>
        </g>
        <g id="Group_1024" data-name="Group 1024" transform="translate(517.385 47.032)">
          <path id="Path_999" data-name="Path 999" d="M399.634,344.136c29.1-1.55,51.435,20.785,49.885,49.885s-26.4,53.948-55.5,55.5-51.435-20.785-49.885-49.885S370.533,345.686,399.634,344.136Z" transform="translate(0 60.056) rotate(-45)" fill="#00b02b" stroke="#1a2e35" stroke-linecap="round" stroke-width="1"/>
          <path id="Path_920" data-name="Path 920" d="M1109.783,1340.125c-29.767,0-53.984-26.942-53.984-60.057s24.217-60.056,53.984-60.056,53.984,26.941,53.984,60.056S1139.549,1340.125,1109.783,1340.125Zm0-110.994c-25.247,0-45.787,22.85-45.787,50.938s20.54,50.938,45.787,50.938,45.787-22.851,45.787-50.938S1135.03,1229.131,1109.783,1229.131Z" transform="translate(-548.584 -1220.012)" fill="#fff"/>
        </g>
        <g id="Group_1025" data-name="Group 1025" transform="translate(861.159 81.027)">
          <path id="Path_1000" data-name="Path 1000" d="M154.83,133.329a17.977,17.977,0,0,1,19.327,19.327,23.247,23.247,0,0,1-21.5,21.5,17.977,17.977,0,0,1-19.327-19.327A23.247,23.247,0,0,1,154.83,133.329Z" transform="translate(0 26.061) rotate(-45)" fill="url(#linear-gradient)"/>
          <path id="Path_921" data-name="Path 921" d="M1421.629,1614.532c-12.917,0-23.425-11.691-23.425-26.061s10.509-26.061,23.425-26.061,23.426,11.691,23.426,26.061S1434.546,1614.532,1421.629,1614.532Zm0-43c-8.4,0-15.229,7.6-15.229,16.942s6.832,16.942,15.229,16.942,15.229-7.6,15.229-16.942S1430.026,1571.529,1421.629,1571.529Z" transform="translate(-1204.204 -1562.41)" fill="#fff"/>
        </g>
      </g>
      <g id="Group_1027" data-name="Group 1027" transform="translate(689.258)">
        <path id="Path_1001" data-name="Path 1001" d="M0,0,3.041.162,9.173,115.31l-3.041-.162Z" transform="matrix(-0.707, -0.707, 0.707, -0.707, 405.759, 99.511)" fill="url(#linear-gradient-2)"/>
        <path id="Path_922" data-name="Path 922" d="M1672.464,1609.681c1.168-1.3,6.674,4.826,5.506,6.125l-20.421,17.86c-.754.66-1.732-.428-1.139-1.267Z" transform="translate(-1267.3 -1517.9)" fill="url(#linear-gradient-3)"/>
        <path id="Path_923" data-name="Path 923" d="M2487.575,825.905l10.37,1.147-14.237,15.838a20.755,20.755,0,0,1-17.74,7.051h0Z" transform="translate(-2004.774 -812.103)" fill="#91b3fa"/>
        <path id="Path_924" data-name="Path 924" d="M2463.663,698.432l-1.031-11.537L2448.4,702.733a26.154,26.154,0,0,0-6.338,19.735h0Z" transform="translate(-1982.898 -686.895)" fill="#91b3fa"/>
      </g>
    </g>
    <g id="Group_1039" data-name="Group 1039" transform="translate(175.584 455.229)">
      <g id="Group_1033" data-name="Group 1033" transform="translate(0 7.521)">
        <g id="Group_1029" data-name="Group 1029" opacity="0.3">
          <path id="Path_925" data-name="Path 925" d="M583.523,543.9a.69.69,0,0,1-1.049,0c-.563-.626-1.158-1.235-1.77-1.808a.891.891,0,0,1-.1-1.151l.009-.013a.691.691,0,0,1,1.045-.1c.644.6,1.271,1.244,1.863,1.9a.9.9,0,0,1,.052,1.1A.745.745,0,0,1,583.523,543.9Zm-5.97-4.374c-.676-.475-1.377-.923-2.084-1.331a.873.873,0,0,1-.317-1.113.707.707,0,0,1,1-.352c.743.429,1.481.9,2.193,1.4a.882.882,0,0,1,.231,1.139.855.855,0,0,1-.051.08A.692.692,0,0,1,577.554,539.523Zm-5.664-3.057c-.752-.3-1.525-.558-2.3-.78a.837.837,0,0,1-.532-1.006.74.74,0,0,1,.9-.592c.813.234,1.627.51,2.419.821a.875.875,0,0,1,.33,1.3A.7.7,0,0,1,571.89,536.466Zm-6.136-1.571c-.794-.1-1.6-.164-2.4-.189a.793.793,0,0,1-.721-.848.782.782,0,0,1,.762-.8c.84.026,1.689.093,2.524.2a.81.81,0,0,1,.653.914.872.872,0,0,1-.16.426A.708.708,0,0,1,565.754,534.9Zm-6.3-.011c-.792.1-1.591.234-2.376.406a.749.749,0,0,1-.871-.65.826.826,0,0,1,.584-.969c.825-.181,1.666-.325,2.5-.428a.765.765,0,0,1,.819.729.888.888,0,0,1-.161.611A.723.723,0,0,1,559.456,534.884Zm-6.143,1.539c-.754.29-1.506.62-2.235.981a.714.714,0,0,1-.979-.419.864.864,0,0,1,.377-1.089c.768-.38,1.559-.727,2.353-1.032a.726.726,0,0,1,.944.51.9.9,0,0,1-.125.79A.744.744,0,0,1,553.313,536.424ZM534.391,558.7a.837.837,0,0,1-.531-1.007c.212-.9.462-1.809.743-2.691a.725.725,0,0,1,.947-.5.852.852,0,0,1,.451,1.053c-.267.838-.5,1.7-.705,2.556a.86.86,0,0,1-.141.311A.7.7,0,0,1,534.391,558.7Zm13.243-19.259c-.677.469-1.343.977-1.981,1.509a.694.694,0,0,1-1.039-.165.889.889,0,0,1,.149-1.155c.672-.56,1.374-1.1,2.086-1.589a.7.7,0,0,1,1.022.264.9.9,0,0,1-.053.956A.774.774,0,0,1,547.633,539.438ZM536.559,551.92a.873.873,0,0,1-.315-1.113c.388-.828.813-1.648,1.264-2.438a.7.7,0,0,1,1.024-.255.882.882,0,0,1,.229,1.139c-.428.751-.832,1.53-1.2,2.317a.837.837,0,0,1-.082.139A.693.693,0,0,1,536.559,551.92Zm6.143-8.132c-.565.625-1.113,1.286-1.629,1.965a.691.691,0,0,1-1.046.1.891.891,0,0,1-.1-1.149l.01-.013c.543-.714,1.12-1.41,1.714-2.069a.69.69,0,0,1,1.049,0,.9.9,0,0,1,.051,1.1C542.739,543.745,542.721,543.767,542.7,543.788Z" transform="translate(-532.984 -533.056)" fill="#91b3fa"/>
          <path id="Path_926" data-name="Path 926" d="M525.617,821.967a.873.873,0,0,0,.163-.458c.028-.424.065-.855.108-1.281a.81.81,0,0,0-.652-.914.763.763,0,0,0-.821.726c-.046.447-.085.9-.114,1.347a.8.8,0,0,0,.685.884A.71.71,0,0,0,525.617,821.967Z" transform="translate(-524.298 -790.888)" fill="#91b3fa"/>
        </g>
        <g id="Group_1030" data-name="Group 1030" transform="translate(6.502 33.033)" opacity="0.3">
          <path id="Path_927" data-name="Path 927" d="M599.251,1064.758a.9.9,0,0,0-.024-1.07c-.255-.317-.509-.645-.753-.975a.692.692,0,0,0-1.044-.112.889.889,0,0,0-.1,1.162c.258.348.525.693.793,1.027a.691.691,0,0,0,1.048.064A.8.8,0,0,0,599.251,1064.758Z" transform="translate(-597.158 -1042.888)" fill="#91b3fa"/>
          <path id="Path_928" data-name="Path 928" d="M678.957,939.263a.691.691,0,0,1-1.048.064.892.892,0,0,1-.058-1.165c.52-.646,1.024-1.328,1.5-2.032a.694.694,0,0,1,1.039-.16.888.888,0,0,1,.144,1.156q-.311.458-.634.9C679.6,938.447,679.279,938.863,678.957,939.263Zm2.786-5.585a.876.876,0,0,1-.283-1.123c.385-.763.746-1.552,1.071-2.346a.712.712,0,0,1,.983-.408.866.866,0,0,1,.367,1.093c-.343.836-.722,1.667-1.128,2.469a.826.826,0,0,1-.071.116A.693.693,0,0,1,681.742,933.678ZM676.06,942.4c-.629.594-1.29,1.166-1.965,1.7a.7.7,0,0,1-1.035-.194.887.887,0,0,1,.174-1.151c.641-.507,1.268-1.05,1.866-1.614a.692.692,0,0,1,1.046.1.9.9,0,0,1,.011,1.053A.8.8,0,0,1,676.06,942.4Zm8.319-15.164a.844.844,0,0,1-.5-1.027c.225-.837.42-1.695.581-2.549a.747.747,0,0,1,.878-.639.828.828,0,0,1,.574.976c-.169.9-.375,1.8-.612,2.685a.859.859,0,0,1-.134.283A.7.7,0,0,1,684.379,927.236Zm-13.728,19.213c-.731.425-1.489.821-2.252,1.178a.717.717,0,0,1-.971-.441.861.861,0,0,1,.4-1.081c.725-.339,1.445-.715,2.139-1.119a.707.707,0,0,1,1,.349.9.9,0,0,1-.081.9A.764.764,0,0,1,670.652,946.449Zm-6.076,2.631c-.8.238-1.616.44-2.429.6a.752.752,0,0,1-.862-.666.822.822,0,0,1,.6-.958c.772-.155,1.549-.347,2.308-.573a.737.737,0,0,1,.908.584.9.9,0,0,1-.141.733A.736.736,0,0,1,664.576,949.081Zm-6.447,1.1c-.827.039-1.664.039-2.489,0a.8.8,0,0,1-.71-.859.778.778,0,0,1,.772-.79c.784.036,1.579.036,2.365,0a.778.778,0,0,1,.772.79.883.883,0,0,1-.165.554A.718.718,0,0,1,658.129,950.177Zm-6.508-.495c-.814-.164-1.632-.368-2.43-.607a.839.839,0,0,1-.523-1.012.738.738,0,0,1,.909-.582c.757.227,1.534.421,2.307.576a.822.822,0,0,1,.6.959.866.866,0,0,1-.153.373A.7.7,0,0,1,651.621,949.682Zm-6.255-2.075c-.76-.358-1.516-.758-2.248-1.187a.873.873,0,0,1-.31-1.115.707.707,0,0,1,1-.345c.7.408,1.413.787,2.135,1.127a.862.862,0,0,1,.393,1.082.847.847,0,0,1-.107.2A.7.7,0,0,1,645.366,947.608Zm-5.687-3.548c-.495-.393-.985-.808-1.457-1.234q-.256-.231-.506-.467a.88.88,0,0,1-.086-1.163.691.691,0,0,1,1.046-.1q.238.224.481.444c.448.4.914.8,1.385,1.173a.886.886,0,0,1,.172,1.151l-.028.041A.692.692,0,0,1,639.679,944.059Z" transform="translate(-633.854 -917.32)" fill="#91b3fa"/>
          <path id="Path_929" data-name="Path 929" d="M1171.42,868.427a.877.877,0,0,0,.164-.463c.027-.446.047-.9.058-1.352a.792.792,0,0,0-.721-.848.781.781,0,0,0-.762.8c-.011.429-.029.861-.055,1.284a.8.8,0,0,0,.689.88A.71.71,0,0,0,1171.42,868.427Z" transform="translate(-1118.969 -865.765)" fill="#91b3fa"/>
        </g>
        <g id="Group_1032" data-name="Group 1032" transform="translate(7.083 8.022)">
          <path id="Path_930" data-name="Path 930" d="M647.192,630.848a.364.364,0,0,0-.3-.3l-4.186-.594a20.7,20.7,0,0,0-3.35-5.478l1.036-4.548a.407.407,0,0,0-.146-.417l-4.233-3.088a.319.319,0,0,0-.4.017l-3.336,2.871a16.752,16.752,0,0,0-5.852-1.234l-2.159-4.034a.334.334,0,0,0-.368-.18l-4.956,1.147a.372.372,0,0,0-.273.329l-.534,4.657a18.425,18.425,0,0,0-4.924,3.727l-4.088-1.153a.331.331,0,0,0-.375.162l-2.775,4.709a.421.421,0,0,0,.016.448l2.58,3.711a22.494,22.494,0,0,0-1.109,6.51l-3.626,2.4a.4.4,0,0,0-.162.41l1.031,5.513a.364.364,0,0,0,.3.3l4.186.595a20.7,20.7,0,0,0,3.35,5.478l-1.036,4.548a.407.407,0,0,0,.146.417l4.233,3.088a.319.319,0,0,0,.4-.017l3.336-2.871a16.752,16.752,0,0,0,5.852,1.234l2.159,4.034a.334.334,0,0,0,.368.18l4.956-1.147a.372.372,0,0,0,.273-.329l.534-4.657a18.427,18.427,0,0,0,4.924-3.727l4.088,1.153a.331.331,0,0,0,.375-.163l2.775-4.709a.422.422,0,0,0-.016-.448l-2.58-3.711a22.5,22.5,0,0,0,1.109-6.51l3.626-2.4a.4.4,0,0,0,.162-.41Z" transform="translate(-603.666 -613.852)" fill="#91b3fa"/>
          <g id="Group_1031" data-name="Group 1031" transform="translate(17.194 19.131)">
            <path id="Path_931" data-name="Path 931" d="M804.851,816.36a4.74,4.74,0,0,1-7.189-.338,6.007,6.007,0,0,1-1.337-4.069,5.9,5.9,0,0,1,1.641-3.929,4.74,4.74,0,0,1,7.189.338,6.159,6.159,0,0,1,.208,7.392A5.5,5.5,0,0,1,804.851,816.36Zm-7.34-4.351a4.606,4.606,0,0,0,1.025,3.12,3.634,3.634,0,0,0,5.512.259,4.7,4.7,0,0,0,.233-6.132,3.634,3.634,0,0,0-5.512-.259,4.245,4.245,0,0,0-.4.469A4.6,4.6,0,0,0,797.51,812.009Z" transform="translate(-796.32 -806.535)" fill="#bdd0fb"/>
          </g>
          <path id="Path_932" data-name="Path 932" d="M734.128,746.228q.4-.552.758-1.155h0q.112-.19.218-.383a14.676,14.676,0,0,0,.905-1.989l.01-.028.029-.08c.019-.052.037-.1.055-.156a.354.354,0,0,0-.09-.375.282.282,0,0,0-.464.138,13.939,13.939,0,0,1-1.16,2.511,11.633,11.633,0,0,1-10.138,5.984,11.012,11.012,0,0,1-6.363-2.166,12.212,12.212,0,0,1-.99-.8,13.469,13.469,0,0,1-4.143-7.583,14.4,14.4,0,0,1,1.7-9.969c3.605-6.116,11.005-7.826,16.5-3.818a12.1,12.1,0,0,1,.978.794,13.091,13.091,0,0,1,3.214,4.509.324.324,0,0,0,.08.113.272.272,0,0,0,.316.041.347.347,0,0,0,.138-.441,13.744,13.744,0,0,0-3.374-4.734,12.722,12.722,0,0,0-1.026-.834c-5.769-4.208-13.541-2.408-17.322,4.008a15.121,15.121,0,0,0-1.786,10.466,14.141,14.141,0,0,0,4.349,7.961,12.986,12.986,0,0,0,1.04.845,11.406,11.406,0,0,0,9.407,1.987A12.282,12.282,0,0,0,734.128,746.228Z" transform="translate(-702.248 -712.639)" fill="#bdd0fb"/>
        </g>
      </g>
      <g id="Group_1038" data-name="Group 1038" transform="translate(48.074)">
        <g id="Group_1034" data-name="Group 1034" opacity="0.3">
          <path id="Path_933" data-name="Path 933" d="M1424.741,542.374a.556.556,0,0,0,.021-.61c-.221-.356-.454-.71-.694-1.051a.428.428,0,0,0-.643-.087.548.548,0,0,0-.079.716c.229.325.451.662.662,1a.43.43,0,0,0,.637.13A.488.488,0,0,0,1424.741,542.374Z" transform="translate(-1391.094 -532.255)" fill="#91b3fa"/>
          <path id="Path_934" data-name="Path 934" d="M1094.318,464.453a.426.426,0,0,1-.648,0,19.9,19.9,0,0,0-1.43-1.43q-.157-.142-.318-.28a.549.549,0,0,1-.081-.715.442.442,0,0,1,.643-.09q.168.145.332.293a20.762,20.762,0,0,1,1.5,1.5.553.553,0,0,1,.033.682C1094.339,464.427,1094.329,464.44,1094.318,464.453ZM1090,461.285a18.371,18.371,0,0,0-2.067-1.188.533.533,0,0,1-.234-.672.442.442,0,0,1,.6-.261,19.206,19.206,0,0,1,2.166,1.246.544.544,0,0,1,.159.7.538.538,0,0,1-.038.06A.427.427,0,0,1,1090,461.285Zm-4.25-2.083a17.213,17.213,0,0,0-2.266-.587.507.507,0,0,1-.376-.587.465.465,0,0,1,.528-.418,18.083,18.083,0,0,1,2.377.616.521.521,0,0,1,.308.634.537.537,0,0,1-.083.175A.432.432,0,0,1,1085.75,459.2Zm-4.58-.858a17.006,17.006,0,0,0-2.326.048.476.476,0,0,1-.494-.467.5.5,0,0,1,.42-.549,17.874,17.874,0,0,1,2.439-.05.492.492,0,0,1,.438.531.544.544,0,0,1-.1.3A.44.44,0,0,1,1081.17,458.344Zm-4.63.412a17.589,17.589,0,0,0-2.246.675.449.449,0,0,1-.58-.32.524.524,0,0,1,.288-.646,18.467,18.467,0,0,1,2.354-.707.462.462,0,0,1,.541.4.553.553,0,0,1-.093.424A.453.453,0,0,1,1076.54,458.756Zm-4.4,1.65a18.371,18.371,0,0,0-2.028,1.263.431.431,0,0,1-.633-.152.546.546,0,0,1,.137-.7,19.283,19.283,0,0,1,2.127-1.325.439.439,0,0,1,.611.238.557.557,0,0,1-.057.542A.466.466,0,0,1,1072.14,460.406Zm-3.9,2.8a19.868,19.868,0,0,0-1.689,1.78.426.426,0,0,1-.648.025.555.555,0,0,1-.023-.721,20.972,20.972,0,0,1,1.771-1.866.427.427,0,0,1,.646.064.555.555,0,0,1,0,.647A.5.5,0,0,1,1068.239,463.2Zm-5.041,6.161a.541.541,0,0,1-.179-.693,22.669,22.669,0,0,1,1.124-2c.061-.1.124-.195.187-.291a.425.425,0,0,1,.64-.112.548.548,0,0,1,.1.712c-.059.09-.118.181-.176.275a21.624,21.624,0,0,0-1.074,1.908.506.506,0,0,1-.045.075A.428.428,0,0,1,1063.2,469.363Z" transform="translate(-1062.962 -457.305)" fill="#91b3fa"/>
        </g>
        <g id="Group_1035" data-name="Group 1035" transform="translate(12.772 22.113)" opacity="0.3">
          <path id="Path_935" data-name="Path 935" d="M1225.872,729.178a21.447,21.447,0,0,1-1.643,1.944.426.426,0,0,1-.648-.022.554.554,0,0,1,.02-.721,20.347,20.347,0,0,0,1.567-1.854.427.427,0,0,1,.645-.066.551.551,0,0,1,.063.713Zm.788-2a.545.545,0,0,1-.136-.7,22.069,22.069,0,0,0,1.126-2.218.439.439,0,0,1,.613-.234.537.537,0,0,1,.211.681,23.071,23.071,0,0,1-1.18,2.324.531.531,0,0,1-.029.045A.427.427,0,0,1,1226.66,727.178Zm-4.276,5.652a19.786,19.786,0,0,1-2.017,1.445.435.435,0,0,1-.624-.2.541.541,0,0,1,.175-.694,18.9,18.9,0,0,0,1.925-1.378.429.429,0,0,1,.64.11.556.556,0,0,1-.014.622A.482.482,0,0,1,1222.384,732.83Zm6.427-10.279a.526.526,0,0,1-.284-.648,22.8,22.8,0,0,0,.611-2.454.462.462,0,0,1,.543-.393.512.512,0,0,1,.353.6,23.808,23.808,0,0,1-.641,2.574.533.533,0,0,1-.077.155A.431.431,0,0,1,1228.811,722.551Zm-10.6,12.884a18.6,18.6,0,0,1-2.27.862.455.455,0,0,1-.563-.356.518.518,0,0,1,.32-.627,17.574,17.574,0,0,0,2.165-.822.443.443,0,0,1,.6.278.556.556,0,0,1-.068.515A.465.465,0,0,1,1218.208,735.435Zm-4.617,1.415a18.06,18.06,0,0,1-2.39.233.482.482,0,0,1-.47-.5.489.489,0,0,1,.445-.524,17.256,17.256,0,0,0,2.28-.223.468.468,0,0,1,.521.429.55.55,0,0,1-.1.4A.449.449,0,0,1,1213.591,736.85Zm-4.789.144a17.946,17.946,0,0,1-2.372-.412.513.513,0,0,1-.35-.607.461.461,0,0,1,.545-.389,16.972,16.972,0,0,0,2.261.392.5.5,0,0,1,.413.555.537.537,0,0,1-.1.273A.438.438,0,0,1,1208.8,736.995Z" transform="translate(-1206.07 -715.171)" fill="#91b3fa"/>
          <path id="Path_936" data-name="Path 936" d="M1469.161,682.125a.539.539,0,0,0,.1-.277c.034-.435.056-.872.067-1.3a.49.49,0,0,0-.446-.524.484.484,0,0,0-.471.5c-.01.409-.031.827-.064,1.241a.5.5,0,0,0,.417.552A.438.438,0,0,0,1469.161,682.125Z" transform="translate(-1444.939 -680.023)" fill="#91b3fa"/>
        </g>
        <g id="Group_1037" data-name="Group 1037" transform="translate(2.341 5.334)">
          <path id="Path_937" data-name="Path 937" d="M1118.314,522.4a.244.244,0,0,0-.2-.2l-2.8-.4a13.854,13.854,0,0,0-2.242-3.666l.693-3.043a.273.273,0,0,0-.1-.279l-2.833-2.066a.213.213,0,0,0-.269.012l-2.232,1.921a11.206,11.206,0,0,0-3.916-.826l-1.445-2.7a.224.224,0,0,0-.247-.121l-3.316.767a.249.249,0,0,0-.183.22l-.358,3.116a12.329,12.329,0,0,0-3.3,2.494l-2.735-.772a.222.222,0,0,0-.251.109l-1.857,3.151a.282.282,0,0,0,.01.3l1.727,2.483a15.049,15.049,0,0,0-.742,4.356l-2.426,1.607a.27.27,0,0,0-.108.274l.69,3.689a.244.244,0,0,0,.2.2l2.8.4a13.847,13.847,0,0,0,2.242,3.666l-.693,3.043a.272.272,0,0,0,.1.279l2.833,2.066a.213.213,0,0,0,.269-.012l2.232-1.921a11.21,11.21,0,0,0,3.916.826l1.445,2.7a.224.224,0,0,0,.247.121l3.316-.767a.249.249,0,0,0,.183-.22l.358-3.116a12.328,12.328,0,0,0,3.295-2.494l2.735.771a.222.222,0,0,0,.251-.109l1.857-3.151a.282.282,0,0,0-.01-.3l-1.727-2.483a15.053,15.053,0,0,0,.742-4.356l2.426-1.607a.27.27,0,0,0,.109-.274Z" transform="translate(-1089.188 -511.026)" fill="#91b3fa"/>
          <g id="Group_1036" data-name="Group 1036" transform="translate(11.446 12.733)">
            <path id="Path_938" data-name="Path 938" d="M1223.25,645.968a3.245,3.245,0,0,1-2.492,1.013,3.308,3.308,0,0,1-2.406-1.243,4.173,4.173,0,0,1,.207-5.448,3.229,3.229,0,0,1,4.9.23,4.19,4.19,0,0,1,.145,5.031A3.784,3.784,0,0,1,1223.25,645.968Zm-4.223-.92a2.435,2.435,0,0,0,1.77.915,2.389,2.389,0,0,0,1.833-.745h0a2.965,2.965,0,0,0,.822-1.969,3.01,3.01,0,0,0-.67-2.038,2.375,2.375,0,0,0-3.6-.17,2.774,2.774,0,0,0-.256.3A3.086,3.086,0,0,0,1219.027,645.049Z" transform="translate(-1217.441 -639.276)" fill="#bdd0fb"/>
          </g>
          <path id="Path_939" data-name="Path 939" d="M1174.044,597.1q.274-.376.518-.789a10.093,10.093,0,0,0,.811-1.736l.029-.082a.547.547,0,0,0-.138-.579.453.453,0,0,0-.124-.08.446.446,0,0,0-.592.292,9,9,0,0,1-.751,1.625h0l-.05.084a7.988,7.988,0,0,1-2.809,2.811,7.27,7.27,0,0,1-1.953.787l-.017,0-.051.012a7.033,7.033,0,0,1-5.8-1.225,7.9,7.9,0,0,1-.641-.521,8.721,8.721,0,0,1-2.682-4.909,9.325,9.325,0,0,1,1.1-6.453,7.707,7.707,0,0,1,4.881-3.7,7.034,7.034,0,0,1,5.8,1.225,7.843,7.843,0,0,1,.633.514,8.473,8.473,0,0,1,2.08,2.919.5.5,0,0,0,.124.174.421.421,0,0,0,.488.063.537.537,0,0,0,.213-.681,9.483,9.483,0,0,0-2.327-3.266,8.771,8.771,0,0,0-.708-.575,7.869,7.869,0,0,0-6.491-1.371,8.606,8.606,0,0,0-5.46,4.136,10.429,10.429,0,0,0-1.232,7.22,9.754,9.754,0,0,0,3,5.492,8.923,8.923,0,0,0,.717.583A8.061,8.061,0,0,0,1174.044,597.1Z" transform="translate(-1152.505 -574.454)" fill="#bdd0fb"/>
        </g>
      </g>
    </g>
    <g id="Group_1045" data-name="Group 1045" transform="translate(172.139 576.69)">
      <path id="Path_940" data-name="Path 940" d="M805.5,3164.231s-.516,3.078-.782,6.127a2.042,2.042,0,0,0,1.788,2.3c3.652.208,11.463.62,14.268.51a.682.682,0,0,0,.549-.931,1.479,1.479,0,0,0-.7-.833l-12.851-6.737Z" transform="translate(-776.24 -3016.933)" fill="url(#linear-gradient-4)"/>
      <path id="Path_941" data-name="Path 941" d="M809.255,3141.092l.362,3.692s2.251,1.195,3.806-.107l-.9-4.119Z" transform="translate(-780.379 -2995.61)" fill="url(#linear-gradient-5)"/>
      <path id="Path_942" data-name="Path 942" d="M714.161,2446.8c-.178.961-1.324,48.045,3.02,69.2a.738.738,0,0,1-.385.829,10.237,10.237,0,0,1-3.692.794,1.13,1.13,0,0,1-1.093-.9c-1.251-4.91-7.239-29.508-7.846-52.951-.679-26.2.008-.892.008-.892l.669-16.181Z" transform="translate(-684.395 -2370.645)" fill="url(#linear-gradient-6)"/>
      <path id="Path_943" data-name="Path 943" d="M630.639,3178.843a23.946,23.946,0,0,0-1.582,5.676,1.272,1.272,0,0,0,1,1.547,43.084,43.084,0,0,0,4.548.339,1.235,1.235,0,0,0,1.15-1.415,11.488,11.488,0,0,0-2.213-5.941Z" transform="translate(-616.239 -3030.094)" fill="url(#linear-gradient-7)"/>
      <path id="Path_944" data-name="Path 944" d="M639.839,3129.34l.871,5.586a2.968,2.968,0,0,0,2.7.236l-.387-6Z" transform="translate(-626.082 -2985.342)" fill="url(#linear-gradient-8)"/>
      <path id="Path_945" data-name="Path 945" d="M601.813,2438.474c-3.914,24.807.276,61.418,1.734,68.59a1.059,1.059,0,0,0,.8.856,6.077,6.077,0,0,0,2.9-.1,1.007,1.007,0,0,0,.669-.935c.253-5.783.191-41.306,3.76-55.306a3.2,3.2,0,0,1,1.121-1.747l6.738-5.222.586-8.551Z" transform="translate(-589.968 -2361.061)" fill="url(#linear-gradient-9)"/>
      <g id="Group_1040" data-name="Group 1040" transform="translate(10.623 11.807)">
        <path id="Path_946" data-name="Path 946" d="M629.937,1971.5c-11.088-.322-23.355,2.992-23.355,2.992-3.49,21.424-.974,46.2-.974,46.2,8.564,2.6,18.284-1.338,18.284-1.338,1.5-8.954,8.378-34.126,8.378-34.126a33.939,33.939,0,0,0,13.6-4.643,27.932,27.932,0,0,1-4.606-10.986A33.748,33.748,0,0,1,629.937,1971.5Z" transform="translate(-604.731 -1952.72)" fill="url(#linear-gradient-10)"/>
        <path id="Path_947" data-name="Path 947" d="M1035.666,1800.526a1.98,1.98,0,0,0-2.462-.8c-1.7,7.652-10.308,13.78-19.126,16.726a27.932,27.932,0,0,0,4.606,10.986C1033.353,1818.469,1035.666,1800.526,1035.666,1800.526Z" transform="translate(-977.545 -1799.573)" fill="url(#linear-gradient-11)"/>
      </g>
      <g id="Group_1041" data-name="Group 1041" transform="translate(66.307)">
        <path id="Path_948" data-name="Path 948" d="M1230.835,1693.785c.111.4-1.215,1-1.978-.653-.02-.791-.423-4.181.007-4.82a60.373,60.373,0,0,1,6.71-7.656,1.254,1.254,0,0,1,.117,1.613l-2.147,2.442a12.006,12.006,0,0,1,1.218,2.743,3.641,3.641,0,0,1-.318,2.436c-.38.744-.9,1.711-1.385,2.467A2.854,2.854,0,0,1,1230.835,1693.785Z" transform="translate(-1228.666 -1680.656)" fill="url(#linear-gradient-12)"/>
        <path id="Path_949" data-name="Path 949" d="M1246.435,1737.5l-1.953,1.807-.624,1.813,1.709,2.151a27.071,27.071,0,0,1,1.05-4.38C1247.056,1738.114,1246.835,1737.734,1246.435,1737.5Z" transform="translate(-1242.502 -1731.857)" fill="url(#linear-gradient-13)"/>
      </g>
      <path id="Path_950" data-name="Path 950" d="M504.974,2030.833l-4.151-11.992s-10.426,7.72-12.215,17.63a22.608,22.608,0,0,1,8.982,2.781C498.4,2034.572,504.974,2030.833,504.974,2030.833Z" transform="translate(-488.348 -1985.264)" fill="url(#linear-gradient-14)"/>
      <path id="Path_951" data-name="Path 951" d="M511.277,2202.107s-11.693,7.189-15.564.9a5.348,5.348,0,0,1-.776-3.822,22.606,22.606,0,0,0-8.982-2.781,15.069,15.069,0,0,0,1.258,9.407c6.754,14.062,25.576-.5,25.576-.5Z" transform="translate(-485.695 -2145.201)" fill="url(#linear-gradient-15)"/>
      <path id="Path_952" data-name="Path 952" d="M725.028,1886.621l-3.626,11.315a.431.431,0,0,0,.163.495c.957.6,4.408,2.349,8.609-.553a1.949,1.949,0,0,0,.809-1.367l1.227-9.814Z" transform="translate(-700.346 -1866.172)" fill="url(#linear-gradient-16)"/>
      <g id="Group_1042" data-name="Group 1042" transform="translate(18.021 4.115)">
        <path id="Path_953" data-name="Path 953" d="M756.732,1781.556s3.805,8.156,3.281,11.428-5.325,2.986-9.5.28l-2.855-8.793Z" transform="translate(-742.302 -1775.653)" fill="url(#linear-gradient-17)"/>
        <path id="Path_954" data-name="Path 954" d="M696.051,1735.409a.352.352,0,0,0,.135-.488,9.215,9.215,0,0,1-1.056-2.558s-.692-.5,1.783-1.135,6.167-1.613,6.961-3.943c.774-2.272-1.16-8.027-4.362-3.492a.283.283,0,0,1-.476,0c-.512-.756-1.862-2.33-3.763-1.4a3.189,3.189,0,0,0-1.973,3.036.311.311,0,0,1-.357.337,3.338,3.338,0,0,0-4.066,2.057c-.844,2.012-.316,3.161.168,3.726a.348.348,0,0,1-.133.552c-.59.194-1.355.741-1.292,2.276.087,2.122,2.22,1.958,2.828,1.868a.285.285,0,0,1,.266.108c.515.646,2.836,3.391,5.371,3.746a.329.329,0,0,0,.322-.442l-1.068-3.563a.349.349,0,0,1,.167-.415Z" transform="translate(-687.614 -1722.098)" fill="url(#linear-gradient-18)"/>
        <path id="Path_955" data-name="Path 955" d="M756.732,1851.605s-2.741-2.135-2.958-.364,2.462,2.595,3.8,1.948Z" transform="translate(-747.859 -1837.786)" fill="url(#linear-gradient-19)"/>
      </g>
      <g id="Group_1044" data-name="Group 1044" transform="translate(23.167 41.464)">
        <g id="Group_1043" data-name="Group 1043">
          <path id="Path_956" data-name="Path 956" d="M745.3,2125.085l6.37-24.747a.673.673,0,0,1,.549-.52c1.154-.15,4.5-.571,8.359-.934a85.3,85.3,0,0,1,13.279-.49.73.73,0,0,1,.532,1.042c-1.835,4.131-9.385,20.934-13.165,26.438a.633.633,0,0,1-.525.287l-14.779-.153A.713.713,0,0,1,745.3,2125.085Z" transform="translate(-745.279 -2098.282)" fill="url(#linear-gradient-20)"/>
          <path id="Path_957" data-name="Path 957" d="M756.538,2231.477s-.887-4.059-.529-5.5,1.051-3.292,3.363-2.88a31.179,31.179,0,0,1,5.038,1.495s-.138,1.876-1.895,1.271l1.089.938s-.156,1.5-1.64.7l1.013,1.244a1.131,1.131,0,0,1-1.729.442C760.158,2228.4,759.634,2231.966,756.538,2231.477Z" transform="translate(-754.974 -2210.653)" fill="url(#linear-gradient-21)"/>
        </g>
        <path id="Path_958" data-name="Path 958" d="M911.991,2159.889a1.88,1.88,0,1,0,1.87-2.08A1.983,1.983,0,0,0,911.991,2159.889Z" transform="translate(-897.113 -2151.899)" fill="#91b3fa"/>
        <path id="Path_959" data-name="Path 959" d="M820.146,2122.077l1.3-4.894a1.586,1.586,0,0,1,1.133-1.178c4.065-.943,15.19-1.144,15.3-1.146l-.007-.553c-.459.008-11.285.2-15.4,1.157a2.107,2.107,0,0,0-1.509,1.562l-1.3,4.894Z" transform="translate(-813.03 -2112.716)" fill="#bdd0fb"/>
      </g>
    </g>
    <g id="Group_1056" data-name="Group 1056" transform="translate(280.986 575.796)">
      <g id="Group_1046" data-name="Group 1046" transform="translate(86.324)">
        <path id="Path_960" data-name="Path 960" d="M2673.242,1819.618a.408.408,0,0,1,.779.092c.378,1.513,1.292,4.152,3.21,5.089.1.047.188.095.277.143a1.188,1.188,0,0,0-.12-.981c-.6-1.014.48-2.4.48-2.4a3.252,3.252,0,0,0,.9,1.988,3.213,3.213,0,0,1,.572,3.341c-1.038,4.487-2.593,10.421,3.463,14.756s14.585-8.182,14.585-8.182l-4.233,14.929s-6.534,5.364-14.134-2.179-2.562-18.519-2.562-18.519S2670.666,1825.1,2673.242,1819.618Z" transform="translate(-2672.582 -1804.701)" fill="url(#linear-gradient-22)"/>
        <path id="Path_961" data-name="Path 961" d="M2933.356,1678.479s-1.755-8.756,7.261-6.438c0,0,4.376-.8,4.6,3.8,0,0,2.821,2.068.756,6.045,0,0,8.384-3.6,12.036,4.573s.295,12.673-3.225,13.845a4.061,4.061,0,0,1,1.5,5.19c-1.35,3.6-8.186,6.132-12.224,1.758,0,0-11.49,1.689-11.26-7.34,0,0-5.344-3.839.269-11.3S2933.356,1678.479,2933.356,1678.479Z" transform="translate(-2907.485 -1671.65)" fill="url(#linear-gradient-23)"/>
        <path id="Path_962" data-name="Path 962" d="M2885.11,1939.959c1.812-.6,7.086-1.72,12.1,3.431a3.715,3.715,0,0,1,.9,3.444c-1.347,5.52-4.9,21.827-1.785,28.882,0,0-5.494,6.738-11.488,1.307,0,0-2.689-13.039-6.212-18.763-2.432-3.952,3.878-14.84,5.474-17.471A1.9,1.9,0,0,1,2885.11,1939.959Z" transform="translate(-2859.734 -1912.835)" fill="url(#linear-gradient-24)"/>
        <path id="Path_963" data-name="Path 963" d="M2976.371,1834.4s2.679,8.431,2.881,12.151a5.255,5.255,0,0,1-5.751-1.03s-.293-8.421-.716-9.929Z" transform="translate(-2945.993 -1818.24)" fill="url(#linear-gradient-25)"/>
        <path id="Path_964" data-name="Path 964" d="M2928.881,1718.052s-7.008,10.91-2.819,14.079,9.178-4.584,9.178-4.584,1.626-5.972-.074-8S2928.881,1718.052,2928.881,1718.052Z" transform="translate(-2902.224 -1713.389)" fill="url(#linear-gradient-26)"/>
        <path id="Path_965" data-name="Path 965" d="M2969.866,1691.035s-3.219.849-3.67,2.469,4.565,3.123,5.971,3.2l1.133,6.539s3.348-6.151,2.022-9.7S2969.866,1691.035,2969.866,1691.035Z" transform="translate(-2939.966 -1688.979)" fill="url(#linear-gradient-27)"/>
        <path id="Path_966" data-name="Path 966" d="M3027.3,1788.029s2.728-3.514,3.813-1.223-2.455,4.011-3.681,2.886Z" transform="translate(-2995.643 -1774.674)" fill="url(#linear-gradient-28)"/>
        <path id="Path_967" data-name="Path 967" d="M2860,2593.9c.021.592-.914,5.287-1.422,7.792a4.53,4.53,0,0,0,.4,2.959l17.608,32.969a4.8,4.8,0,0,1,.462,1.283,31.349,31.349,0,0,1,.642,8.788l-.911,2.1,3.939-1,.857-11.77-1.115-.756a5.772,5.772,0,0,1-2.143-2.792c-1.592-4.3-5.546-15.255-6.565-20.592-1.158-6.066-7.213-10.993-7.213-10.993l1.064-2.8Z" transform="translate(-2841.899 -2502.336)" fill="url(#linear-gradient-29)"/>
        <path id="Path_968" data-name="Path 968" d="M3059.683,3027.87s-2.127-3.752-2.377-5.213-.947-4.04-2.259-3.263a95.281,95.281,0,0,0-.405,9.867c.213,2.772-2.817,2.683-2.817,2.683a2.712,2.712,0,0,0-1.447.811.807.807,0,0,0,.476,1.327,15.365,15.365,0,0,0,4.22-.266,1.4,1.4,0,0,0,1.042-1.325l.437-8.166,2.683,3.77Z" transform="translate(-3016.482 -2885.454)" fill="url(#linear-gradient-30)"/>
        <path id="Path_969" data-name="Path 969" d="M2955.923,2639.591s.621,29.49.705,33.678-.594,13.47-4.368,16.245l1.642,1.353a24.013,24.013,0,0,0,4.058-5.675,34.9,34.9,0,0,1,2.934-4.962l-.748-1.7a4.127,4.127,0,0,1-.273-2.4c.814-4.392,3.535-19,4.278-22.144.876-3.713.938-8.672-2.11-12.823S2955.923,2639.591,2955.923,2639.591Z" transform="translate(-2927.299 -2542.773)" fill="url(#linear-gradient-31)"/>
        <path id="Path_970" data-name="Path 970" d="M2940.524,3061.662a.24.24,0,0,0,.233-.221,41.907,41.907,0,0,1,1.076-5.945c.49-1.169,2.091-6.088,0-6.506,0,0-5.2,8.453-6.2,9.593a1.8,1.8,0,0,1-2.258.4,3.759,3.759,0,0,0-1.706,1.363.776.776,0,0,0,.542,1.231l3.5.037a2.479,2.479,0,0,0,2.311-1.727c.617-1.713,1.676-4.227,2.91-5.342l-.641,6.833a.251.251,0,0,0,.23.287Z" transform="translate(-2908.416 -2912.24)" fill="url(#linear-gradient-32)"/>
        <path id="Path_971" data-name="Path 971" d="M2863.146,2268.624a15.332,15.332,0,0,1-.423,7.409l-7.523,29.226a.93.93,0,0,0,.509,1.1,45.522,45.522,0,0,0,19.745,2.664,1.191,1.191,0,0,0,1.045-.993c.666-3.332,2.936-14.7,3.4-17.035,1.781-8.9,3.77-18.5-4.979-24.3C2870.891,2268.614,2867.13,2269.747,2863.146,2268.624Z" transform="translate(-2838.873 -2207.614)" fill="url(#linear-gradient-33)"/>
        <path id="Path_972" data-name="Path 972" d="M3027.388,1984.307s8.56,7.913,10.684,18.727S3025.564,2015,3025.564,2015s-1.986-2.468-4.344-1.588-.183-4.307,2.576-4.293,1.481,2.441,5.384.474c3.8-1.916,6.152-7.842-3.549-16.824a4.89,4.89,0,0,1-1.281-1.941C3022.465,1985.547,3023.96,1982.088,3027.388,1984.307Z" transform="translate(-2989.19 -1952.65)" fill="url(#linear-gradient-34)"/>
      </g>
      <g id="Group_1055" data-name="Group 1055" transform="translate(0 26.821)">
        <g id="Group_1049" data-name="Group 1049" transform="translate(52.13 76.883)">
          <g id="Group_1047" data-name="Group 1047" transform="translate(15.778 8.747)">
            <rect id="Rectangle_319" data-name="Rectangle 319" width="3.053" height="36.731" fill="#7d97f4"/>
          </g>
          <g id="Group_1048" data-name="Group 1048" transform="translate(3.934 43.975)">
            <path id="Path_973" data-name="Path 973" d="M2360.266,3161.274h-26.74v-1.966a.234.234,0,0,1,.221-.245h26.3a.234.234,0,0,1,.22.245Z" transform="translate(-2333.526 -3159.063)" fill="#7d97f4"/>
          </g>
          <rect id="Rectangle_320" data-name="Rectangle 320" width="35.731" height="11.274" rx="5.637" fill="#7d97f4"/>
        </g>
        <g id="Group_1051" data-name="Group 1051" transform="translate(24.196)">
          <path id="Path_974" data-name="Path 974" d="M2084.891,3054s-9.87,4.73-9.3,9.679c0,0,10.2-2.177,12.029-5.421s.82-5.124.82-5.124Z" transform="translate(-2066.717 -2942.79)" fill="url(#linear-gradient-35)"/>
          <path id="Path_975" data-name="Path 975" d="M2163.822,3007.4l.5,4.819a1.621,1.621,0,0,1-.906,1.693,3.4,3.4,0,0,1-1.251.213,1.7,1.7,0,0,1-1.621-1.354l-.971-3.9Z" transform="translate(-2143.23 -2901.603)" fill="url(#linear-gradient-36)"/>
          <path id="Path_976" data-name="Path 976" d="M2131.53,2634.69s-18.154-.935-27.188,4.926.458,33.989.458,33.989,2.36.564,5.758-1.456c0,0-4.849-20.591,3.574-24.174a43.906,43.906,0,0,1,19.264-3.048l-1.815-9.6Z" transform="translate(-2089.376 -2565.846)" fill="url(#linear-gradient-37)"/>
          <path id="Path_977" data-name="Path 977" d="M2060.755,3107.636c2.064-.5,8.186-3.325,9.115-3.287s2.247,1.588,2.247,1.588a3.013,3.013,0,0,1-.438,2.063c-1.577,1.368-4.975,3.88-8.925,4.156a6.3,6.3,0,0,1-5.654-2.332A7.875,7.875,0,0,1,2060.755,3107.636Z" transform="translate(-2049.902 -2988.922)" fill="url(#linear-gradient-38)"/>
          <path id="Path_978" data-name="Path 978" d="M2053.741,3145.28c3.95-.275,7.348-2.787,8.925-4.156a8.061,8.061,0,0,1-2.915,2.824c-3.992,2.509-10.59,2.143-11.9,1.579-1.048-.453-.724-1.542.234-2.579A6.3,6.3,0,0,0,2053.741,3145.28Z" transform="translate(-2040.889 -3022.047)" fill="url(#linear-gradient-39)"/>
          <path id="Path_979" data-name="Path 979" d="M2192.627,3071.542a16.144,16.144,0,0,1-2.417,3.229,1.541,1.541,0,0,1-1.529.512,3.956,3.956,0,0,1-1.095-.427,1.261,1.261,0,0,1-.413-1.615l2.114-4.277Z" transform="translate(-2168.245 -2957.051)" fill="url(#linear-gradient-40)"/>
          <path id="Path_980" data-name="Path 980" d="M2236.041,2618.126s1.584,12.507-3,15.063-14.631,4.23-18.093,10.717-9.678,19.218-15.335,22.876c0,0-3.231-1.169-4.175-2.937,0,0,6.715-19.639,9.517-24.412,2.426-4.134,5.974-10.089,11.014-12.665,1.443-.737,1.556-2.44,1.3-4.184l-.462-3.175Z" transform="translate(-2175.895 -2550.975)" fill="url(#linear-gradient-41)"/>
          <path id="Path_981" data-name="Path 981" d="M2160.706,2306.951c6.424,2.04,9.3-18.072,9.273-18.561l9.849,12.811s-5.868,11.488-14.729,12.71a9.518,9.518,0,0,1-5.749-.937A11.167,11.167,0,0,0,2160.706,2306.951Z" transform="translate(-2143.026 -2253.977)" fill="url(#linear-gradient-42)"/>
          <path id="Path_982" data-name="Path 982" d="M1982.227,2405.777c2.8-1.28,5.175,1.274,5.175,1.274,2.774,3.159,4.974,4.754,6.721,5.309a11.167,11.167,0,0,1-1.356,6.022c-3.461-1.764-5.479-5.33-6.31-7.109a1.148,1.148,0,0,0-1.585-.6c-.594.319-1.205.806-1.243,1.468-.075,1.3-1.471,1.382-1.479.9a20.658,20.658,0,0,1,1.081-3.058s-3.217,2.3-4.469,3.174-2.319-.571-2.319-.571S1979.427,2407.057,1982.227,2405.777Z" transform="translate(-1976.442 -2359.386)" fill="url(#linear-gradient-43)"/>
          <path id="Path_983" data-name="Path 983" d="M2307.414,2188.647s-8.632-6.552-29.48,5.3a8.179,8.179,0,0,0-1.141,6.441c1.006,3.413,13.384,21.886,13.865,30.559,0,0,8.462,5.541,19.446.048C2310.1,2230.992,2313.787,2208.093,2307.414,2188.647Z" transform="translate(-2249.743 -2162.51)" fill="url(#linear-gradient-44)"/>
          <path id="Path_984" data-name="Path 984" d="M2351.853,2120.674l3.411,7.437a2.311,2.311,0,0,1-.2,2.28,5.133,5.133,0,0,1-6.247,1.935,3.142,3.142,0,0,1-2-2.365l-1.768-8.3Z" transform="translate(-2312.158 -2102.913)" fill="url(#linear-gradient-45)"/>
          <path id="Path_985" data-name="Path 985" d="M2590.655,2231c.584-4.521-10.153-13.282-10.153-13.282l3.761-12.686s20.489,16.267,16.18,29.551a9.347,9.347,0,0,1-2.663,4.275C2595.611,2233.912,2592.668,2231.855,2590.655,2231Z" transform="translate(-2526.592 -2178.9)" fill="url(#linear-gradient-46)"/>
          <path id="Path_986" data-name="Path 986" d="M2433.494,2467.833s12.146,3.774,14.666-.339a2.3,2.3,0,0,0,.314-.915c2.013.851,4.956,2.908,7.125,7.858-5.767,5.047-16.886-.61-19.907-2.306a1.94,1.94,0,0,0-1.6-.149,13.29,13.29,0,0,1-3.974.889c-1.518-.093-3.147,6.009-5.73,4.464C2424.388,2477.335,2425.562,2466.91,2433.494,2467.833Z" transform="translate(-2384.41 -2414.475)" fill="url(#linear-gradient-47)"/>
          <g id="Group_1050" data-name="Group 1050" transform="translate(28.114)">
            <path id="Path_987" data-name="Path 987" d="M2298.663,1995.411c-.108.1-4.608,8.847-6.9,13.3a2.754,2.754,0,0,0,1.119,3.71l.992.473c1.356.646,4.271,1.188,5.419.157l7.234-8.495S2301.1,1993.069,2298.663,1995.411Z" transform="translate(-2291.453 -1989.804)" fill="url(#linear-gradient-48)"/>
            <path id="Path_988" data-name="Path 988" d="M2358.387,1954.228a2.712,2.712,0,0,0,1.124-3.663,3.205,3.205,0,0,0-3.587-2.065.907.907,0,0,1-.954-.721.737.737,0,0,0-.629-.566.989.989,0,0,1-.7-1.232,3.139,3.139,0,0,0-1.338-3.576c-2.753-1.854-5.327.839-6.044,3.181s2.371,4.163,4.343,4.535c1.5.283,2.23,2.206,2.495,3.112a1.087,1.087,0,0,1-.105.851l-2.2,3.718c.6.847,1.141,1.741,1.669,2.646.2-.237.371-.434.506-.572.955-.974,2.654-.471,3.354-.2a.8.8,0,0,0,.694-.057,2.7,2.7,0,0,0,1.039-3.995A1.064,1.064,0,0,1,2358.387,1954.228Z" transform="translate(-2341.274 -1941.787)" fill="url(#linear-gradient-49)"/>
            <path id="Path_989" data-name="Path 989" d="M2407.861,2111.219s1.406-4.021,3-3.8,2.794,2.06.731,3.966C2409.031,2113.76,2407.861,2111.219,2407.861,2111.219Z" transform="translate(-2397.472 -2090.969)" fill="url(#linear-gradient-50)"/>
          </g>
        </g>
        <g id="Group_1052" data-name="Group 1052" transform="translate(1.931 33.3)">
          <path id="Path_990" data-name="Path 990" d="M2049.453,2539.932l-.065,0-28.376-.035a1.421,1.421,0,0,1,0-2.826l28.376.034a1.425,1.425,0,0,1,.062,2.824Z" transform="translate(-1993.614 -2511.27)" fill="url(#linear-gradient-51)"/>
          <path id="Path_991" data-name="Path 991" d="M1728.859,2277.188h23.631a4.5,4.5,0,0,1,4.074,2.873l10.925,25.771h-29.368a2.758,2.758,0,0,1-2.546-1.926l-8.472-23.848A2.085,2.085,0,0,1,1728.859,2277.188Z" transform="translate(-1726.97 -2277.188)" fill="url(#linear-gradient-52)"/>
          <path id="Path_992" data-name="Path 992" d="M1896.183,2386.389c.512,1.77.134,3.489-.845,3.839s-2.187-.8-2.7-2.57-.134-3.489.845-3.839S1895.671,2384.619,1896.183,2386.389Z" transform="translate(-1877.646 -2373.175)" fill="#91b3fa"/>
        </g>
        <g id="Group_1054" data-name="Group 1054" transform="translate(0 61.662)">
          <g id="Group_1053" data-name="Group 1053" transform="translate(6.459 2.824)">
            <path id="Path_993" data-name="Path 993" d="M1778.9,2656.469a1.119,1.119,0,0,1-.471-.1,1.324,1.324,0,0,1-.624-1.687l25.008-62.614a1.162,1.162,0,0,1,1.567-.672,1.323,1.323,0,0,1,.624,1.687L1780,2655.692A1.193,1.193,0,0,1,1778.9,2656.469Z" transform="translate(-1777.707 -2591.286)" fill="#91b3fa"/>
            <path id="Path_994" data-name="Path 994" d="M1839.354,2656.467a1.193,1.193,0,0,1-1.1-.777l-25.008-62.614a1.323,1.323,0,0,1,.624-1.687,1.162,1.162,0,0,1,1.567.672l25.008,62.614a1.323,1.323,0,0,1-.624,1.687A1.117,1.117,0,0,1,1839.354,2656.467Z" transform="translate(-1809.99 -2591.284)" fill="#91b3fa"/>
            <path id="Path_995" data-name="Path 995" d="M2646.282,2656.469a1.117,1.117,0,0,1-.47-.1,1.323,1.323,0,0,1-.624-1.687l25.008-62.614a1.162,1.162,0,0,1,1.566-.672,1.323,1.323,0,0,1,.624,1.687l-25.008,62.614A1.193,1.193,0,0,1,2646.282,2656.469Z" transform="translate(-2567.679 -2591.286)" fill="#91b3fa"/>
            <path id="Path_996" data-name="Path 996" d="M2706.735,2656.467a1.193,1.193,0,0,1-1.1-.777l-25.008-62.614a1.323,1.323,0,0,1,.624-1.687,1.162,1.162,0,0,1,1.567.672l25.008,62.614a1.323,1.323,0,0,1-.624,1.687A1.118,1.118,0,0,1,2706.735,2656.467Z" transform="translate(-2599.96 -2591.284)" fill="#91b3fa"/>
          </g>
          <path id="Path_997" data-name="Path 997" d="M1821.5,2564.511a1.662,1.662,0,0,0-.237-1.158,1.055,1.055,0,0,0-.868-.51H1706.625a1.258,1.258,0,0,0-1.091.744,1.96,1.96,0,0,0-.085,1.545l1.233,3.323a1.747,1.747,0,0,0,1.567,1.248h111.363a1.42,1.42,0,0,0,1.283-1.319Z" transform="translate(-1705.33 -2562.844)" fill="#91b3fa"/>
        </g>
      </g>
    </g>
  </g>
</svg>
