<svg xmlns="http://www.w3.org/2000/svg" width="114" height="114" viewBox="0 0 114 114">
  <g id="Group_1143" data-name="Group 1143" transform="translate(-121.337 -97.356)">
    <rect id="Rectangle_358" data-name="Rectangle 358" width="114" height="114" rx="22" transform="translate(235.337 97.356) rotate(90)" fill="#14c13a"/>
    <path id="Path_1089" data-name="Path 1089" d="M128.059,169.539l4.752-17.734a32.807,32.807,0,1,1,13.071,12.958Zm18.708-11.422,1.123.671a26.641,26.641,0,1,0-9.114-9.033l.69,1.131-2.655,9.9Z" transform="translate(19.482 17.074)" fill="#fff"/>
    <path id="Path_1090" data-name="Path 1090" d="M160.573,127.322c-1.345-.807-3.1-1.708-4.686-1.056-1.22.5-2,2.405-2.787,3.376a1.159,1.159,0,0,1-1.509.327,21.241,21.241,0,0,1-10.6-9.075,1.306,1.306,0,0,1,.164-1.778,7.149,7.149,0,0,0,1.926-3.123,6.8,6.8,0,0,0-.862-3.7c-.635-1.376-1.353-3.341-2.729-4.117a3.742,3.742,0,0,0-4.066.6,8.248,8.248,0,0,0-2.861,6.534,9.471,9.471,0,0,0,.257,2.074,17.189,17.189,0,0,0,1.992,4.588,35.26,35.26,0,0,0,2.078,3.158A32.06,32.06,0,0,0,145.9,133.5a27.323,27.323,0,0,0,5.622,2.674c2.2.725,4.16,1.485,6.538,1.033a7.924,7.924,0,0,0,5.933-4.413,3.827,3.827,0,0,0,.273-2.249C163.929,128.994,161.828,128.07,160.573,127.322Z" transform="translate(32.533 30.296)" fill="#fff"/>
  </g>
</svg>
