<svg xmlns="http://www.w3.org/2000/svg" width="114" height="114" viewBox="0 0 114 114">
  <g id="Group_1140" data-name="Group 1140" transform="translate(-42.009 -12.227)">
    <rect id="Rectangle_355" data-name="Rectangle 355" width="113.999" height="113.999" rx="22" transform="translate(156.008 12.227) rotate(90)" fill="#b800ee"/>
    <g id="Group_1139" data-name="Group 1139" transform="translate(65.77 35.986)">
      <path id="Path_1084" data-name="Path 1084" d="M69.669,24.152a3.9,3.9,0,1,0,3.9,3.9A3.9,3.9,0,0,0,69.669,24.152Z" transform="translate(-18.83 -12.281)" fill="#fff"/>
      <path id="Path_1085" data-name="Path 1085" d="M72.088,25.839A16.372,16.372,0,1,0,88.459,42.211,16.391,16.391,0,0,0,72.088,25.839Zm0,26.86A10.488,10.488,0,1,1,82.573,42.211,10.5,10.5,0,0,1,72.088,52.7Z" transform="translate(-38.574 -8.97)" fill="#fff"/>
      <path id="Path_1086" data-name="Path 1086" d="M96.439,86.627H69.9A19.991,19.991,0,0,1,49.928,66.659V40.113A19.991,19.991,0,0,1,69.9,20.145H96.439a19.993,19.993,0,0,1,19.968,19.968V66.659A19.993,19.993,0,0,1,96.439,86.627ZM69.9,26.4A13.729,13.729,0,0,0,56.182,40.113V66.659A13.729,13.729,0,0,0,69.9,80.373H96.439a13.731,13.731,0,0,0,13.714-13.714V40.113A13.731,13.731,0,0,0,96.439,26.4Z" transform="translate(-49.928 -20.145)" fill="#fff"/>
    </g>
  </g>
</svg>
