<svg xmlns="http://www.w3.org/2000/svg" width="114" height="114" viewBox="0 0 114 114">
  <g id="Group_1142" data-name="Group 1142" transform="translate(-113.193 -47.621)">
    <rect id="Rectangle_357" data-name="Rectangle 357" width="114" height="114" rx="22" transform="translate(227.193 47.621) rotate(90)" fill="#70a5ff"/>
    <path id="Path_1088" data-name="Path 1088" d="M181.924,61.79a25.674,25.674,0,0,1-6.288,1.793c1.014-.168,2.5-2,3.091-2.741a11.464,11.464,0,0,0,2.09-3.8c.055-.109.094-.246-.016-.327a.351.351,0,0,0-.331.027,32.108,32.108,0,0,1-7.454,2.854.5.5,0,0,1-.515-.136,6.233,6.233,0,0,0-.651-.667,13.207,13.207,0,0,0-3.614-2.21,12.565,12.565,0,0,0-5.536-.893,13.2,13.2,0,0,0-5.255,1.485,13.479,13.479,0,0,0-4.238,3.462,13,13,0,0,0-2.534,5.068,13.819,13.819,0,0,0-.133,5.353c.039.3.016.339-.257.3-10.237-1.524-18.724-5.189-25.613-13.036-.3-.343-.46-.343-.706.023-3.017,4.518-1.552,11.781,2.214,15.348.5.476,1.017.951,1.571,1.384a13.024,13.024,0,0,1-4.939-1.384c-.3-.191-.452-.082-.476.257a7.553,7.553,0,0,0,.078,1.466,13.138,13.138,0,0,0,8.1,10.471,7.474,7.474,0,0,0,1.641.5,14.611,14.611,0,0,1-4.846.148c-.355-.066-.491.109-.355.448,2.132,5.816,6.736,7.543,10.187,8.53.46.082.92.082,1.384.191-.027.039-.055.039-.082.082-1.142,1.743-5.107,3.041-6.955,3.684a24.9,24.9,0,0,1-10.565,1.353c-.569-.082-.686-.078-.842,0-.156.1-.019.234.164.378.721.476,1.454.9,2.2,1.306a34.857,34.857,0,0,0,7.064,2.826c12.689,3.5,26.985.928,36.513-8.538,7.485-7.438,10.1-17.691,10.1-27.955,0-.4.476-.624.76-.834a24.6,24.6,0,0,0,4.967-5.169,1.567,1.567,0,0,0,.331-.99V61.79C182.181,61.627,182.177,61.677,181.924,61.79Z" transform="translate(19.762 23.298)" fill="#fff"/>
  </g>
</svg>
