<svg xmlns="http://www.w3.org/2000/svg" width="114" height="114" viewBox="0 0 114 114">
  <g id="Group_1141" data-name="Group 1141" transform="translate(-81.916 -97.393)">
    <rect id="Rectangle_356" data-name="Rectangle 356" width="114" height="114" rx="22" transform="translate(195.916 97.393) rotate(90)" fill="red"/>
    <path id="Path_1087" data-name="Path 1087" d="M150.739,120.065a13.688,13.688,0,0,0-13.687-13.687h-35a13.688,13.688,0,0,0-13.687,13.687v16.288a13.688,13.688,0,0,0,13.687,13.687h35a13.688,13.688,0,0,0,13.687-13.687Zm-20.584,9.364-15.695,7.762c-.612.335-2.706-.109-2.706-.811V120.443c0-.71,2.109-1.154,2.725-.8l15.024,8.171C130.133,128.17,130.8,129.082,130.156,129.429Z" transform="translate(18.692 26.041)" fill="#fff"/>
  </g>
</svg>
