<svg xmlns="http://www.w3.org/2000/svg" width="26" height="31">
  <g fill="none" fill-rule="nonzero">
    <path fill="#253B80" d="m7.266 29.154.523-3.322-1.165-.027H1.061L4.927 1.292c.012-.074.051-.143.108-.192.057-.049.13-.076.206-.076h9.38c3.114 0 5.263.648 6.385 1.927.526.6.861 1.227 1.023 1.917.17.724.173 1.589.007 2.644l-.012.077v.676l.526.298c.443.235.795.504 1.065.812.45.513.741 1.165.864 1.938.127.795.085 1.741-.123 2.812-.24 1.232-.628 2.305-1.152 3.183-.482.809-1.096 1.48-1.825 2-.696.494-1.523.869-2.458 1.109-.906.236-1.939.355-3.072.355h-.73c-.522 0-1.029.188-1.427.525-.399.344-.663.814-.744 1.328l-.055.299-.924 5.855-.042.215c-.011.068-.03.102-.058.125-.025.021-.061.035-.096.035H7.266Z"/>
    <path fill="#179BD7" d="M23.048 7.667c-.028.179-.06.362-.096.55-1.237 6.351-5.469 8.545-10.874 8.545H9.326c-.661 0-1.218.48-1.321 1.132L6.596 26.83l-.399 2.533c-.067.428.263.814.695.814h4.881c.578 0 1.069-.42 1.16-.99l.048-.248.919-5.832.059-.32c.09-.572.582-.992 1.16-.992h.73c4.729 0 8.431-1.92 9.513-7.476.452-2.321.218-4.259-.978-5.622-.362-.411-.811-.752-1.336-1.03Z"/>
    <path fill="#222D65" d="M21.754 7.151c-.189-.055-.384-.105-.584-.15-.201-.044-.407-.083-.619-.117-.742-.12-1.555-.177-2.426-.177h-7.352c-.181 0-.353.041-.507.115-.339.163-.591.484-.652.877L8.05 17.605l-.045.289c.103-.652.66-1.132 1.321-1.132h2.752c5.405 0 9.637-2.195 10.874-8.545.037-.188.068-.371.096-.55-.313-.166-.652-.308-1.017-.429-.09-.03-.183-.059-.277-.087Z"/>
    <path fill="#253B80" d="M9.614 7.699c.061-.393.313-.714.652-.876.155-.074.326-.115.507-.115h7.352c.871 0 1.684.057 2.426.177.212.034.418.073.619.117.2.045.395.095.584.15.094.028.187.057.278.086.365.121.704.264 1.017.429.368-2.347-.003-3.945-1.272-5.392C20.378.682 17.853 0 14.622 0h-9.38c-.66 0-1.223.48-1.325 1.133L.01 25.898c-.077.49.301.932.795.932h5.791l1.454-9.225 1.564-9.906Z"/>
  </g>
</svg>
