<svg id="Group_1148" data-name="Group 1148" xmlns="http://www.w3.org/2000/svg" xmlns:xlink="http://www.w3.org/1999/xlink" width="251.794" height="235.331" viewBox="0 0 251.794 235.331">
  <defs>
    <filter id="Rectangle_360" x="0" y="0" width="251.794" height="235.331" filterUnits="userSpaceOnUse">
      <feOffset input="SourceAlpha"/>
      <feGaussianBlur stdDeviation="10" result="blur"/>
      <feFlood flood-opacity="0.2"/>
      <feComposite operator="in" in2="blur"/>
      <feComposite in="SourceGraphic"/>
    </filter>
  </defs>
  <g transform="matrix(1, 0, 0, 1, 0, 0)" filter="url(#Rectangle_360)">
    <path id="Rectangle_360-2" data-name="Rectangle 360" d="M71.417,38.84l107.128-6.3a37.411,37.411,0,0,1,16.424,2.693,38.706,38.706,0,0,1,13.5,9.324A43.34,43.34,0,0,1,217.5,59.2a48.883,48.883,0,0,1,2.988,18.45l-2.169,79.11a51.467,51.467,0,0,1-4.039,18.727,47.76,47.76,0,0,1-9.954,14.935,42.409,42.409,0,0,1-14.208,9.553,38.548,38.548,0,0,1-16.8,2.771l-108.02-6.4a30.916,30.916,0,0,1-13.83-4.227A36.531,36.531,0,0,1,40.655,182.3a44.589,44.589,0,0,1-6.874-13.889,50.774,50.774,0,0,1-2.018-16.59l2.873-69.192A51.841,51.841,0,0,1,38,66.246,48.406,48.406,0,0,1,45.94,52.6a40.6,40.6,0,0,1,11.479-9.618A32.877,32.877,0,0,1,71.417,38.84Z" transform="translate(0 0)" fill="#ffb200"/>
  </g>
  <g id="Group_1147" data-name="Group 1147" transform="translate(43.546 67.284)">
    <g id="Group_1145" data-name="Group 1145" transform="translate(0 2.861)">
      <g id="Group_404" data-name="Group 404">
        <path id="Rectangle_111" data-name="Rectangle 111" d="M8.8.046a5.412,5.412,0,0,1,2.531.607,6.256,6.256,0,0,1,2.027,1.692A7.794,7.794,0,0,1,14.668,4.87a9.206,9.206,0,0,1,.4,3.1L13.14,56.592,0,56.121,1.954,7.985A9.585,9.585,0,0,1,2.589,4.91a8.668,8.668,0,0,1,1.5-2.517A7.078,7.078,0,0,1,6.224.685,5.736,5.736,0,0,1,8.8.046Z" transform="translate(0 38.125)" fill="#fff"/>
        <path id="Rectangle_112" data-name="Rectangle 112" d="M10.4.237A5.554,5.554,0,0,1,13,.775,6.161,6.161,0,0,1,15.081,2.42a7.552,7.552,0,0,1,1.357,2.506,9.015,9.015,0,0,1,.415,3.114L13.518,95.4,0,94.915,3.389,8.434a9.646,9.646,0,0,1,.645-3.116,9,9,0,0,1,1.53-2.579A7.526,7.526,0,0,1,7.757.957,6.1,6.1,0,0,1,10.4.237Z" transform="translate(18.626 0)" fill="#fff"/>
        <path id="Rectangle_113" data-name="Rectangle 113" d="M8.882.021a5.892,5.892,0,0,1,2.683.635,6.66,6.66,0,0,1,2.153,1.751,8.03,8.03,0,0,1,1.4,2.607,9.266,9.266,0,0,1,.434,3.2L13.913,52.968,0,52.469,1.671,8.17a9.593,9.593,0,0,1,.66-3.165A8.788,8.788,0,0,1,3.9,2.419,7.38,7.38,0,0,1,6.162.67,6.18,6.18,0,0,1,8.882.021Z" transform="translate(37.789 43.133)" fill="#fff"/>
        <path id="Rectangle_114" data-name="Rectangle 114" d="M9.984.16a6.082,6.082,0,0,1,2.76.588,6.66,6.66,0,0,1,2.218,1.725,7.893,7.893,0,0,1,1.449,2.6A9.138,9.138,0,0,1,16.864,8.3L14.326,80.464,0,79.95,2.589,8.533A9.638,9.638,0,0,1,3.26,5.324,9.051,9.051,0,0,1,4.871,2.681,7.761,7.761,0,0,1,7.189.869,6.524,6.524,0,0,1,9.984.16Z" transform="translate(57.513 16.359)" fill="#fff"/>
      </g>
    </g>
    <g id="Group_1146" data-name="Group 1146" transform="translate(77.761)">
      <g id="Group_404-2" data-name="Group 404">
        <path id="Rectangle_111-2" data-name="Rectangle 111" d="M9.377.051a6.4,6.4,0,0,1,2.846.642,7.027,7.027,0,0,1,2.291,1.792,8.191,8.191,0,0,1,1.5,2.676,9.273,9.273,0,0,1,.473,3.289L14.756,59.987,0,59.458,1.77,8.463a9.616,9.616,0,0,1,.685-3.258A8.992,8.992,0,0,1,4.111,2.539,7.8,7.8,0,0,1,6.5.73,6.712,6.712,0,0,1,9.377.051Z" transform="translate(0 40.438)" fill="#fff"/>
        <path id="Rectangle_112-2" data-name="Rectangle 112" d="M10.84.267a6.592,6.592,0,0,1,2.928.564,6.945,6.945,0,0,1,2.36,1.74,7.943,7.943,0,0,1,1.548,2.654,9.073,9.073,0,0,1,.494,3.3l-2.964,92.665L0,100.646,3.038,8.968a9.681,9.681,0,0,1,.7-3.3,9.358,9.358,0,0,1,1.7-2.736,8.3,8.3,0,0,1,2.45-1.893A7.142,7.142,0,0,1,10.84.267Z" transform="translate(20.921 0)" fill="#fff"/>
        <path id="Rectangle_113-2" data-name="Rectangle 113" d="M9.526.024A7.009,7.009,0,0,1,12.554.7,7.526,7.526,0,0,1,15,2.555,8.475,8.475,0,0,1,16.6,5.323a9.343,9.343,0,0,1,.518,3.4L15.679,56.244,0,55.682,1.481,8.671A9.626,9.626,0,0,1,2.2,5.314,9.138,9.138,0,0,1,3.942,2.57,8.169,8.169,0,0,1,6.469.713,7.27,7.27,0,0,1,9.526.024Z" transform="translate(42.484 45.736)" fill="#fff"/>
        <path id="Rectangle_114-2" data-name="Rectangle 114" d="M10.527.181A7.258,7.258,0,0,1,13.646.8,7.553,7.553,0,0,1,16.166,2.63,8.342,8.342,0,0,1,17.826,5.4a9.21,9.21,0,0,1,.541,3.421L16.173,85.508,0,84.929,2.263,9.08A9.674,9.674,0,0,1,2.99,5.673,9.43,9.43,0,0,1,4.782,2.865,8.611,8.611,0,0,1,7.381.938,7.69,7.69,0,0,1,10.527.181Z" transform="translate(64.716 17.287)" fill="#fff"/>
      </g>
    </g>
  </g>
</svg>
