<svg xmlns="http://www.w3.org/2000/svg" xmlns:xlink="http://www.w3.org/1999/xlink" width="134.115" height="100.939" viewBox="0 0 134.115 100.939">
  <defs>
    <filter id="Path_347" x="0" y="0" width="134.115" height="100.939" filterUnits="userSpaceOnUse">
      <feOffset input="SourceAlpha"/>
      <feGaussianBlur stdDeviation="3" result="blur"/>
      <feFlood flood-color="#085648"/>
      <feComposite operator="in" in2="blur"/>
      <feComposite in="SourceGraphic"/>
    </filter>
  </defs>
  <g id="Group_455" data-name="Group 455" transform="translate(9 9)">
    <g transform="matrix(1, 0, 0, 1, -9, -9)" filter="url(#Path_347)">
      <path id="Path_347-2" data-name="Path 347" d="M24.882,0H91.233a24.882,24.882,0,0,1,24.882,24.882V58.058A24.882,24.882,0,0,1,91.233,82.939H24.882A24.882,24.882,0,0,1,0,58.058V24.882A24.882,24.882,0,0,1,24.882,0Z" transform="translate(9 9)" fill="#fff"/>
    </g>
    <path id="Icon_material-edit" data-name="Icon material-edit" d="M5.25,38.739v8.813H16.136L48.242,21.561,37.356,12.748ZM56.66,14.746a2.041,2.041,0,0,0,0-3.314l-6.793-5.5a3.39,3.39,0,0,0-4.093,0l-5.312,4.3,10.886,8.813Z" transform="translate(26.267 14.66)" fill="#00b22d"/>
  </g>
</svg>
