<svg id="Ring_Chart5" data-name="Ring Chart5" xmlns="http://www.w3.org/2000/svg" width="304.368" height="348.928" viewBox="0 0 304.368 348.928">
  <path id="Path_329" data-name="Path 329" d="M0,11.947a138.856,138.856,0,0,1,47.377,4.64A144.664,144.664,0,0,1,91.014,37.041a154.524,154.524,0,0,1,36.1,34.93,164.755,164.755,0,0,1,24.445,47.4A171.208,171.208,0,0,1,160,173.165a170.589,170.589,0,0,1-8.439,52.419,162.912,162.912,0,0,1-23.718,46.146,151.724,151.724,0,0,1-36.829,35.486l-26.845-40a108.523,108.523,0,0,0,25.5-25.387,116.5,116.5,0,0,0,16.28-32.492,121.887,121.887,0,0,0,5.766-36.644,122.315,122.315,0,0,0-5.766-37.6,117.794,117.794,0,0,0-16.781-33.378,110.526,110.526,0,0,0-25-24.986,103.352,103.352,0,0,0-30.557-15.1A98.914,98.914,0,0,0,0,57.562Z" transform="translate(144.367 9.822)" fill="#ffb200"/>
  <path id="Path_330" data-name="Path 330" d="M222.487,103.475a143.435,143.435,0,0,1-32.922,16.642,139.343,139.343,0,0,1-34.658,7.428,138.678,138.678,0,0,1-34.75-1.477,141.4,141.4,0,0,1-33.4-10.052A147.052,147.052,0,0,1,56.833,98.3a154.371,154.371,0,0,1-24.8-23.79A161.7,161.7,0,0,1,12.9,45.808,167.719,167.719,0,0,1,0,13.162L35.751.843A119.583,119.583,0,0,0,45.306,24.5,115.061,115.061,0,0,0,59.412,45.149a109.633,109.633,0,0,0,18.167,16.9A104.323,104.323,0,0,0,99.324,74.371a100.346,100.346,0,0,0,24.053,6.679,98.589,98.589,0,0,0,24.778.487,99.308,99.308,0,0,0,24.468-5.824,102.459,102.459,0,0,0,23.019-12.238Z" transform="translate(12.893 213.562)" fill="#00b22d"/>
  <path id="Path_331" data-name="Path 331" d="M6.3,92.814A171.42,171.42,0,0,1,6.3.682L42.047,13.416a121.28,121.28,0,0,0-3.51,16.623,122.7,122.7,0,0,0,3.51,50.456Z" transform="translate(6.597 133.911)" fill="#7003f5"/>
  <path id="Path_332" data-name="Path 332" d="M0,113.471a166.015,166.015,0,0,1,18.534-42.7,156.608,156.608,0,0,1,28.9-34.678,146.047,146.047,0,0,1,37.6-24.5A137.74,137.74,0,0,1,129.585,0V45.275a97.756,97.756,0,0,0-32.031,7.6A103.59,103.59,0,0,0,70.2,70,111.294,111.294,0,0,0,48.964,94.8,118.313,118.313,0,0,0,35.251,125.71Z" transform="translate(0 0)" fill="#fb135a"/>
</svg>
