<svg id="Group_453" data-name="Group 453" xmlns="http://www.w3.org/2000/svg" xmlns:xlink="http://www.w3.org/1999/xlink" width="128.721" height="102.422" viewBox="0 0 128.721 102.422">
  <defs>
    <filter id="Path_374" x="0" y="0" width="128.721" height="102.422" filterUnits="userSpaceOnUse">
      <feOffset input="SourceAlpha"/>
      <feGaussianBlur stdDeviation="3" result="blur"/>
      <feFlood flood-color="#085648"/>
      <feComposite operator="in" in2="blur"/>
      <feComposite in="SourceGraphic"/>
    </filter>
  </defs>
  <g transform="matrix(1, 0, 0, 1, 0, 0)" filter="url(#Path_374)">
    <path id="Path_374-2" data-name="Path 374" d="M33.387,9l63.256.007a21.965,21.965,0,0,1,9.024,1.931A23.035,23.035,0,0,1,113,16.188a24.564,24.564,0,0,1,4.923,7.766,25.72,25.72,0,0,1,1.8,9.51v32.6a26.087,26.087,0,0,1-1.8,9.557A25.436,25.436,0,0,1,113,83.519a23.9,23.9,0,0,1-7.33,5.439,22.335,22.335,0,0,1-9.024,2.167L33.387,92.783a23.115,23.115,0,0,1-9.448-1.733,23.594,23.594,0,0,1-7.757-5.217,24.616,24.616,0,0,1-5.251-7.92A25.622,25.622,0,0,1,9,68.1V34.326a26,26,0,0,1,1.93-9.867A25.506,25.506,0,0,1,16.181,16.4a24.46,24.46,0,0,1,7.757-5.42A23.457,23.457,0,0,1,33.387,9Z" fill="#fff"/>
  </g>
  <path id="Icon_awesome-chart-bar" data-name="Icon awesome-chart-bar" d="M36.168,32.265l4.12-.065a1.067,1.067,0,0,0,.5-.146,1.625,1.625,0,0,0,.439-.371,1.893,1.893,0,0,0,.311-.519,1.614,1.614,0,0,0,.118-.591V13.72a1.591,1.591,0,0,0-.118-.588,1.831,1.831,0,0,0-.311-.511,1.566,1.566,0,0,0-.439-.36,1.047,1.047,0,0,0-.5-.133l-4.12.039a1.066,1.066,0,0,0-.505.143,1.615,1.615,0,0,0-.441.369,1.882,1.882,0,0,0-.312.518,1.609,1.609,0,0,0-.118.592v16.89a1.586,1.586,0,0,0,.118.589,1.82,1.82,0,0,0,.312.51,1.557,1.557,0,0,0,.441.357A1.047,1.047,0,0,0,36.168,32.265ZM46.449,32.1l4.093-.065a1.058,1.058,0,0,0,.5-.145,1.615,1.615,0,0,0,.436-.369A1.888,1.888,0,0,0,51.787,31a1.613,1.613,0,0,0,.117-.589V1.619a1.593,1.593,0,0,0-.117-.587,1.835,1.835,0,0,0-.309-.511,1.565,1.565,0,0,0-.436-.36,1.041,1.041,0,0,0-.5-.135L46.449.05a1.054,1.054,0,0,0-.5.141,1.6,1.6,0,0,0-.438.366,1.867,1.867,0,0,0-.31.515,1.6,1.6,0,0,0-.118.589V30.52a1.585,1.585,0,0,0,.118.587,1.815,1.815,0,0,0,.31.509,1.548,1.548,0,0,0,.438.356A1.037,1.037,0,0,0,46.449,32.1ZM15.4,32.594l4.175-.066a1.087,1.087,0,0,0,.51-.147,1.644,1.644,0,0,0,.445-.373,1.9,1.9,0,0,0,.315-.522,1.615,1.615,0,0,0,.119-.6V22a1.59,1.59,0,0,0-.119-.592,1.834,1.834,0,0,0-.315-.514,1.578,1.578,0,0,0-.445-.361,1.064,1.064,0,0,0-.51-.133l-4.175.05a1.088,1.088,0,0,0-.512.145,1.64,1.64,0,0,0-.447.372,1.9,1.9,0,0,0-.316.522,1.613,1.613,0,0,0-.12.6V31a1.587,1.587,0,0,0,.12.593,1.829,1.829,0,0,0,.316.514,1.575,1.575,0,0,0,.447.36A1.066,1.066,0,0,0,15.4,32.594Zm10.417-.165,4.148-.066a1.077,1.077,0,0,0,.507-.146,1.634,1.634,0,0,0,.442-.372,1.9,1.9,0,0,0,.313-.521,1.614,1.614,0,0,0,.119-.593V5.771a1.593,1.593,0,0,0-.119-.59,1.842,1.842,0,0,0-.313-.514,1.581,1.581,0,0,0-.442-.362,1.059,1.059,0,0,0-.507-.135L25.82,4.2a1.074,1.074,0,0,0-.508.142,1.618,1.618,0,0,0-.444.369,1.88,1.88,0,0,0-.314.519,1.607,1.607,0,0,0-.119.593V30.837a1.587,1.587,0,0,0,.119.591,1.824,1.824,0,0,0,.314.512,1.566,1.566,0,0,0,.444.359A1.056,1.056,0,0,0,25.82,32.429Zm27.786,7.554L7.02,40.841V2.3a2.3,2.3,0,0,0-.138-.789A2.059,2.059,0,0,0,6.507.869,1.75,1.75,0,0,0,5.95.437,1.539,1.539,0,0,0,5.268.282L1.758.3a1.557,1.557,0,0,0-.684.163A1.785,1.785,0,0,0,.515.9a2.094,2.094,0,0,0-.377.648A2.31,2.31,0,0,0,0,2.344V45.036a4.556,4.556,0,0,0,.276,1.577,4.049,4.049,0,0,0,.754,1.277,3.438,3.438,0,0,0,1.117.848,3.055,3.055,0,0,0,1.367.291l50.091-1.051a1.5,1.5,0,0,0,.662-.171,1.767,1.767,0,0,0,.54-.439,2.106,2.106,0,0,0,.364-.643,2.323,2.323,0,0,0,.133-.78v-4a2.278,2.278,0,0,0-.133-.775,2,2,0,0,0-.364-.628,1.67,1.67,0,0,0-.54-.418A1.462,1.462,0,0,0,53.605,39.983Z" transform="translate(38.68 26.912)" fill="#00b22d"/>
</svg>
